<svg width="527" height="329" viewBox="0 0 527 329" fill="none" xmlns="http://www.w3.org/2000/svg">
<path d="M263.104 328.228C408.412 328.228 526.208 319.061 526.208 307.753C526.208 296.445 408.412 287.278 263.104 287.278C117.796 287.278 0 296.445 0 307.753C0 319.061 117.796 328.228 263.104 328.228Z" fill="#F5F5F5"/>
<path d="M458.292 19.5264H357.982V145.843H458.292V19.5264Z" fill="#EBEBEB"/>
<path d="M445.525 45.6266H370.405V48.0162H445.525V45.6266Z" fill="#DBDBDB"/>
<path d="M434.014 50.6292H370.405V53.0188H434.014V50.6292Z" fill="#DBDBDB"/>
<path d="M418.914 55.6222H370.405V58.0118H418.914V55.6222Z" fill="#DBDBDB"/>
<path d="M442.903 60.6248H370.405V63.0144H442.903V60.6248Z" fill="#DBDBDB"/>
<path d="M436.738 65.6178H370.405V68.0075H436.738V65.6178Z" fill="#DBDBDB"/>
<path d="M439.24 75.6134H370.405V78.0031H439.24V75.6134Z" fill="#DBDBDB"/>
<path d="M396.775 80.616H370.405V83.0056H396.775V80.616Z" fill="#DBDBDB"/>
<path d="M423.581 85.609H370.405V87.9987H423.581V85.609Z" fill="#DBDBDB"/>
<path d="M442.903 90.6116H370.405V93.0012H442.903V90.6116Z" fill="#DBDBDB"/>
<path d="M432.917 95.6046H370.405V97.9943H432.917V95.6046Z" fill="#DBDBDB"/>
<path d="M438.143 105.6H370.405V107.99H438.143V105.6Z" fill="#DBDBDB"/>
<path d="M411.41 110.603H370.405V112.992H411.41V110.603Z" fill="#DBDBDB"/>
<path d="M411.41 125.731H370.405V128.12H411.41V125.731Z" fill="#DBDBDB"/>
<path d="M439.193 135.717C443.389 135.717 446.79 132.316 446.79 128.121C446.79 123.925 443.389 120.524 439.193 120.524C434.998 120.524 431.597 123.925 431.597 128.121C431.597 132.316 434.998 135.717 439.193 135.717Z" fill="#F06900"/>
<path d="M381.6 29.2616C382.513 29.2621 383.399 29.5663 384.12 30.1263C384.15 30.1482 384.175 30.1759 384.193 30.2078C384.212 30.2396 384.223 30.2749 384.228 30.3115C384.232 30.3481 384.229 30.3852 384.218 30.4206C384.208 30.4559 384.19 30.4886 384.166 30.5169C384.145 30.5459 384.119 30.5704 384.088 30.5889C384.057 30.6075 384.023 30.6197 383.988 30.6249C383.952 30.6301 383.916 30.6281 383.881 30.6192C383.846 30.6102 383.814 30.5944 383.785 30.5727C383.164 30.0785 382.394 29.8097 381.6 29.8102C380.695 29.8102 379.827 30.1697 379.187 30.8097C378.547 31.4496 378.188 32.3176 378.188 33.2227C378.188 34.1277 378.547 34.9957 379.187 35.6356C379.827 36.2756 380.695 36.6351 381.6 36.6351C382.388 36.647 383.156 36.3803 383.767 35.882C383.795 35.8577 383.829 35.8401 383.865 35.8302C383.902 35.8202 383.94 35.8183 383.977 35.8245C384.014 35.8307 384.049 35.8448 384.08 35.866C384.112 35.8871 384.138 35.9148 384.157 35.947C384.185 35.9715 384.207 36.0015 384.222 36.0352C384.237 36.0688 384.245 36.1054 384.245 36.1423C384.245 36.1792 384.237 36.2158 384.222 36.2494C384.207 36.2831 384.185 36.3131 384.157 36.3376C383.433 36.8884 382.547 37.1858 381.637 37.1837C381.117 37.1837 380.602 37.0813 380.121 36.8822C379.641 36.6831 379.204 36.3914 378.836 36.0235C378.469 35.6557 378.177 35.2191 377.978 34.7385C377.779 34.2579 377.676 33.7428 377.676 33.2227C377.676 32.7025 377.779 32.1874 377.978 31.7068C378.177 31.2262 378.469 30.7896 378.836 30.4218C379.204 30.0539 379.641 29.7622 380.121 29.5631C380.602 29.3641 381.117 29.2616 381.637 29.2616H381.6Z" fill="#A6A6A6"/>
<path d="M389.662 29.2616C390.455 29.2207 391.242 29.4186 391.921 29.8296C392.601 30.2407 393.142 30.8461 393.473 31.5676C393.805 32.2891 393.913 33.0935 393.783 33.8769C393.653 34.6604 393.291 35.3868 392.744 35.9623C392.197 36.5379 391.489 36.9361 390.714 37.1056C389.938 37.2751 389.129 37.208 388.392 36.913C387.654 36.618 387.022 36.1087 386.577 35.4508C386.133 34.793 385.895 34.0168 385.896 33.2227C385.88 32.7145 385.965 32.2082 386.146 31.7331C386.327 31.258 386.601 30.8236 386.951 30.4552C387.301 30.0867 387.721 29.7914 388.187 29.5865C388.652 29.3817 389.153 29.2712 389.662 29.2616ZM389.662 36.6351C390.344 36.6742 391.022 36.5078 391.608 36.1574C392.194 35.8069 392.662 35.2886 392.95 34.6695C393.239 34.0505 393.335 33.359 393.226 32.6848C393.117 32.0105 392.809 31.3843 392.34 30.8874C391.871 30.3904 391.265 30.0455 390.598 29.8972C389.931 29.7489 389.235 29.8041 388.6 30.0557C387.965 30.3072 387.42 30.7435 387.036 31.3081C386.652 31.8727 386.446 32.5397 386.445 33.2227C386.42 34.1016 386.744 34.9545 387.347 35.5943C387.951 36.2341 388.783 36.6084 389.662 36.6351Z" fill="#A6A6A6"/>
<path d="M396.003 30.5262V36.9141C396.01 36.9531 396.009 36.9932 395.999 37.0315C395.989 37.0699 395.971 37.1056 395.945 37.1361C395.92 37.1666 395.888 37.1912 395.852 37.208C395.817 37.2249 395.777 37.2336 395.738 37.2336C395.698 37.2336 395.659 37.2249 395.623 37.208C395.587 37.1912 395.556 37.1666 395.53 37.1361C395.505 37.1056 395.487 37.0699 395.477 37.0315C395.467 36.9932 395.466 36.9531 395.473 36.9141V29.7545C395.454 29.7015 395.453 29.6439 395.47 29.5902C395.487 29.5366 395.52 29.4898 395.566 29.4569C395.625 29.4164 395.698 29.4005 395.77 29.4127C395.841 29.4248 395.904 29.464 395.947 29.522L400.68 36.0308V29.6801C400.68 29.6101 400.707 29.5429 400.756 29.4926C400.804 29.4423 400.87 29.4128 400.94 29.4104C400.976 29.4092 401.012 29.4152 401.046 29.4282C401.08 29.4412 401.111 29.4609 401.137 29.486C401.163 29.5112 401.184 29.5414 401.198 29.5747C401.212 29.608 401.219 29.6439 401.219 29.6801V36.8676C401.219 36.9038 401.212 36.9397 401.198 36.973C401.184 37.0063 401.163 37.0365 401.137 37.0617C401.111 37.0868 401.08 37.1065 401.046 37.1195C401.012 37.1325 400.976 37.1385 400.94 37.1373C400.901 37.1369 400.862 37.1275 400.826 37.1098C400.791 37.0921 400.76 37.0665 400.736 37.035C400.725 37.0313 400.715 37.0252 400.707 37.0172C400.699 37.0091 400.693 36.9993 400.689 36.9885L396.003 30.5262Z" fill="#A6A6A6"/>
<path d="M405.943 29.9219H403.59C403.518 29.9195 403.45 29.889 403.399 29.837C403.349 29.7849 403.321 29.7153 403.321 29.6429C403.323 29.5722 403.352 29.5049 403.402 29.4548C403.452 29.4048 403.52 29.3756 403.59 29.3733H408.835C408.905 29.3756 408.973 29.4048 409.023 29.4548C409.073 29.5049 409.102 29.5722 409.104 29.6429C409.104 29.7153 409.076 29.7849 409.026 29.837C408.976 29.889 408.907 29.9195 408.835 29.9219H406.482V36.9142C406.482 36.9857 406.454 37.0543 406.403 37.1048C406.353 37.1554 406.284 37.1838 406.213 37.1838C406.141 37.1838 406.072 37.1554 406.022 37.1048C405.971 37.0543 405.943 36.9857 405.943 36.9142V29.9219Z" fill="#A6A6A6"/>
<path d="M415.073 35.4171C415.074 35.1833 415.016 34.9531 414.906 34.747C414.796 34.5409 414.636 34.3654 414.441 34.2362C414.158 34.0489 413.843 33.9165 413.511 33.8457H413.456H411.596V36.9327C411.584 36.9968 411.55 37.0547 411.5 37.0964C411.45 37.1381 411.387 37.161 411.322 37.161C411.256 37.161 411.193 37.1381 411.143 37.0964C411.093 37.0547 411.059 36.9968 411.047 36.9327V29.6615C411.051 29.5957 411.077 29.533 411.121 29.484C411.165 29.4349 411.224 29.4024 411.289 29.3918H413.521C414.026 29.3971 414.514 29.5735 414.906 29.8921C415.297 30.2108 415.57 30.653 415.677 31.1463C415.785 31.6396 415.723 32.155 415.5 32.6081C415.277 33.0613 414.907 33.4255 414.45 33.6411C414.485 33.6652 414.522 33.684 414.562 33.6969C414.877 33.8664 415.14 34.1171 415.325 34.4229C415.51 34.7287 415.609 35.0784 415.613 35.4357C415.597 35.7486 415.628 36.0621 415.706 36.3655C415.726 36.4361 415.765 36.5001 415.817 36.5515C415.881 36.5442 415.945 36.5574 416 36.5892C416.055 36.621 416.099 36.6697 416.124 36.7282C416.142 36.7997 416.133 36.8751 416.101 36.9413C416.069 37.0075 416.015 37.0604 415.948 37.0908H415.789C415.681 37.0803 415.578 37.0412 415.489 36.9775C415.401 36.9137 415.331 36.8277 415.287 36.7282C415.106 36.3163 415.033 35.8652 415.073 35.4171ZM413.511 29.9218H411.587V33.2878H413.558C414.004 33.2816 414.43 33.0984 414.741 32.7784C415.052 32.4585 415.224 32.0279 415.218 31.5816C415.211 31.1352 415.028 30.7096 414.708 30.3983C414.388 30.0871 413.958 29.9157 413.511 29.9218Z" fill="#A6A6A6"/>
<path d="M422.401 35.1661H418.84L418.151 37.0257C418.133 37.0772 418.098 37.1217 418.054 37.1532C418.009 37.1848 417.955 37.2019 417.9 37.2024H417.798C417.73 37.1735 417.676 37.1199 417.647 37.0524C417.618 36.985 417.615 36.9089 417.64 36.8397L420.346 29.6057C420.37 29.5552 420.409 29.5127 420.456 29.4831C420.504 29.4534 420.559 29.4379 420.615 29.4383C420.672 29.4355 420.728 29.45 420.776 29.4799C420.825 29.5098 420.863 29.5537 420.885 29.6057L423.591 36.8397C423.617 36.9067 423.617 36.981 423.591 37.0481C423.566 37.1152 423.516 37.1702 423.451 37.2024H423.349C423.293 37.2013 423.239 37.1841 423.193 37.1527C423.147 37.1213 423.11 37.0772 423.089 37.0257L422.401 35.1661ZM419.044 34.6175H422.205L420.625 30.4239L419.044 34.6175Z" fill="#A6A6A6"/>
<path d="M428.603 29.2616C429.515 29.2621 430.402 29.5663 431.122 30.1263C431.152 30.1482 431.177 30.1759 431.195 30.2078C431.214 30.2396 431.226 30.2749 431.23 30.3115C431.235 30.3481 431.231 30.3852 431.221 30.4206C431.21 30.4559 431.193 30.4886 431.169 30.5169C431.148 30.5459 431.121 30.5704 431.09 30.5889C431.06 30.6075 431.026 30.6197 430.99 30.6249C430.955 30.6301 430.918 30.6281 430.884 30.6192C430.849 30.6102 430.816 30.5944 430.788 30.5727C430.167 30.0785 429.396 29.8097 428.603 29.8102C427.698 29.8102 426.83 30.1697 426.19 30.8097C425.55 31.4496 425.19 32.3176 425.19 33.2227C425.19 34.1277 425.55 34.9957 426.19 35.6356C426.83 36.2756 427.698 36.6351 428.603 36.6351C429.391 36.647 430.158 36.3803 430.769 35.882C430.798 35.8577 430.832 35.8401 430.868 35.8302C430.904 35.8202 430.942 35.8183 430.979 35.8245C431.016 35.8307 431.052 35.8448 431.083 35.866C431.114 35.8871 431.14 35.9148 431.16 35.947C431.187 35.9715 431.209 36.0015 431.225 36.0352C431.24 36.0688 431.248 36.1054 431.248 36.1423C431.248 36.1792 431.24 36.2158 431.225 36.2494C431.209 36.2831 431.187 36.3131 431.16 36.3376C430.435 36.8884 429.55 37.1858 428.64 37.1837C428.12 37.1837 427.605 37.0813 427.124 36.8822C426.643 36.6831 426.207 36.3914 425.839 36.0235C425.471 35.6557 425.179 35.2191 424.98 34.7385C424.781 34.2579 424.679 33.7428 424.679 33.2227C424.679 32.7025 424.781 32.1874 424.98 31.7068C425.179 31.2262 425.471 30.7896 425.839 30.4218C426.207 30.0539 426.643 29.7622 427.124 29.5631C427.605 29.3641 428.12 29.2616 428.64 29.2616H428.603Z" fill="#A6A6A6"/>
<path d="M435.53 29.9219H433.177C433.105 29.9195 433.036 29.889 432.986 29.837C432.936 29.7849 432.908 29.7153 432.908 29.6429C432.91 29.5722 432.939 29.5049 432.989 29.4548C433.039 29.4048 433.107 29.3756 433.177 29.3733H438.422C438.492 29.3756 438.56 29.4048 438.61 29.4548C438.66 29.5049 438.689 29.5722 438.691 29.6429C438.692 29.6791 438.686 29.7152 438.673 29.749C438.66 29.7828 438.641 29.8136 438.616 29.8397C438.59 29.8657 438.56 29.8864 438.527 29.9005C438.494 29.9146 438.458 29.9219 438.422 29.9219H436.069V36.9142C436.069 36.9857 436.041 37.0543 435.99 37.1048C435.94 37.1554 435.871 37.1838 435.799 37.1838C435.728 37.1838 435.659 37.1554 435.609 37.1048C435.558 37.0543 435.53 36.9857 435.53 36.9142V29.9219Z" fill="#A6A6A6"/>
<path d="M274.996 259.067C346.523 259.067 404.506 201.083 404.506 129.557C404.506 58.0307 346.523 0.0472412 274.996 0.0472412C203.47 0.0472412 145.487 58.0307 145.487 129.557C145.487 201.083 203.47 259.067 274.996 259.067Z" fill="#F06900"/>
<g opacity="0.2">
<path d="M329.424 146.858C324.702 154.376 333.292 163.142 327.606 169.737C326.086 171.515 321.866 172.342 320.821 174.364C319.953 176.033 321.608 178.584 321.093 180.443C320.414 182.872 318.949 181.99 317.456 184.134C316.235 185.871 316.628 188.368 315.23 190.349C314.111 192.184 312.62 193.765 310.853 194.989C309.086 196.214 307.083 197.055 304.972 197.46C298.472 198.925 297.915 198.722 295.785 193.036L289.204 175.585C287.548 171.175 288.24 169.425 289.57 164.73C290.9 160.034 291.388 158.963 289.421 154.702C287.96 152.044 286.678 149.292 285.581 146.465C284.861 144.049 285.581 142.258 285.268 139.68C284.997 137.699 285.078 136.627 283.233 135.012C282.731 134.564 280.994 135.487 280.37 135.161C279.746 134.835 279.162 132.854 278.389 132.705C275.145 132.094 270.695 134.266 266.949 134.415C261.25 134.632 257.45 134.537 253.705 131.036C249.96 127.535 246.69 123.559 246.391 118.294C245.74 106.787 254.302 102.58 259.052 93.2985C260.626 90.2182 259.052 89.0919 263.055 86.7307C265.077 85.523 265.633 85.6316 268.171 85.1566C274.196 84.0304 280.533 83.7997 286.625 83.0669C286.096 87.6535 285.716 86.9614 289.448 89.214C292.42 91.0052 295.866 92.3215 298.947 93.8413C299.992 87.3142 308.731 92.0772 313.534 92.4843C314.575 92.6111 315.628 92.6111 316.669 92.4843L318.786 97.4101H318.664C321.486 103.517 323.888 110.098 327.375 115.892C328.624 117.968 332.165 124.726 334.432 125.649C337.146 126.748 342.329 124.292 344.704 123.573C343.55 134.428 334.635 138.499 329.424 146.858Z" fill="black"/>
<path opacity="0.2" d="M402.688 107.886C400.856 106.122 398.617 105.959 395.346 107.886C393.121 109.175 387.123 114.874 386.241 117.208C384.206 122.555 387.91 124.712 383.527 129.421C380.243 127.101 379.456 122.012 378.235 118.565C376.878 114.793 374.476 110.6 374.843 106.488C372.427 111.658 369.008 105.253 366.782 103.367C363.498 100.653 361.354 101.847 356.971 101.44C355.261 101.119 353.584 100.637 351.964 100.002C352.778 100.219 350.241 98.4956 350.376 98.4956C349.793 98.2784 348.884 99.364 348.083 99.0519C345.518 98.0478 340.728 92.8641 338.462 94.1532C339.439 96.0801 341.38 101.589 343.361 102.689C346.441 104.398 348.789 100.911 351.163 101.332C352.994 102.57 354.6 104.112 355.913 105.891C356.32 107.669 355.913 107.031 354.556 109.351C352.999 112.35 350.481 114.739 347.405 116.136C345.003 117.493 339.426 121.021 336.549 121.089C332.804 121.171 332.871 119.569 331.27 116.557C329.995 114.169 325.055 102.146 321.269 98.3598L318.42 91.8464C320.306 90.4894 320.007 87.6262 320.835 83.5281C317.958 83.6774 314.172 84.5323 311.431 83.6231C307.36 82.2661 307.984 80.5428 307.36 76.7568L302.828 77.5846C303.309 78.493 303.586 79.4954 303.64 80.5219C303.694 81.5484 303.523 82.5743 303.14 83.5281C301.593 82.1262 300.172 80.5915 298.893 78.9415C298.296 77.9645 298.241 76.0648 297.699 75.3456C295.745 72.7537 292.013 70.6233 289.475 68.5607C286.436 72.8894 293.546 76.2547 296.64 77.9238C293.695 81.3977 292.868 84.8715 288.648 81.1263C293.397 81.4248 293.926 80.2035 291.592 76.9332C289.109 73.4322 285.825 71.5053 282.297 71.7089C281.754 71.7089 281.333 73.188 280.791 73.2422C280.248 73.2965 278.592 72.1431 278.077 72.4009C277.561 72.6588 276.625 72.0752 276.163 72.2788C275.702 72.4823 276.394 74.1378 276.163 74.355C274.087 76.2004 272.567 79.023 270.735 80.9091C268.307 83.4467 265.701 85.7264 261.983 83.6231C259.269 82.0354 258.265 76.6347 260.056 73.7986C262.241 70.3383 267.058 74.6535 270.193 72.3195C273.327 69.9855 269.121 66.4031 267.479 64.5983C270.048 63.8337 272.557 62.8766 274.983 61.7351C277.697 60.1746 276.923 58.9397 279.135 57.3114C280.845 56.0358 281.998 56.8229 283.111 55.3709C284.753 53.2404 281.157 50.9879 285.974 50.7707C283.342 57.5556 295.215 56.7143 298.648 54.2853C299.381 53.7697 298.743 52.0463 299.259 51.3135C299.911 50.6596 300.619 50.0647 301.376 49.5359V47.7311H303.683C305.23 46.5913 306.288 48.6674 307.048 45.8721C303.71 46.442 301.797 47.6633 299.666 45.4921C296.654 42.4254 299.232 41.6926 301.905 39.5486C297.007 36.0476 289.801 45.9535 295.799 46.8355C294.673 48.1925 291.646 53.6882 289.977 54.041C286.653 54.7602 287.263 50.133 286.816 47.8804C284.59 48.7624 283.084 49.8616 281.578 48.9117C279.841 47.8261 279.895 44.9222 280.397 44.0266C281.428 42.1947 286.151 41.5705 287.942 40.1456C289.733 38.7208 290.656 35.7762 292.718 34.4599C299.598 29.9548 313.209 31.6103 319.492 36.4275C316.628 38.1644 313.06 37.0246 309.911 36.6582C311.757 39.1008 314.335 42.0861 317.687 41.0412C318.107 40.9055 318.895 38.7615 319.682 38.3273C321.486 37.1467 324.594 36.6039 326.656 35.8712C333.563 33.4422 338.869 33.3879 346.143 34.7177C342.601 25.2189 348.327 30.6468 354.909 29.4662C355.478 29.3632 356.036 29.2088 356.578 29.0049C381.03 48.8153 397.423 76.8592 402.688 107.886Z" fill="black"/>
<path opacity="0.2" d="M273.531 60.3919L265.606 62.1288C266.474 60.8532 268.836 58.5871 268.971 57.1758C269.243 54.1769 267.614 55.7374 267.126 54.6247C264.873 49.9839 266.094 49.8346 270.288 47.5006C270.857 49.7939 271.02 53.0235 272.174 55.1539C273.327 57.2844 276.801 58.275 273.531 60.3919Z" fill="black"/>
<path opacity="0.2" d="M266.366 54.8553C264.059 58.8177 265.945 58.777 260.558 59.6454C261.942 56.443 261.155 52.8063 266.366 54.8553Z" fill="black"/>
<path opacity="0.2" d="M334.907 31.5562C325.53 28.7201 340.24 24.5949 342.085 24.1335C338.259 24.1335 332.926 23.36 329.873 26.359C326.521 29.6835 330.497 33.4288 334.907 31.5562Z" fill="black"/>
<path opacity="0.2" d="M291.728 24.1335L295.12 21.4195C292.116 20.182 288.823 19.8198 285.622 20.3746L291.728 24.1335Z" fill="black"/>
<path opacity="0.2" d="M293.614 19.3705C296.111 22.0844 299.504 20.7274 302.828 20.3068C299.748 19.8725 296.722 19.574 293.614 19.3705Z" fill="black"/>
<path d="M342.302 162.721C339.209 165.517 335.314 167.851 334.391 171.799C333.903 173.862 332.41 182.492 334.228 183.822C338.435 186.916 339.846 177.349 340.661 175.097C342.492 169.981 343.483 167.973 342.302 162.721Z" fill="black"/>
<path opacity="0.2" d="M257.396 37.2554C260.517 38.0967 262.01 37.1197 264.833 35.8984C263.286 34.5278 253.366 33.9172 257.396 37.2554Z" fill="black"/>
<path opacity="0.2" d="M232.659 163.549C231.329 167.267 229.972 170.985 228.588 174.703C224.517 186.034 213.905 195.533 206.252 205.032C202.181 210.107 202.737 212.007 202.873 218.601C203.009 225.766 205.492 226.486 211.449 231.194C204.135 231.194 202.357 231.031 197.499 225.441C194.107 221.546 193.171 217.462 191.475 212.536C188.109 202.779 188.53 192.52 187.879 182.302C187.607 177.499 188.34 174.622 185.165 171.447C183.061 169.411 179.642 168.665 177.633 166.616C176.244 164.869 175.073 162.96 174.146 160.93C170.699 155.054 168.976 153.426 170.17 146.913C171.066 142.027 173.522 138.526 176.141 134.184C175.489 132.61 172.436 125.038 171.147 130.67C168.867 129.38 165.936 128.241 164.213 126.395C163.249 125.323 162.856 123.342 161.892 122.473C160.929 121.605 159.504 121.768 158.391 120.994C156.899 119.936 154.456 117.168 152.964 116.503C150.982 115.58 148.268 116.421 146.179 115.607C149.576 84.0394 164.473 54.8261 188.028 33.5373H191.624H191.936C193.266 33.4124 194.603 33.3671 195.939 33.4016C197.201 33.5509 198.056 34.1615 197.703 35.9934C199.235 34.9021 200.888 33.9914 202.629 33.2795C203.543 32.9634 204.519 32.8658 205.479 32.9945L205.953 33.0624C203.429 37.3504 202.507 36.984 197.391 37.6218L201.462 41.1906L194.908 41.2856C195.505 40.1322 195.64 38.7616 196.265 37.6218C192.831 39.5758 179.235 44.9087 178.461 48.1248C177.335 52.8199 185.124 52.1957 187.458 53.5527C191.013 55.5338 189.683 56.0766 188.611 60.5818C192.289 60.5818 198.232 48.8033 200.417 46.3064C202.602 43.8096 203.212 42.3033 207.283 43.8096C212.128 45.6279 208.274 46.415 210.35 49.3868L215.887 46.1164C217.569 49.7531 223.282 56.9723 218.695 59.8897C214.38 62.6037 206.578 61.6402 201.503 64.3542L207.541 63.4586C206.592 64.7326 205.997 66.2357 205.818 67.8145H211.558L203.511 70.9898V69.0086C194.134 72.3061 191.542 77.6797 184.907 84.3831C182.559 86.7714 176.683 88.6033 175.232 91.3987C173.481 94.859 176.778 98.7128 173.875 102.39C171.731 96.3924 172.043 92.8914 164.308 93.6784C160.413 94.0719 152.869 95.9853 150.833 98.6992C148.418 101.875 147.712 110.613 151.783 112.73C153.615 113.68 156.777 111.875 158.269 111.116C160.563 109.935 161.323 108.659 164.511 107.75L160.441 117.249L167.999 118.131C167.456 121.266 165.651 125.282 169.505 127.291C171.713 127.913 173.996 128.228 176.29 128.227C179.004 127.861 182.396 126.232 185.504 125.798C189.032 125.296 190.158 125.16 193.239 126.056C197.527 127.304 208.545 131.09 211.259 134.361C213.295 136.789 212.616 141.457 214.733 143.764C215.886 144.999 219.333 145.623 220.948 146.248C224.761 147.686 235.508 150.061 236.309 153.222C236.933 155.502 233.432 161.405 232.659 163.549Z" fill="black"/>
<path opacity="0.2" d="M167.809 106.909C173.332 104.778 176.589 111.224 182.098 110.179C176.182 107.112 174.051 104.534 167.809 106.909Z" fill="black"/>
<path opacity="0.2" d="M183.36 110.898C186.074 111.183 189.819 110.491 190.606 113.382C187.336 113.965 184.581 114.915 181.555 113.083C182.573 113.083 183.658 112.676 184.676 112.635L183.36 110.898Z" fill="black"/>
<path opacity="0.2" d="M176.059 112.635C177.042 112.795 178.016 113.007 178.977 113.273C178.059 113.772 177.078 114.142 176.059 114.372V112.635Z" fill="black"/>
<path opacity="0.2" d="M192.058 112.635C192.397 113.119 192.894 113.47 193.463 113.629C194.032 113.787 194.639 113.743 195.179 113.504C194.216 113.219 193.117 112.866 192.058 112.635Z" fill="black"/>
<path opacity="0.2" d="M218.329 60.5411L213.281 65.372L222.034 67.5567C221.912 66.2947 222.197 63.7979 221.572 62.6445C220.826 61.2061 218.044 63.9336 218.329 60.5411Z" fill="black"/>
<path opacity="0.2" d="M213.281 35.8983L204.637 39.7522C207.147 40.6478 212.779 43.9181 215.316 43.5245C217.854 43.131 221.966 38.558 224.069 36.9839C221.355 34.4464 217.542 29.3034 214.041 28.0686C211.658 27.3478 209.134 27.2182 206.69 27.691C204.245 28.1639 201.952 29.225 200.01 30.7825C200.96 31.5832 202.344 33.3744 203.538 33.7543C204.366 34.0257 205.818 32.5059 206.686 32.6552C209.142 33.0758 212.467 33.3608 213.281 35.8983Z" fill="black"/>
<path opacity="0.2" d="M210.377 34.7042C206.523 35.8169 208.857 37.0111 211.49 35.5456L210.377 34.7042Z" fill="black"/>
<path opacity="0.2" d="M193.171 34.7042C187.268 30.6332 199.359 26.1824 202.832 26.1824C201.055 27.2137 197.092 28.6385 196.183 30.2533C195.003 32.438 197.879 36.034 193.171 34.7042Z" fill="black"/>
<path opacity="0.2" d="M239.471 17.3486C231.546 19.0855 224.259 20.2797 217.081 23.8892C213.173 25.8297 212.318 26.1554 207.962 25.8297C205.696 25.6669 201.177 26.0332 197.717 25.6126C201.385 22.8746 205.199 20.3378 209.143 18.0135C211.219 17.7014 213.037 17.4979 214.163 17.3622C222.332 16.3987 231.234 17.3486 239.471 17.3486Z" fill="black"/>
<path opacity="0.2" d="M226.512 23.9299C233.582 21.7452 239.43 20.0354 246.866 19.5469C254.114 19.0327 261.396 19.3285 268.578 20.4289C265.226 23.8349 261.481 29.4121 257.166 31.4747C254.045 32.9674 249.77 32.316 246.649 33.8087C244.234 34.9757 242.036 37.7032 240.014 39.4401C234.911 43.8774 232.482 38.938 233.364 33.673C233.717 31.5018 236.431 27.743 234.016 25.5311C232.292 24.1334 228.439 25.5718 226.512 23.9299Z" fill="black"/>
</g>
<path d="M274.997 281.809C244.883 281.811 215.445 272.882 190.406 256.152C165.367 239.423 145.851 215.644 134.327 187.822C122.803 160.001 119.787 129.387 125.663 99.8519C131.538 70.3168 146.04 43.1874 167.334 21.8945C167.588 21.6418 167.932 21.4999 168.291 21.4999C168.649 21.4999 168.993 21.6418 169.248 21.8945L185.368 38.0018C185.624 38.2573 185.767 38.6038 185.767 38.9652C185.767 39.3266 185.624 39.6731 185.368 39.9287C185.113 40.1842 184.766 40.3278 184.405 40.3278C184.044 40.3278 183.697 40.1842 183.441 39.9287L168.298 24.7848C140.671 52.9138 125.272 90.8149 125.449 130.241C125.627 169.667 141.368 207.428 169.247 235.307C197.125 263.185 234.886 278.926 274.312 279.104C313.738 279.282 351.64 263.882 379.769 236.256L364.598 221.085C364.342 220.829 364.199 220.483 364.199 220.121C364.199 219.76 364.342 219.413 364.598 219.158C364.853 218.902 365.2 218.759 365.561 218.759C365.922 218.759 366.269 218.902 366.525 219.158L382.659 235.292C382.912 235.547 383.054 235.89 383.054 236.249C383.054 236.607 382.912 236.951 382.659 237.206C368.553 251.389 351.775 262.634 333.295 270.29C314.815 277.946 295 281.861 274.997 281.809Z" fill="#F06900"/>
<path d="M274.997 300.02C274.637 300.02 274.292 299.877 274.037 299.623C273.783 299.368 273.64 299.023 273.64 298.663V280.452C273.64 280.093 273.783 279.747 274.037 279.493C274.292 279.238 274.637 279.095 274.997 279.095C275.357 279.095 275.702 279.238 275.956 279.493C276.211 279.747 276.354 280.093 276.354 280.452V298.663C276.354 299.023 276.211 299.368 275.956 299.623C275.702 299.877 275.357 300.02 274.997 300.02Z" fill="#F06900"/>
<path d="M313.888 298.663C313.888 300.861 296.478 302.639 274.997 302.639C253.516 302.639 236.092 300.861 236.092 298.663C236.092 296.465 253.516 290.983 274.997 290.983C296.478 290.983 313.888 296.465 313.888 298.663Z" fill="#F06900"/>
<path d="M121.807 318C149.538 318 172.018 313.213 172.018 307.307C172.018 301.401 149.538 296.614 121.807 296.614C94.0767 296.614 71.5967 301.401 71.5967 307.307C71.5967 313.213 94.0767 318 121.807 318Z" fill="#EBEBEB"/>
<path d="M129.051 131.924C129.051 131.924 104.048 128.427 109.887 98.236C109.887 98.236 137.828 104.512 129.051 131.924Z" fill="#12B9BA"/>
<path opacity="0.1" d="M129.051 131.924C129.051 131.924 104.048 128.427 109.887 98.236C109.887 98.236 137.828 104.512 129.051 131.924Z" fill="black"/>
<path d="M127.786 125.619C127.297 124.094 126.729 122.595 126.084 121.128C126.084 120.933 126.084 120.738 126.019 120.552C126.019 120.133 125.945 119.724 125.917 119.306C125.843 118.376 125.787 117.502 125.731 116.6C125.629 114.796 125.517 112.992 125.489 111.188C125.489 111.086 125.331 111.096 125.331 111.188C125.331 113.002 125.331 114.806 125.331 116.609C125.331 117.539 125.424 118.413 125.48 119.315C125.48 119.52 125.48 119.715 125.48 119.92C124.075 116.913 122.394 114.043 120.459 111.347C119.644 110.145 118.765 108.987 117.827 107.878C116.833 106.735 115.782 105.647 114.768 104.522C114.703 104.447 114.601 104.522 114.666 104.633C116.462 106.619 118.074 108.763 119.483 111.04C120.245 112.183 120.961 113.364 121.649 114.564L121.417 114.48L120.487 114.117L118.441 113.346C117.102 112.844 115.763 112.36 114.424 111.849C114.341 111.849 114.285 111.96 114.369 111.988C115.698 112.518 117.009 113.076 118.33 113.643L120.264 114.48L121.24 114.88C121.449 114.985 121.671 115.063 121.9 115.112C122.402 116.042 122.904 116.925 123.369 117.855C124.529 120.194 125.547 122.601 126.419 125.061C126.484 125.229 126.54 125.405 126.605 125.582C125.945 125.202 125.258 124.87 124.55 124.587L121.965 123.416C120.208 122.607 118.469 121.788 116.786 120.84C116.769 120.83 116.748 120.828 116.729 120.833C116.71 120.838 116.694 120.851 116.684 120.868C116.674 120.885 116.671 120.906 116.677 120.925C116.682 120.944 116.694 120.96 116.712 120.97C118.432 121.9 120.115 122.914 121.835 123.843C122.7 124.308 123.565 124.773 124.448 125.192C125.175 125.624 125.966 125.938 126.791 126.121C127.63 128.409 128.183 130.792 128.437 133.216C128.716 136.628 128.688 140.069 128.772 143.491H128.855C129.106 140.385 129.246 137.251 129.264 134.137C129.228 131.237 128.729 128.362 127.786 125.619Z" fill="#263238"/>
<path d="M123.936 107.869C123.695 109.634 123.611 111.417 123.685 113.197C123.685 113.243 123.76 113.243 123.76 113.197C123.862 111.43 123.881 109.664 124.085 107.906C124.095 107.813 123.946 107.776 123.936 107.869Z" fill="#263238"/>
<path d="M116.786 109.385C115.668 108.956 114.591 108.427 113.569 107.804C113.485 107.748 113.411 107.888 113.494 107.934C114.496 108.61 115.593 109.134 116.749 109.487C116.804 109.505 116.897 109.412 116.786 109.385Z" fill="#263238"/>
<path d="M129.85 179.847C129.85 177.057 129.776 174.324 129.748 171.562C129.692 162.385 129.618 153.207 129.45 144.03C129.32 136.74 129.15 129.456 128.939 122.179C128.938 122.16 128.933 122.142 128.923 122.125C128.913 122.109 128.899 122.095 128.883 122.086C128.883 120.096 128.883 118.106 128.883 116.117C128.883 116.061 128.827 116.042 128.762 116.042C128.697 116.042 128.641 116.042 128.651 116.117C128.651 118.113 128.651 120.105 128.651 122.095C128.651 122.095 128.585 122.142 128.585 122.179C128.223 135.197 127.897 148.112 127.814 161.083C127.814 163.724 127.814 166.355 127.814 168.996C127.721 177.445 127.687 185.9 127.711 194.361C127.711 195.7 127.711 197.048 127.711 198.397C127.711 206.133 127.795 213.869 127.795 221.642C127.795 222.051 128.26 222.265 128.725 222.284C129.19 222.302 129.887 222.079 129.887 221.605C129.887 213.079 129.943 204.543 129.943 196.016C129.915 190.605 129.915 185.221 129.85 179.847Z" fill="#263238"/>
<path d="M119.408 171.45C119.408 171.45 107.376 162.543 95.9672 168.549C84.5583 174.556 82.7544 197.783 82.7544 197.783C82.7544 197.783 99.4912 200.182 110.073 190.131C120.245 180.46 119.408 171.45 119.408 171.45Z" fill="#12B9BA"/>
<path d="M122.681 171.999C120.472 171.119 118.079 170.799 115.717 171.069C115.231 170.983 114.74 170.933 114.248 170.92L112.546 170.79L109.041 170.549C106.67 170.372 104.289 170.223 101.918 169.981C101.902 169.987 101.888 169.998 101.877 170.012C101.867 170.026 101.862 170.043 101.862 170.06C101.862 170.078 101.867 170.095 101.877 170.109C101.888 170.123 101.902 170.134 101.918 170.139C104.261 170.437 106.567 170.772 108.938 171.004C110.147 171.125 111.356 171.255 112.574 171.339L113.448 171.423C113.095 171.506 112.732 171.59 112.379 171.692C110.492 172.242 108.666 172.983 106.93 173.905C106 174.073 105.07 174.342 104.14 174.556C102.653 174.909 101.174 175.291 99.6959 175.681C96.7762 176.444 93.8845 177.308 90.9834 178.154C90.8904 178.154 90.9369 178.322 90.9834 178.294C93.8752 177.587 96.7948 176.936 99.6959 176.248L103.917 175.235L105.024 174.974C101.796 176.982 98.9115 179.493 96.4787 182.413C94.1373 185.295 92.146 188.444 90.5464 191.795C90.5464 191.879 90.6208 191.962 90.6766 191.879C92.6567 188.454 95.0727 185.3 97.8641 182.497C97.8083 182.655 97.7618 182.822 97.706 182.98L97.0366 185.1C96.5902 186.523 96.1067 187.936 95.7162 189.359C95.7162 189.452 95.8371 189.48 95.865 189.359C96.3764 187.983 96.8599 186.569 97.3434 185.221C97.5759 184.542 97.8176 183.873 98.0501 183.194C98.1802 182.841 98.3011 182.487 98.4127 182.134C98.4127 182.032 98.4964 181.92 98.5336 181.809C99.874 180.507 101.296 179.293 102.792 178.173C104.778 176.72 106.921 175.494 109.18 174.519C109.18 174.723 109.106 174.937 109.059 175.133C108.938 175.681 108.817 176.23 108.706 176.778C108.473 177.913 108.25 179.056 108.027 180.2C107.571 182.525 107.293 184.849 106.856 187.211C106.856 187.313 106.986 187.35 107.004 187.211C107.544 184.868 108.241 182.562 108.762 180.219C109.022 179.047 109.282 177.876 109.533 176.704L109.868 175.049C109.924 174.742 109.998 174.435 110.036 174.119L110.686 173.849C113.838 172.678 117.325 171.832 120.691 172.483C122.283 172.777 123.778 173.461 125.042 174.474C126.305 175.486 127.299 176.795 127.935 178.285C128.046 178.545 128.455 178.378 128.39 178.108C127.739 175.263 125.331 173.115 122.681 171.999Z" fill="#263238"/>
<path d="M104.271 181.911C103.936 183.436 103.592 184.961 103.257 186.486C102.877 187.946 102.598 189.431 102.42 190.93C102.42 190.995 102.495 190.995 102.513 190.93C102.956 189.465 103.298 187.97 103.536 186.458C103.834 184.951 104.131 183.445 104.42 181.939C104.438 181.855 104.289 181.818 104.271 181.911Z" fill="#263238"/>
<path d="M92.6382 185.788C91.104 186.56 89.6256 187.443 87.9891 188.085C87.9799 188.089 87.9716 188.094 87.9645 188.101C87.9575 188.108 87.9519 188.116 87.948 188.125C87.9441 188.134 87.942 188.144 87.9419 188.154C87.9418 188.164 87.9436 188.173 87.9473 188.183C87.9509 188.192 87.9564 188.2 87.9632 188.207C87.9701 188.214 87.9783 188.22 87.9874 188.224C87.9965 188.228 88.0062 188.23 88.0161 188.23C88.0259 188.23 88.0357 188.228 88.0449 188.224C89.6455 187.515 91.2068 186.721 92.7219 185.844C92.7219 185.844 92.7219 185.77 92.6382 185.788Z" fill="#263238"/>
<path d="M122.114 155.086C122.114 155.086 107.413 156.015 100.57 146.336C93.7263 136.656 95.2698 122.793 95.2698 122.793C95.2698 122.793 110.714 124.652 116.842 131.635C122.969 138.618 122.114 155.086 122.114 155.086Z" fill="#12B9BA"/>
<path d="M128.986 169.591C128.474 168.019 127.842 166.467 127.247 164.942C126.652 163.417 126.066 161.985 125.387 160.534C124.078 157.572 122.61 154.682 120.989 151.878C119.948 150.092 118.832 148.354 117.688 146.643C117.688 146.382 117.614 146.122 117.577 145.862C117.511 145.406 117.446 144.932 117.372 144.495C117.223 143.565 117.065 142.635 116.907 141.705C116.572 139.669 116.154 137.651 115.828 135.624C115.828 135.531 115.661 135.531 115.68 135.624C115.968 137.633 116.173 139.65 116.451 141.659C116.591 142.644 116.721 143.63 116.87 144.616L117.037 145.685C114.795 142.403 112.367 139.252 109.766 136.247L108.753 135.076C108.753 134.964 108.66 134.852 108.613 134.741C108.501 134.462 108.399 134.183 108.297 133.895C108.074 133.318 107.869 132.732 107.655 132.147C107.246 130.994 106.874 129.831 106.558 128.651C106.558 128.558 106.391 128.604 106.419 128.651C106.716 129.859 107.023 131.059 107.348 132.249C107.525 132.825 107.711 133.393 107.916 133.96C107.916 134.053 107.981 134.146 108.018 134.239C106.158 132.193 104.178 130.222 102.197 128.269C102.132 128.204 102.03 128.269 102.095 128.381C105.893 132.355 109.375 136.621 112.509 141.138C112.152 141.025 111.789 140.935 111.421 140.868C110.287 140.645 109.152 140.487 108.009 140.338C105.61 140.032 103.22 139.734 100.84 139.353C100.737 139.353 100.7 139.483 100.84 139.502C103.118 139.948 105.368 140.431 107.637 140.989C108.706 141.231 109.775 141.436 110.845 141.649C111.722 141.836 112.585 142.082 113.43 142.384C113.662 142.728 113.913 143.063 114.146 143.407C115.224 144.969 116.256 146.578 117.27 148.186L115.773 147.898C114.638 147.675 113.495 147.47 112.36 147.284C110.119 146.912 107.869 146.522 105.656 146.02C105.563 146.02 105.526 146.15 105.656 146.168C107.906 146.698 110.129 147.312 112.36 147.907C113.439 148.195 114.527 148.456 115.615 148.698L117.242 149.051C117.461 149.108 117.685 149.146 117.911 149.162C120.059 152.64 122.068 156.211 123.937 159.846C124.755 161.445 125.545 163.063 126.308 164.681C127.07 166.299 127.767 168.057 128.493 169.749C128.595 170.102 129.125 169.963 128.986 169.591Z" fill="#263238"/>
<path d="M113.959 135.81C113.68 134.406 113.383 133.021 113.03 131.607C113.03 131.514 112.862 131.561 112.881 131.607C113.16 132.984 113.429 134.397 113.68 135.745C113.886 137.131 114.162 138.506 114.508 139.864C114.42 138.502 114.237 137.147 113.959 135.81Z" fill="#263238"/>
<path d="M105.386 135.401C104.708 135.057 103.982 134.787 103.276 134.471L102.16 134.034L101.593 133.811C101.375 133.741 101.166 133.648 100.97 133.532C100.858 133.458 100.793 133.644 100.905 133.662C101.123 133.722 101.332 133.809 101.528 133.923L102.085 134.174L103.164 134.648C103.869 134.978 104.592 135.267 105.331 135.513C105.414 135.578 105.47 135.438 105.386 135.401Z" fill="#263238"/>
<path d="M137.159 143.528C137.159 143.528 146.057 126.912 159.586 124.336C173.115 121.761 181.409 135.689 181.409 135.689C181.409 135.689 171.534 148.298 159.093 150.501C146.652 152.705 137.159 143.528 137.159 143.528Z" fill="#12B9BA"/>
<path d="M168.661 131.784C165.134 131.306 161.556 131.35 158.042 131.914L158.647 131.589L161.65 130.045C163.714 128.904 165.833 127.868 168.001 126.94C168.103 126.893 168.001 126.754 167.945 126.8C165.825 127.786 163.631 128.66 161.511 129.59C160.441 130.073 159.4 130.585 158.368 131.133C157.698 131.487 156.964 131.821 156.304 132.249C153.331 132.845 150.442 133.804 147.703 135.104L149.395 133.244C150.65 131.858 151.896 130.408 153.282 129.153C153.356 129.088 153.282 128.985 153.17 129.05C151.757 130.334 150.26 131.524 148.884 132.863C148.223 133.514 147.582 134.183 146.959 134.88C146.652 135.224 146.336 135.578 146.029 135.95C141.381 138.438 137.342 141.926 134.204 146.163C131.066 150.399 128.905 155.279 127.879 160.451C127.879 160.544 128 160.59 128.028 160.497C129.934 154.162 133.348 148.384 137.977 143.658C142.966 138.593 149.24 134.983 156.127 133.216C160.212 132.175 164.437 131.792 168.642 132.082C168.682 132.084 168.721 132.071 168.75 132.045C168.78 132.018 168.798 131.982 168.8 131.942C168.803 131.903 168.79 131.864 168.763 131.834C168.737 131.805 168.7 131.787 168.661 131.784Z" fill="#263238"/>
<path opacity="0.1" d="M181.409 135.689C181.409 135.689 171.534 148.298 159.093 150.501C149.618 152.175 141.826 147.238 138.637 144.802L137.949 143.677C137.949 143.677 144.355 138.284 156.48 135.169C168.605 132.054 181.409 135.689 181.409 135.689Z" fill="black"/>
<path d="M160.794 125.861C159.759 126.467 158.756 127.128 157.791 127.842C156.851 128.559 155.976 129.358 155.178 130.231C155.168 130.248 155.164 130.267 155.166 130.287C155.169 130.306 155.178 130.324 155.192 130.337C155.207 130.35 155.225 130.358 155.245 130.359C155.264 130.36 155.284 130.354 155.299 130.343C156.229 129.562 157.094 128.781 158.033 128.046C158.937 127.302 159.888 126.616 160.878 125.991C160.887 125.986 160.894 125.979 160.9 125.97C160.906 125.962 160.91 125.952 160.912 125.943C160.914 125.933 160.914 125.922 160.912 125.912C160.911 125.902 160.907 125.893 160.901 125.884C160.896 125.876 160.889 125.868 160.88 125.863C160.872 125.857 160.863 125.853 160.853 125.851C160.843 125.848 160.833 125.848 160.823 125.85C160.813 125.852 160.803 125.856 160.794 125.861Z" fill="#263238"/>
<path d="M168.224 128.669C167.722 128.883 167.21 129.06 166.708 129.274L165.202 129.896C165.099 129.896 165.146 130.12 165.258 130.073L166.764 129.459C167.275 129.255 167.768 129.022 168.27 128.818C168.363 128.781 168.317 128.632 168.224 128.669Z" fill="#263238"/>
<path d="M135.382 164.439C135.382 164.439 137.763 180.925 150.157 186.69C162.552 192.455 177.661 186.69 177.661 186.69C177.661 186.69 171.757 151.031 135.382 164.439Z" fill="#12B9BA"/>
<path d="M169.117 175.988C167.982 175.858 166.838 175.663 165.713 175.458L164.04 175.142L163.175 174.965C162.84 174.658 162.515 174.342 162.171 174.035C159.817 171.973 157.277 170.134 154.583 168.54C153.119 167.672 151.604 166.893 150.046 166.206H150.278L154.36 166.383C157.075 166.513 159.8 166.569 162.515 166.746C162.617 166.746 162.608 166.606 162.515 166.597C159.781 166.411 157.066 166.113 154.342 165.881L150.381 165.527L148.335 165.351L147.814 165.295C147.108 165.025 146.401 164.774 145.676 164.551C142.297 163.391 138.663 163.192 135.178 163.975C132.063 164.774 128.948 166.82 128.139 170.102C128.139 170.214 128.288 170.297 128.334 170.186C129.497 167.396 132.547 166.048 135.299 165.481C137.139 165.132 139.025 165.094 140.878 165.369C141.003 166.219 141.211 167.053 141.501 167.861C141.845 169.024 142.18 170.186 142.533 171.339C143.24 173.654 144.011 175.988 144.699 178.266C144.699 178.286 144.707 178.305 144.721 178.319C144.735 178.333 144.754 178.34 144.774 178.34C144.793 178.34 144.812 178.333 144.826 178.319C144.84 178.305 144.848 178.286 144.848 178.266C144.272 175.951 143.779 173.617 143.221 171.292C142.951 170.158 142.663 169.024 142.384 167.889C142.222 167.097 142.014 166.314 141.761 165.546C142.847 165.735 143.921 165.987 144.978 166.299C146.88 166.868 148.743 167.558 150.557 168.363C150.734 169.535 151.004 170.697 151.273 171.86C151.608 173.31 151.989 174.751 152.445 176.174C152.45 176.188 152.46 176.2 152.472 176.209C152.485 176.218 152.499 176.222 152.515 176.222C152.53 176.222 152.545 176.218 152.557 176.209C152.569 176.2 152.579 176.188 152.584 176.174L152.528 175.904C152.25 174.556 151.952 173.208 151.664 171.86C151.441 170.772 151.227 169.684 150.994 168.605C152.538 169.291 154.046 170.055 155.513 170.893C155.513 171.227 155.625 171.571 155.671 171.878C155.764 172.436 155.867 173.003 155.969 173.57C156.201 174.835 156.452 176.109 156.759 177.364C157.32 179.795 158.031 182.19 158.888 184.533C158.878 184.546 158.872 184.563 158.872 184.58C158.872 184.596 158.878 184.613 158.888 184.626L158.963 184.71C159.019 184.775 159.102 184.71 159.084 184.635C158.517 182.19 157.856 179.763 157.317 177.318C157.057 176.09 156.787 174.863 156.536 173.598C156.415 172.985 156.304 172.371 156.183 171.739L156.099 171.19C157.768 172.168 159.38 173.242 160.925 174.407C163.6 176.411 166.076 178.668 168.317 181.148C168.401 181.251 168.577 181.149 168.494 181C167.573 179.75 166.59 178.549 165.546 177.401C164.923 176.732 164.272 176.081 163.612 175.449H163.817C164.402 175.551 164.979 175.635 165.565 175.709C166.708 175.867 167.861 175.979 169.014 176.109C169.182 176.127 169.219 175.988 169.117 175.988Z" fill="#263238"/>
<path d="M160.413 181.567C160.413 181.427 160.413 181.279 160.339 181.139C160.265 181 160.218 180.786 160.19 180.6C159.939 179.493 159.725 178.387 159.521 177.271C159.521 177.197 159.391 177.215 159.391 177.271C159.466 178.747 159.78 180.201 160.32 181.576C160.32 181.623 160.423 181.576 160.413 181.576V181.567Z" fill="#263238"/>
<path d="M150.037 181.297C150.037 181.297 150.037 181.223 149.962 181.223C149.609 179.763 149.274 178.303 148.977 176.834C148.819 176.062 148.661 175.291 148.512 174.519C148.428 174.1 148.354 173.682 148.279 173.264C148.247 172.895 148.156 172.534 148.01 172.194C148.004 172.18 147.995 172.168 147.982 172.159C147.97 172.15 147.955 172.146 147.94 172.146C147.925 172.146 147.91 172.15 147.898 172.159C147.885 172.168 147.876 172.18 147.87 172.194C147.86 172.944 147.967 173.69 148.186 174.407C148.335 175.207 148.493 176.016 148.67 176.816C149.033 178.443 149.432 180.061 149.897 181.66C149.903 181.676 149.914 181.691 149.928 181.701C149.942 181.711 149.959 181.716 149.976 181.716C149.994 181.716 150.011 181.711 150.025 181.701C150.039 181.691 150.05 181.676 150.055 181.66L150.037 181.297Z" fill="#263238"/>
<path d="M168.038 171.218C165.769 170.911 163.51 170.586 161.241 170.288C161.148 170.288 161.111 170.428 161.241 170.437C163.5 170.772 165.769 171.051 168.038 171.367C168.038 171.385 168.085 171.237 168.038 171.218Z" fill="#263238"/>
<path d="M129.032 125.777C129.032 125.777 121.444 92.5082 157.196 79.035C157.196 79.035 167.108 122.839 129.032 125.777Z" fill="#12B9BA"/>
<path d="M136.749 106.911L137.131 106.679L139.158 105.544L143.305 103.229C146.029 101.695 148.725 100.114 151.468 98.58C151.561 98.58 151.468 98.4034 151.394 98.4498C148.605 99.9469 145.815 101.351 143.072 102.811L138.972 104.977L137.298 105.907C138.488 103.648 139.762 101.435 141.166 99.296C143.026 96.4414 145.081 93.717 147.21 91.0763C147.232 91.0529 147.244 91.0216 147.243 90.9894C147.242 90.9571 147.229 90.9265 147.205 90.9043C147.182 90.8821 147.15 90.8701 147.118 90.871C147.086 90.8719 147.055 90.8855 147.033 90.909C143.894 93.955 141.12 97.3563 138.767 101.044C138.767 100.923 138.767 100.802 138.767 100.691C138.767 99.8632 138.832 99.0356 138.841 98.2081C138.841 96.5809 138.786 94.9537 138.841 93.3358C138.841 93.2335 138.693 93.2428 138.683 93.3358C138.618 94.9351 138.423 96.5344 138.33 98.1337C138.33 98.9241 138.256 99.7237 138.228 100.523C138.228 100.951 138.228 101.453 138.228 101.918C137.496 103.09 136.793 104.277 136.117 105.479C134.919 107.649 133.851 109.887 132.918 112.183C132.918 111.356 132.835 110.528 132.788 109.701C132.677 107.841 132.463 106.065 132.379 104.243C132.379 104.223 132.371 104.204 132.357 104.19C132.343 104.176 132.324 104.168 132.305 104.168C132.285 104.168 132.266 104.176 132.252 104.19C132.238 104.204 132.23 104.223 132.23 104.243C132.23 106.102 132.23 107.888 132.23 109.71C132.23 110.64 132.286 111.57 132.342 112.444C132.342 112.778 132.342 113.122 132.407 113.457C131.27 116.432 130.369 119.491 129.711 122.607C129.09 125.931 128.647 129.287 128.381 132.658C128.381 132.658 128.381 132.658 128.381 132.658C128.741 129.625 129.363 126.629 130.241 123.704C130.678 122.132 131.17 120.57 131.654 119.055C133.142 118.357 134.564 117.483 135.996 116.684L140.487 114.229C143.472 112.592 146.447 110.928 149.525 109.487C149.609 109.487 149.525 109.31 149.441 109.357C146.326 110.761 143.184 112.146 140.143 113.643C138.618 114.415 137.121 115.233 135.633 116.07C134.397 116.767 133.114 117.465 131.914 118.274C132.258 117.232 132.621 116.2 133.021 115.187C134.118 112.365 135.362 109.603 136.749 106.911Z" fill="#263238"/>
<path d="M133.737 99.2961C133.731 99.2796 133.72 99.2654 133.706 99.2553C133.692 99.2453 133.675 99.2399 133.658 99.2399C133.64 99.2399 133.623 99.2453 133.609 99.2553C133.595 99.2654 133.584 99.2796 133.579 99.2961C133.709 101.156 133.774 103.09 133.978 104.987C133.978 105.009 133.987 105.03 134.003 105.046C134.019 105.061 134.04 105.07 134.062 105.07C134.084 105.07 134.106 105.061 134.121 105.046C134.137 105.03 134.146 105.009 134.146 104.987C134.081 103.09 133.876 101.202 133.737 99.2961Z" fill="#263238"/>
<path d="M150.873 105.656C148.642 106.586 146.382 107.413 144.151 108.343C144.095 108.343 144.151 108.473 144.151 108.445C146.41 107.599 148.633 106.679 150.883 105.805C151.013 105.768 150.966 105.619 150.873 105.656Z" fill="#263238"/>
<path d="M154.277 90.3046C152.088 91.3089 149.964 92.4486 147.917 93.717C147.902 93.7334 147.893 93.7541 147.891 93.7761C147.889 93.7981 147.894 93.8201 147.905 93.8389C147.917 93.8577 147.934 93.8723 147.954 93.8805C147.975 93.8887 147.997 93.8901 148.019 93.8844C150.092 92.6663 152.203 91.5041 154.351 90.4348C154.444 90.4441 154.36 90.2674 154.277 90.3046Z" fill="#263238"/>
<path d="M153.728 197.737H102.169V252.085H153.728V197.737Z" fill="#455A64"/>
<path d="M101.267 216.974H98.6265V310.069H101.267V216.974Z" fill="#263238"/>
<path d="M157.01 216.974H154.37V310.069H157.01V216.974Z" fill="#263238"/>
<path d="M130.538 216.974H127.897V310.069H130.538V216.974Z" fill="#263238"/>
<path d="M155.69 248.607H99.9468V256.129H155.69V248.607Z" fill="#263238"/>
<path d="M425.041 184.654H395.175C394.189 184.654 393.243 184.262 392.545 183.564C391.848 182.867 391.456 181.921 391.456 180.934V136.684C391.456 135.698 391.848 134.752 392.545 134.054C393.243 133.357 394.189 132.965 395.175 132.965H425.041C426.028 132.965 426.974 133.357 427.671 134.054C428.369 134.752 428.761 135.698 428.761 136.684V155.969H427.775V136.684C427.775 135.944 427.481 135.235 426.958 134.712C426.435 134.189 425.725 133.895 424.986 133.895H395.175C394.436 133.895 393.726 134.189 393.203 134.712C392.68 135.235 392.386 135.944 392.386 136.684V180.879C392.386 181.619 392.68 182.328 393.203 182.851C393.726 183.374 394.436 183.668 395.175 183.668H425.041C425.781 183.668 426.491 183.374 427.014 182.851C427.537 182.328 427.831 181.619 427.831 180.879V168.689H428.816V180.879C428.824 181.377 428.731 181.871 428.544 182.332C428.357 182.794 428.08 183.213 427.727 183.565C427.375 183.917 426.956 184.195 426.495 184.382C426.033 184.569 425.539 184.661 425.041 184.654Z" fill="#F06900"/>
<path d="M424.818 140.05H395.389V141.026H424.818V140.05Z" fill="#D6C2B3"/>
<path d="M421.489 146.977H395.389V147.954H421.489V146.977Z" fill="#D6C2B3"/>
<path d="M424.818 153.914H395.389V154.89H424.818V153.914Z" fill="#D6C2B3"/>
<path d="M403.479 160.85H395.389V161.827H403.479V160.85Z" fill="#D6C2B3"/>
<path d="M417.631 160.85H406.873V161.827H417.631V160.85Z" fill="#D6C2B3"/>
<path d="M424.818 167.777H395.389V168.754H424.818V167.777Z" fill="#D6C2B3"/>
<path d="M399.434 180.163C398.537 180.163 397.659 179.897 396.913 179.398C396.167 178.9 395.585 178.191 395.242 177.362C394.898 176.533 394.809 175.62 394.984 174.74C395.159 173.86 395.591 173.051 396.225 172.417C396.86 171.782 397.669 171.35 398.549 171.175C399.429 171 400.341 171.09 401.17 171.433C402 171.777 402.708 172.358 403.207 173.104C403.705 173.851 403.972 174.728 403.972 175.625C403.972 176.829 403.494 177.983 402.643 178.834C401.792 179.685 400.637 180.163 399.434 180.163ZM399.434 172.073C398.729 172.073 398.04 172.282 397.455 172.674C396.869 173.066 396.412 173.623 396.143 174.274C395.874 174.925 395.804 175.642 395.942 176.333C396.08 177.024 396.42 177.658 396.919 178.156C397.418 178.654 398.054 178.992 398.745 179.129C399.436 179.265 400.153 179.193 400.803 178.922C401.454 178.651 402.009 178.193 402.4 177.606C402.79 177.019 402.997 176.33 402.995 175.625C402.993 174.682 402.617 173.779 401.949 173.113C401.281 172.447 400.377 172.073 399.434 172.073Z" fill="#F06900"/>
<path d="M402.112 175.625C402.113 176.155 401.958 176.674 401.665 177.116C401.372 177.557 400.954 177.902 400.465 178.106C399.976 178.31 399.437 178.364 398.917 178.262C398.397 178.16 397.919 177.906 397.544 177.531C397.168 177.157 396.912 176.68 396.808 176.16C396.704 175.641 396.756 175.102 396.959 174.612C397.161 174.122 397.504 173.703 397.945 173.409C398.386 173.114 398.904 172.957 399.434 172.957C400.142 172.957 400.822 173.238 401.324 173.738C401.826 174.238 402.109 174.917 402.112 175.625Z" fill="#F06900"/>
<path d="M417.25 174.826C417.407 173.552 417.859 172.333 418.57 171.264C419.239 170.251 420.048 169.405 420.792 168.41C422.289 166.55 423.842 164.691 425.441 162.831C428.584 159.177 431.773 155.56 435.251 152.166C435.34 152.09 435.452 152.047 435.568 152.045C435.685 152.043 435.799 152.082 435.89 152.154C435.981 152.227 436.045 152.329 436.069 152.443C436.093 152.557 436.077 152.676 436.023 152.78C433.512 156.936 430.713 160.869 427.868 164.765C426.436 166.699 424.986 168.624 423.498 170.521C422.745 171.45 422.057 172.455 421.22 173.31C420.344 174.247 419.261 174.967 418.058 175.411C417.913 175.46 417.754 175.45 417.616 175.384C417.477 175.318 417.369 175.202 417.315 175.058C417.278 174.986 417.256 174.907 417.25 174.826Z" fill="#F06900"/>
</svg>
