<svg width="230" height="240" viewBox="0 0 230 240" fill="none" xmlns="http://www.w3.org/2000/svg">
<rect width="230" height="239.172" rx="8.21895" fill="#EDF0F7"/>
<path d="M140.421 111.811V90.0351C140.421 89.4118 140.133 88.8359 139.726 88.3803L115.312 62.7436C114.856 62.2642 114.208 62 113.561 62H74.8539C67.708 62 62 67.8274 62 74.9742V148.167C62 155.314 67.708 161.046 74.8539 161.046H105.408C111.187 170.638 121.691 177.065 133.658 177.065C151.836 177.065 166.681 162.292 166.681 144.09C166.706 128.19 155.29 114.905 140.421 111.811ZM115.96 70.418L132.339 87.6604H121.715C118.549 87.6604 115.96 85.047 115.96 81.8813V70.418ZM74.8539 156.249C70.3697 156.249 66.7967 152.652 66.7967 148.167V74.9742C66.7967 70.4654 70.3697 66.7967 74.8539 66.7967H111.163V81.8813C111.163 87.7087 115.888 92.4571 121.715 92.4571H135.624V111.187C134.905 111.163 134.329 111.091 133.706 111.091C125.336 111.091 117.638 114.305 111.835 119.341H81.3774C80.058 119.341 78.9791 120.42 78.9791 121.739C78.9791 123.058 80.058 124.137 81.3774 124.137H107.374C105.671 126.536 104.256 128.934 103.153 131.572H81.3774C80.058 131.572 78.9791 132.651 78.9791 133.97C78.9791 135.289 80.058 136.369 81.3774 136.369H101.594C100.995 138.767 100.683 141.429 100.683 144.09C100.683 148.407 101.522 152.676 103.033 156.274H74.8539V156.249ZM133.682 172.293C118.142 172.293 105.503 159.654 105.503 144.114C105.503 128.574 118.118 115.935 133.682 115.935C149.246 115.935 161.86 128.574 161.86 144.114C161.86 159.654 149.223 172.293 133.682 172.293Z" fill="black"/>
<path d="M81.3774 112.123H105.671C106.99 112.123 108.069 111.043 108.069 109.724C108.069 108.405 106.99 107.326 105.671 107.326H81.3774C80.0579 107.326 78.979 108.405 78.979 109.724C78.979 111.043 80.0579 112.123 81.3774 112.123Z" fill="#F58D0A"/>
<path d="M135.385 126.415C134.929 125.936 134.306 125.648 133.634 125.648C132.963 125.648 132.34 125.936 131.884 126.415L117.83 141.5C116.919 142.459 116.991 143.994 117.95 144.881C118.91 145.793 120.468 145.721 121.379 144.762L131.308 134.138V160.326C131.308 161.645 132.387 162.724 133.706 162.724C135.025 162.724 136.105 161.645 136.105 160.326V134.138L145.961 144.762C146.441 145.265 147.064 145.529 147.712 145.529C148.287 145.529 148.863 145.313 149.342 144.881C150.302 143.97 150.374 142.459 149.463 141.5L135.385 126.415Z" fill="#F58D0A"/>
</svg>
