<svg width="230" height="240" viewBox="0 0 230 240" fill="none" xmlns="http://www.w3.org/2000/svg">
<rect width="230" height="239.172" rx="8.21895" fill="#EDF7F7"/>
<path d="M140.965 112.886V91.5144C140.965 90.9027 140.682 90.3375 140.282 89.8904L116.322 64.7298C115.875 64.2593 115.239 64 114.604 64H76.6152C69.602 64 64 69.7191 64 76.7332V148.567C64 155.581 69.602 161.206 76.6152 161.206H106.601C112.273 170.621 122.583 176.928 134.327 176.928C152.168 176.928 166.737 162.43 166.737 144.566C166.761 128.961 155.557 115.922 140.965 112.886ZM116.958 72.2617L133.033 89.1839H122.606C119.499 89.1839 116.958 86.6189 116.958 83.5121V72.2617ZM76.6152 156.499C72.2143 156.499 68.7077 152.968 68.7077 148.567V76.7332C68.7077 72.3082 72.2143 68.7077 76.6152 68.7077H112.25V83.5121C112.25 89.2312 116.887 93.8915 122.606 93.8915H136.257V112.273C135.551 112.25 134.986 112.179 134.374 112.179C126.16 112.179 118.605 115.334 112.909 120.276H83.0176C81.7226 120.276 80.6637 121.335 80.6637 122.629C80.6637 123.924 81.7226 124.983 83.0176 124.983H108.531C106.86 127.337 105.471 129.691 104.389 132.28H83.0176C81.7226 132.28 80.6637 133.339 80.6637 134.634C80.6637 135.928 81.7226 136.988 83.0176 136.988H102.859C102.27 139.341 101.964 141.954 101.964 144.566C101.964 148.802 102.788 152.992 104.271 156.523H76.6152V156.499ZM134.351 172.245C119.099 172.245 106.695 159.841 106.695 144.589C106.695 129.338 119.075 116.933 134.351 116.933C149.626 116.933 162.006 129.338 162.006 144.589C162.006 159.841 149.603 172.245 134.351 172.245Z" fill="black"/>
<path d="M83.0178 113.192H106.86C108.155 113.192 109.214 112.132 109.214 110.838C109.214 109.543 108.155 108.484 106.86 108.484H83.0178C81.7228 108.484 80.6639 109.543 80.6639 110.838C80.6639 112.132 81.7228 113.192 83.0178 113.192Z" fill="#FF8E00"/>
<path d="M133.574 130.067C133.763 130.114 133.95 130.138 134.139 130.138C134.374 130.138 134.586 130.114 134.798 130.043C137.905 130.303 140.33 132.892 140.33 136.046C140.33 137.34 141.388 138.399 142.683 138.399C143.977 138.399 145.036 137.34 145.036 136.046C145.036 130.868 141.365 126.537 136.493 125.524V124.018C136.493 122.723 135.433 121.665 134.139 121.665C132.844 121.665 131.785 122.723 131.785 124.018V125.619C127.078 126.749 123.571 131.009 123.571 136.046C123.571 141.977 128.396 146.779 134.304 146.779C137.622 146.779 140.33 149.485 140.33 152.804C140.33 156.122 137.646 158.853 134.304 158.853C130.985 158.853 128.279 156.146 128.279 152.827C128.279 151.533 127.219 150.473 125.925 150.473C124.63 150.473 123.571 151.533 123.571 152.827C123.571 157.888 127.078 162.124 131.785 163.254V165.678C131.785 166.973 132.844 168.032 134.139 168.032C135.433 168.032 136.493 166.973 136.493 165.678V163.324C141.365 162.312 145.036 157.982 145.036 152.804C145.036 146.873 140.212 142.071 134.304 142.071C130.985 142.071 128.279 139.364 128.279 136.046C128.279 132.986 130.585 130.421 133.574 130.067Z" fill="#FF8E00"/>
</svg>
