<svg width="230" height="240" viewBox="0 0 230 240" fill="none" xmlns="http://www.w3.org/2000/svg">
<rect width="230" height="239.172" rx="8.21895" fill="#FDFDDE"/>
<g clip-path="url(#clip0)">
<path d="M137.5 135.75C136.119 135.75 135 136.869 135 138.25V155.5C135 162.392 129.392 168 122.5 168H95.508C94.1277 168 93.009 169.118 93.008 170.498L93.0045 175.469L87.0375 169.502C86.6512 168.615 85.7673 168 84.7447 168H68.5C61.6075 168 56 162.392 56 155.5V117C56 110.107 61.6075 104.5 68.5 104.5H93.75C95.1305 104.5 96.25 103.381 96.25 102C96.25 100.619 95.1305 99.5 93.75 99.5H68.5C58.8505 99.5 51 107.35 51 117V155.5C51 165.149 58.8505 173 68.5 173H83.4645L93.7322 183.268C94.2105 183.746 94.8497 184 95.5005 184C95.8222 184 96.147 183.938 96.4557 183.81C97.39 183.423 97.9992 182.512 98 181.502L98.006 173H122.5C132.149 173 140 165.149 140 155.5V138.25C140 136.869 138.88 135.75 137.5 135.75Z" fill="black"/>
<path d="M142.664 56H136.337C116.301 56 100 72.3005 100 92.3365C100 112.372 116.301 128.673 136.336 128.673H142.664C145.791 128.673 148.886 128.276 151.886 127.491L161.233 136.832C161.711 137.31 162.35 137.564 163.001 137.564C163.323 137.564 163.648 137.502 163.957 137.373C164.891 136.986 165.5 136.075 165.5 135.064V120.6C169.457 117.395 172.745 113.347 175.052 108.824C177.672 103.688 179 98.1405 179 92.3365C179 72.3005 162.7 56 142.664 56ZM161.496 117.384C160.869 117.856 160.5 118.595 160.5 119.381V129.031L154.382 122.916C153.906 122.441 153.268 122.185 152.615 122.185C152.37 122.185 152.122 122.221 151.881 122.295C148.905 123.209 145.804 123.673 142.664 123.673H136.337C119.057 123.673 105 109.615 105 92.3365C105 75.0575 119.058 61 136.337 61H142.664C159.943 61 174 75.0575 174 92.3365C174 102.269 169.443 111.399 161.496 117.384Z" fill="black"/>
<path d="M150.758 83.3552C150.397 78.1215 146.178 73.9025 140.944 73.5417C137.977 73.338 135.146 74.3387 132.978 76.362C130.841 78.3572 129.615 81.1777 129.615 84.1005C129.615 85.4812 130.735 86.6005 132.115 86.6005C133.496 86.6005 134.615 85.4812 134.615 84.1005C134.615 82.5357 135.246 81.0855 136.39 80.0172C137.534 78.95 139.028 78.4217 140.601 78.5302C143.358 78.7202 145.58 80.9425 145.77 83.6992C145.962 86.4835 144.135 88.944 141.427 89.55C139.232 90.041 137.7 91.948 137.7 94.1872V100.193C137.7 101.574 138.819 102.693 140.2 102.693C141.58 102.693 142.7 101.574 142.699 100.193V94.387C147.737 93.17 151.117 88.5605 150.758 83.3552Z" fill="black"/>
<path d="M141.967 108.315C141.502 107.85 140.857 107.583 140.199 107.583C139.542 107.583 138.897 107.85 138.432 108.315C137.967 108.78 137.699 109.425 137.699 110.083C137.699 110.743 137.967 111.388 138.432 111.853C138.897 112.318 139.542 112.583 140.199 112.583C140.857 112.583 141.502 112.318 141.967 111.853C142.432 111.385 142.699 110.743 142.699 110.083C142.699 109.425 142.431 108.78 141.967 108.315Z" fill="black"/>
<path d="M119.75 133.5H67.0002C65.6197 133.5 64.5002 134.619 64.5002 136C64.5002 137.381 65.6197 138.5 67.0002 138.5H119.75C121.131 138.5 122.25 137.381 122.25 136C122.25 134.619 121.131 133.5 119.75 133.5Z" fill="#FF8E00"/>
<path d="M121.517 148.232C121.053 147.767 120.408 147.5 119.75 147.5C119.093 147.5 118.448 147.767 117.983 148.232C117.517 148.697 117.25 149.342 117.25 150C117.25 150.657 117.518 151.302 117.983 151.767C118.448 152.232 119.093 152.5 119.75 152.5C120.408 152.5 121.053 152.232 121.517 151.767C121.983 151.302 122.25 150.66 122.25 150C122.25 149.342 121.982 148.697 121.517 148.232Z" fill="black"/>
<path d="M109.917 147.5H67.0002C65.6197 147.5 64.5002 148.619 64.5002 150C64.5002 151.381 65.6197 152.5 67.0002 152.5H109.917C111.298 152.5 112.417 151.381 112.417 150C112.417 148.619 111.297 147.5 109.917 147.5Z" fill="#FF8E00"/>
<path d="M103.5 119.5H67.0002C65.6197 119.5 64.5002 120.619 64.5002 122C64.5002 123.381 65.6197 124.5 67.0002 124.5H103.5C104.881 124.5 106 123.381 106 122C106 120.619 104.881 119.5 103.5 119.5Z" fill="black"/>
</g>
<defs>
<clipPath id="clip0">
<rect width="128" height="128" fill="white" transform="translate(51 56)"/>
</clipPath>
</defs>
</svg>
