<svg width="1440" height="403" viewBox="0 0 1440 403" fill="none" xmlns="http://www.w3.org/2000/svg">
<g clip-path="url(#clip0)">
<rect width="1440" height="403" fill="#1F2B43"/>
<g opacity="0.1">
<path d="M111.979 419.263L55.8964 451.5V516L0 483.763V419.263L55.8964 387L111.979 419.263ZM84.5633 499.536L111.979 483.763V452.27L84.5633 468.043V499.536Z" fill="black"/>
<path d="M223.959 419.263L167.876 451.5V516L111.98 483.763V419.263L167.876 387L223.959 419.263ZM196.543 499.536L223.959 483.763V452.27L196.543 468.043V499.536Z" fill="black"/>
<path d="M335.937 419.263L279.855 451.5V516L223.958 483.763V419.263L279.855 387L335.937 419.263ZM308.522 499.536L335.937 483.763V452.27L308.522 468.043V499.536Z" fill="black"/>
<path d="M447.917 419.263L391.834 451.5V516L335.938 483.763V419.263L391.834 387L447.917 419.263ZM420.501 499.536L447.917 483.763V452.27L420.501 468.043V499.536Z" fill="black"/>
<path d="M559.897 419.263L503.814 451.5V516L447.917 483.763V419.263L503.814 387L559.897 419.263ZM532.481 499.536L559.897 483.763V452.27L532.481 468.043V499.536Z" fill="black"/>
<path d="M111.979 290.263L55.8964 322.5V387L0 354.763V290.263L55.8964 258L111.979 290.263ZM84.5633 370.536L111.979 354.763V323.27L84.5633 339.043V370.536Z" fill="black"/>
<path d="M223.959 290.263L167.876 322.5V387L111.98 354.763V290.263L167.876 258L223.959 290.263ZM196.543 370.536L223.959 354.763V323.27L196.543 339.043V370.536Z" fill="black"/>
<path d="M335.937 290.263L279.855 322.5V387L223.958 354.763V290.263L279.855 258L335.937 290.263ZM308.522 370.536L335.937 354.763V323.27L308.522 339.043V370.536Z" fill="black"/>
<path d="M447.917 290.263L391.834 322.5V387L335.938 354.763V290.263L391.834 258L447.917 290.263ZM420.501 370.536L447.917 354.763V323.27L420.501 339.043V370.536Z" fill="black"/>
<path d="M559.897 290.263L503.814 322.5V387L447.917 354.763V290.263L503.814 258L559.897 290.263ZM532.481 370.536L559.897 354.763V323.27L532.481 339.043V370.536Z" fill="black"/>
<path d="M111.979 161.263L55.8964 193.5V258L0 225.763V161.263L55.8964 129L111.979 161.263ZM84.5633 241.536L111.979 225.763V194.27L84.5633 210.043V241.536Z" fill="black"/>
<path d="M223.959 161.263L167.876 193.5V258L111.98 225.763V161.263L167.876 129L223.959 161.263ZM196.543 241.536L223.959 225.763V194.27L196.543 210.043V241.536Z" fill="black"/>
<path d="M335.937 161.263L279.855 193.5V258L223.958 225.763V161.263L279.855 129L335.937 161.263ZM308.522 241.536L335.937 225.763V194.27L308.522 210.043V241.536Z" fill="black"/>
<path d="M447.917 161.263L391.834 193.5V258L335.938 225.763V161.263L391.834 129L447.917 161.263ZM420.501 241.536L447.917 225.763V194.27L420.501 210.043V241.536Z" fill="black"/>
<path d="M559.897 161.263L503.814 193.5V258L447.917 225.763V161.263L503.814 129L559.897 161.263ZM532.481 241.536L559.897 225.763V194.27L532.481 210.043V241.536Z" fill="black"/>
<path d="M111.979 32.2633L55.8964 64.5V129L0 96.7633V32.2633L55.8964 0L111.979 32.2633ZM84.5633 112.536L111.979 96.7633V65.2701L84.5633 81.0432V112.536Z" fill="black"/>
<path d="M223.959 32.2633L167.876 64.5V129L111.98 96.7633V32.2633L167.876 0L223.959 32.2633ZM196.543 112.536L223.959 96.7633V65.2701L196.543 81.0432V112.536Z" fill="black"/>
<path d="M335.937 32.2633L279.855 64.5V129L223.958 96.7633V32.2633L279.855 0L335.937 32.2633ZM308.522 112.536L335.937 96.7633V65.2701L308.522 81.0432V112.536Z" fill="black"/>
<path d="M447.917 32.2633L391.834 64.5V129L335.938 96.7633V32.2633L391.834 0L447.917 32.2633ZM420.501 112.536L447.917 96.7633V65.2701L420.501 81.0432V112.536Z" fill="black"/>
<path d="M559.897 32.2633L503.814 64.5V129L447.917 96.7633V32.2633L503.814 0L559.897 32.2633ZM532.481 112.536L559.897 96.7633V65.2701L532.481 81.0432V112.536Z" fill="black"/>
<path d="M671.462 419.263L615.379 451.5V516L559.483 483.763V419.263L615.379 387L671.462 419.263ZM644.046 499.536L671.462 483.763V452.27L644.046 468.043V499.536Z" fill="black"/>
<path d="M783.441 419.263L727.359 451.5V516L671.462 483.763V419.263L727.359 387L783.441 419.263ZM756.026 499.536L783.441 483.763V452.27L756.026 468.043V499.536Z" fill="black"/>
<path d="M895.42 419.263L839.337 451.5V516L783.441 483.763V419.263L839.337 387L895.42 419.263ZM868.004 499.536L895.42 483.763V452.27L868.004 468.043V499.536Z" fill="black"/>
<path d="M1007.4 419.263L951.317 451.5V516L895.421 483.763V419.263L951.317 387L1007.4 419.263ZM979.984 499.536L1007.4 483.763V452.27L979.984 468.043V499.536Z" fill="black"/>
<path d="M1119.38 419.263L1063.3 451.5V516L1007.4 483.763V419.263L1063.3 387L1119.38 419.263ZM1091.96 499.536L1119.38 483.763V452.27L1091.96 468.043V499.536Z" fill="black"/>
<path d="M671.462 290.263L615.379 322.5V387L559.483 354.763V290.263L615.379 258L671.462 290.263ZM644.046 370.536L671.462 354.763V323.27L644.046 339.043V370.536Z" fill="black"/>
<path d="M783.441 290.263L727.359 322.5V387L671.462 354.763V290.263L727.359 258L783.441 290.263ZM756.026 370.536L783.441 354.763V323.27L756.026 339.043V370.536Z" fill="black"/>
<path d="M895.42 290.263L839.337 322.5V387L783.441 354.763V290.263L839.337 258L895.42 290.263ZM868.004 370.536L895.42 354.763V323.27L868.004 339.043V370.536Z" fill="black"/>
<path d="M1007.4 290.263L951.317 322.5V387L895.421 354.763V290.263L951.317 258L1007.4 290.263ZM979.984 370.536L1007.4 354.763V323.27L979.984 339.043V370.536Z" fill="black"/>
<path d="M1119.38 290.263L1063.3 322.5V387L1007.4 354.763V290.263L1063.3 258L1119.38 290.263ZM1091.96 370.536L1119.38 354.763V323.27L1091.96 339.043V370.536Z" fill="black"/>
<path d="M671.462 161.263L615.379 193.5V258L559.483 225.763V161.263L615.379 129L671.462 161.263ZM644.046 241.536L671.462 225.763V194.27L644.046 210.043V241.536Z" fill="black"/>
<path d="M783.441 161.263L727.359 193.5V258L671.462 225.763V161.263L727.359 129L783.441 161.263ZM756.026 241.536L783.441 225.763V194.27L756.026 210.043V241.536Z" fill="black"/>
<path d="M895.42 161.263L839.337 193.5V258L783.441 225.763V161.263L839.337 129L895.42 161.263ZM868.004 241.536L895.42 225.763V194.27L868.004 210.043V241.536Z" fill="black"/>
<path d="M1007.4 161.263L951.317 193.5V258L895.421 225.763V161.263L951.317 129L1007.4 161.263ZM979.984 241.536L1007.4 225.763V194.27L979.984 210.043V241.536Z" fill="black"/>
<path d="M1119.38 161.263L1063.3 193.5V258L1007.4 225.763V161.263L1063.3 129L1119.38 161.263ZM1091.96 241.536L1119.38 225.763V194.27L1091.96 210.043V241.536Z" fill="black"/>
<path d="M671.463 32.2633L615.38 64.5V129L559.483 96.7633V32.2633L615.38 0L671.463 32.2633ZM644.047 112.536L671.463 96.7633V65.2701L644.047 81.0432V112.536Z" fill="black"/>
<path d="M783.442 32.2633L727.359 64.5V129L671.463 96.7633V32.2633L727.359 0L783.442 32.2633ZM756.026 112.536L783.442 96.7633V65.2701L756.026 81.0432V112.536Z" fill="black"/>
<path d="M895.421 32.2633L839.338 64.5V129L783.442 96.7633V32.2633L839.338 0L895.421 32.2633ZM868.005 112.536L895.421 96.7633V65.2701L868.005 81.0432V112.536Z" fill="black"/>
<path d="M1007.4 32.2633L951.318 64.5V129L895.421 96.7633V32.2633L951.318 0L1007.4 32.2633ZM979.984 112.536L1007.4 96.7633V65.2701L979.984 81.0432V112.536Z" fill="black"/>
<path d="M1119.38 32.2633L1063.3 64.5V129L1007.4 96.7633V32.2633L1063.3 0L1119.38 32.2633ZM1091.96 112.536L1119.38 96.7633V65.2701L1091.96 81.0432V112.536Z" fill="black"/>
<path d="M1231.91 419.263L1175.83 451.5V516L1119.93 483.763V419.263L1175.83 387L1231.91 419.263ZM1204.5 499.536L1231.91 483.763V452.27L1204.5 468.043V499.536Z" fill="black"/>
<path d="M1343.89 419.263L1287.81 451.5V516L1231.91 483.763V419.263L1287.81 387L1343.89 419.263ZM1316.48 499.536L1343.89 483.763V452.27L1316.48 468.043V499.536Z" fill="black"/>
<path d="M1455.87 419.263L1399.79 451.5V516L1343.89 483.763V419.263L1399.79 387L1455.87 419.263ZM1428.45 499.536L1455.87 483.763V452.27L1428.45 468.043V499.536Z" fill="black"/>
<path d="M1231.91 290.263L1175.83 322.5V387L1119.93 354.763V290.263L1175.83 258L1231.91 290.263ZM1204.5 370.536L1231.91 354.763V323.27L1204.5 339.043V370.536Z" fill="black"/>
<path d="M1343.89 290.263L1287.81 322.5V387L1231.91 354.763V290.263L1287.81 258L1343.89 290.263ZM1316.48 370.536L1343.89 354.763V323.27L1316.48 339.043V370.536Z" fill="black"/>
<path d="M1455.87 290.263L1399.79 322.5V387L1343.89 354.763V290.263L1399.79 258L1455.87 290.263ZM1428.45 370.536L1455.87 354.763V323.27L1428.45 339.043V370.536Z" fill="black"/>
<path d="M1231.91 161.263L1175.83 193.5V258L1119.93 225.763V161.263L1175.83 129L1231.91 161.263ZM1204.5 241.536L1231.91 225.763V194.27L1204.5 210.043V241.536Z" fill="black"/>
<path d="M1343.89 161.263L1287.81 193.5V258L1231.91 225.763V161.263L1287.81 129L1343.89 161.263ZM1316.48 241.536L1343.89 225.763V194.27L1316.48 210.043V241.536Z" fill="black"/>
<path d="M1455.87 161.263L1399.79 193.5V258L1343.89 225.763V161.263L1399.79 129L1455.87 161.263ZM1428.45 241.536L1455.87 225.763V194.27L1428.45 210.043V241.536Z" fill="black"/>
<path d="M1231.91 32.2633L1175.83 64.5V129L1119.93 96.7633V32.2633L1175.83 0L1231.91 32.2633ZM1204.5 112.536L1231.91 96.7633V65.2701L1204.5 81.0432V112.536Z" fill="black"/>
<path d="M1343.89 32.2633L1287.81 64.5V129L1231.91 96.7633V32.2633L1287.81 0L1343.89 32.2633ZM1316.47 112.536L1343.89 96.7633V65.2701L1316.47 81.0432V112.536Z" fill="black"/>
<path d="M1455.87 32.2633L1399.79 64.5V129L1343.89 96.7633V32.2633L1399.79 0L1455.87 32.2633ZM1428.45 112.536L1455.87 96.7633V65.2701L1428.45 81.0432V112.536Z" fill="black"/>
</g>
</g>
<defs>
<clipPath id="clip0">
<rect width="1440" height="403" fill="white"/>
</clipPath>
</defs>
</svg>
