<svg width="1440" height="561" viewBox="0 0 1440 561" fill="none" xmlns="http://www.w3.org/2000/svg">
<g clip-path="url(#clip0)">
<g opacity="0.04">
<path d="M1425.05 491.558C1424.34 495.065 1422.64 498.23 1420.19 500.588C1418.45 502.205 1412.89 505.481 1412.25 500.84C1412.46 497.981 1412.98 495.161 1413.8 492.44C1415.17 488.828 1416.63 491.18 1418.83 491.663C1421.03 492.146 1423.23 489.731 1425.05 491.558Z" fill="black"/>
<path d="M1409.91 116.521C1410.71 119.629 1411.24 122.674 1411.81 125.551C1409.67 129.101 1405.44 127.778 1402.33 129.752C1400.85 130.634 1400.43 133.952 1399.03 134.393C1397.63 134.834 1397 133.07 1395.92 133.091C1393.15 133.091 1391.79 139.391 1388.33 137.732C1386.44 139.286 1388.33 145.229 1386 145.733C1384.29 146.09 1383.35 143.15 1382.32 141.344C1381.3 139.538 1379.27 137.963 1379.23 136.199C1379.19 134.435 1382 131.285 1382.89 129.899C1383.78 128.513 1386.17 125.404 1387.56 124.984C1390.14 124.228 1392.75 125.32 1394.72 124.228C1396.7 123.136 1396.62 119.713 1397.44 118.81C1398.25 117.907 1399.11 118.243 1399.77 117.781C1401.05 116.511 1401.99 114.875 1402.48 113.052C1402.98 111.229 1403.01 109.29 1402.58 107.449C1401.93 104.571 1398.35 101.421 1400.68 97.9141C1402.77 98.451 1404.68 99.631 1406.19 101.318C1407.7 103.005 1408.75 105.13 1409.21 107.449C1409.42 109.234 1408.68 111.019 1408.81 112.867C1409.11 114.11 1409.48 115.331 1409.91 116.521V116.521Z" fill="black"/>
<path d="M1410.67 88.5057C1410.24 89.8288 1409.36 89.5557 1408.55 90.3118C1407.73 91.0678 1406.82 93.4199 1405.84 93.672C1404.28 94.071 1402.54 91.5719 1400.98 92.1389C1399.43 92.7059 1400.22 94.554 1399.64 96.7591C1398.58 96.3987 1397.62 95.732 1396.87 94.8277C1396.12 93.9233 1395.6 92.814 1395.37 91.6139C1395.37 90.1228 1396.77 89.2197 1397.11 87.4136C1397.68 84.4735 1396.2 82.9824 1395.37 80.1893C1395.37 79.7903 1395.56 79.7483 1395.56 79.4332C1397.46 78.8872 1401.25 83.6335 1405.44 84.5785C1408.26 85.1455 1410.54 84.8095 1410.67 88.5057Z" fill="black"/>
<path d="M1403.52 350.221C1403.73 352.321 1400.91 352.111 1400.62 350.725C1400.68 349.066 1403.18 348.541 1403.52 350.221Z" fill="black"/>
<path d="M1389.95 66.7488C1391.84 68.0928 1396.53 71.159 1393.25 73.9731C1392.07 73.3165 1391.12 72.2611 1390.52 70.9612C1389.93 69.6614 1389.73 68.1853 1389.95 66.7488V66.7488Z" fill="black"/>
<path d="M1381.03 338.881C1383.25 337.263 1385.68 333.735 1389.57 335.52C1388.71 338.733 1385.77 338.649 1383.88 340.162C1381.98 341.674 1380.43 344.236 1378.06 344.53C1377.91 344.097 1377.64 343.733 1377.28 343.501C1377.35 340.624 1379.5 340.015 1381.03 338.881Z" fill="black"/>
<path d="M1375.82 290.368C1378.07 290.368 1380.24 289.444 1381.81 290.641C1381.51 297.088 1374 292.174 1369.03 293.224C1367.97 293.434 1367.64 294.526 1366.51 293.98C1366.57 292.866 1366.97 291.809 1367.64 290.97C1368.3 290.131 1369.2 289.558 1370.19 289.339C1371.61 289.15 1373.73 290.368 1375.82 290.368Z" fill="black"/>
<path d="M1377.73 298.369C1377.96 301.939 1374.3 302.338 1373.28 305.09C1374.89 308.366 1375.51 312.944 1377.35 315.905C1377.35 317.879 1377.66 320.441 1376.77 321.323C1372.97 322.31 1370.77 312.923 1369.18 309.731C1366.18 310.466 1368.91 323.171 1364.91 321.596C1363.02 320.819 1364.91 317.186 1364.52 314.372C1364.15 311.894 1362.33 311.39 1362.2 309.458C1362.09 307.862 1363.51 306.182 1363.95 304.564C1364.55 302.212 1364.15 297.718 1366.26 297.592C1367.3 297.592 1368.69 300.511 1369.37 300.7C1371.72 301.351 1374.47 297.55 1377.73 298.369Z" fill="black"/>
<path d="M1370.56 336.801C1369.86 338.754 1365.86 337.809 1365.54 336.024C1366.22 333.987 1370.34 334.596 1370.56 336.801Z" fill="black"/>
<path d="M1366.89 342.996C1366.65 343.363 1366.39 343.707 1366.11 344.025C1364.65 343.395 1363.07 342.933 1362.62 340.938C1363.72 338.796 1366.83 340.518 1366.89 342.996Z" fill="black"/>
<path d="M1361.65 336.549C1360.67 338.397 1357.25 336.381 1355.96 338.334C1353.93 338.334 1351.9 338.334 1351.51 336.024C1352.08 334.134 1353.91 335.436 1355.3 335.247C1357.78 334.974 1361.03 332.79 1361.65 336.549Z" fill="black"/>
<path d="M1334.31 435.338C1333.95 433.105 1333.49 430.896 1332.9 428.723C1332.95 427.687 1332.95 426.65 1332.9 425.615C1332.62 424.344 1332.43 423.053 1332.31 421.75C1332.6 420.028 1334.1 419.86 1334.46 418.39C1335.06 415.975 1333.72 415.597 1333.68 412.72C1333.68 410.62 1334.84 409.696 1335.58 407.05C1335.92 405.811 1335.94 403.521 1336.34 402.66C1336.73 401.799 1338.99 400.56 1339.82 400.077C1342.8 398.145 1345.19 394.533 1348.17 393.882C1348.93 393.735 1349.95 394.008 1350.5 393.882C1352.25 393.483 1354.46 391.53 1356.89 390.795C1359.32 390.06 1361.33 390.354 1363.09 388.989C1365.44 386.93 1367.3 384.271 1368.52 381.239C1369.41 378.425 1369.14 376.031 1370.85 375.065C1371.68 374.582 1372.5 375.065 1373.37 374.813C1374.65 374.275 1375.83 373.485 1376.86 372.482C1378.21 370.865 1378.43 368.282 1379.95 366.539C1381.31 365.089 1382.81 363.801 1384.41 362.695C1385.35 362.068 1386.42 361.707 1387.52 361.645C1390.25 361.96 1391.52 367.043 1394.5 366.035C1395.56 365.678 1396.64 362.674 1397.61 360.868C1398.99 358.243 1400.02 354.694 1402.44 353.917C1404.34 353.266 1406.6 354.925 1407.68 352.615C1407.92 350.998 1406.77 350.032 1407.68 349.003C1409.93 349.192 1413.75 353.203 1417.16 353.392C1419.06 353.392 1422.41 350.725 1422.85 354.421C1423.02 356.059 1421.46 357.382 1421.1 359.062C1420.86 360.259 1421.48 360.889 1420.91 362.17C1419.34 362.989 1417.67 363.43 1417.61 365.783C1417.61 368.723 1420.74 369.983 1422.66 371.705C1423.97 372.818 1425.07 374.498 1425.77 375.065C1426.47 375.632 1427.3 375.758 1427.66 376.094C1428.92 377.186 1429.81 379.643 1431.46 379.706C1433.11 379.769 1435.4 376.43 1436.5 373.259C1437.49 369.291 1438.13 365.226 1438.4 361.12C1438.59 359.818 1439.29 358.558 1439.57 357.256C1440.31 353.728 1441.32 348.856 1443.63 347.722C1445.95 350.977 1446.74 357.319 1446.34 362.695C1447.9 364.25 1450.63 363.724 1450.99 367.337C1451.12 368.576 1450.54 370.172 1450.61 371.537C1450.74 373.637 1451.96 375.611 1452.17 377.459C1452.56 380.903 1451.73 383.759 1452.94 386.238C1454.44 389.388 1457.42 389.283 1459.33 392.685C1459.42 394.281 1459.75 395.85 1460.3 397.326C1460.49 398.103 1460.3 399.426 1460.51 399.909C1461.12 401.631 1462.8 401.799 1463.41 403.248C1463.72 403.962 1463.62 405.349 1464 406.609C1464.74 408.428 1465.65 410.159 1466.71 411.775C1467.73 413.377 1468.57 415.112 1469.21 416.941C1469.61 419.503 1468.21 421.267 1467.87 423.367C1467.45 425.951 1467.87 429.248 1467.09 431.894C1466.2 434.981 1463.98 438.047 1462.24 441.953C1460.88 445.271 1459.05 448.321 1456.81 450.984C1455.6 452.286 1454.14 453.084 1453.02 454.344C1451.2 456.537 1449.52 458.859 1447.98 461.295C1446.23 463.752 1444.18 465.622 1442.74 467.743C1440.75 470.809 1439.76 475.765 1436.35 476.248C1434.41 476.228 1432.49 476.583 1430.66 477.298C1427.8 478.81 1425.9 481.603 1424.46 481.666C1423.02 481.729 1421.58 479.335 1420.19 479.083C1418.81 478.831 1417.42 480.658 1415.17 480.637C1414.24 480.637 1413.76 479.902 1412.46 479.356C1409.69 478.18 1406.63 478.222 1406.25 474.19C1406.03 472.09 1407.3 470.998 1407.22 469.024C1407.15 467.05 1405.69 466.567 1405.08 464.824C1405.38 463.95 1405.45 462.999 1405.28 462.084C1405.11 461.168 1404.7 460.326 1404.11 459.657C1404 458.391 1404.28 457.12 1404.89 456.045C1403.57 456.622 1402.3 457.325 1401.1 458.145C1399.69 459.279 1398.67 461.883 1397.04 461.484C1395.5 460.77 1396.68 458.754 1396.45 457.116C1395.75 454.426 1394.63 451.889 1393.15 449.619C1391.12 448.146 1388.9 447.014 1386.57 446.259C1380.58 445.02 1376.77 449.283 1372.03 449.892C1370.81 450.039 1369.48 449.619 1368.35 449.892C1364.46 450.795 1360.12 454.911 1357.69 457.62C1353.67 458.145 1349.61 456.528 1345.46 458.145C1341.3 459.762 1339.01 464.299 1332.68 463.038C1331.42 461.589 1329.2 460.938 1329.19 458.397C1329.19 456.423 1331.39 455.163 1332.11 453.756C1333.21 451.511 1333.92 449.063 1334.23 446.532C1334.23 444.81 1333.36 442.772 1333.45 440.609C1333.62 438.719 1334.31 436.997 1334.31 435.338Z" fill="black"/>
<path d="M1331.03 327.771C1332.09 327.582 1332.92 326.532 1333.93 326.49C1336.2 326.364 1338.42 328.716 1341.1 328.296C1341.68 329.115 1341.28 329.808 1341.3 331.131C1343.56 332.748 1347.3 332.454 1348.47 335.52C1346.77 337.914 1344.24 336.192 1342.06 335.772C1339.88 335.352 1338 335.583 1335.86 335.247C1333.15 334.827 1330.7 332.832 1328.12 332.412C1326.55 332.16 1324.94 332.727 1323.46 332.412C1321.98 332.097 1315.23 328.8 1315.13 326.49C1315.04 324.18 1318.05 323.445 1320.82 323.907C1324.24 324.516 1326.55 328.611 1331.03 327.771Z" fill="black"/>
<path d="M1336.2 309.983C1334.74 309.437 1333.36 309.731 1332.71 309.206C1331.39 308.114 1331.59 305.006 1331.16 303.262C1330.72 301.519 1329.13 300.532 1328.26 298.117C1327 294.589 1326.36 286.714 1329.81 286C1331.16 285.685 1332.54 287.071 1333.49 286.756C1335.39 286.147 1335.03 282.933 1336.58 281.589C1337.45 280.854 1339.05 281.169 1340.28 280.56C1341.57 279.669 1342.63 278.434 1343.37 276.969C1344.19 275.667 1344.83 273.504 1345.89 272.58C1346.95 271.656 1348.23 271.488 1349.19 270.48C1351.73 267.897 1351.81 264.306 1353.84 261.176C1355.56 258.551 1358.28 263.717 1358.5 265.818C1359.45 267.477 1361.35 267.918 1362.18 269.703C1361.04 274.239 1357.82 274.638 1358.5 281.043C1358.75 282.547 1359.14 284.018 1359.66 285.433C1360.21 286.945 1361.86 288.583 1361.78 289.633C1361.67 291.565 1358.75 291.481 1358.11 293.518C1357.46 295.555 1358.11 295.618 1357.92 298.411C1357.1 300.511 1354.9 301.015 1354.12 303.577C1353.31 306.644 1354.26 310.613 1352.4 312.86C1351.11 312.86 1349.69 314.351 1348.13 314.141C1346.58 313.931 1344.81 310.844 1342.12 310.781C1341.09 310.781 1339.88 311.663 1338.82 311.558C1337.76 311.453 1337.47 310.424 1336.2 309.983Z" fill="black"/>
<path d="M1323.71 304.312C1328.64 304.312 1328.64 314.498 1323.71 314.498C1318.77 314.498 1318.77 304.312 1323.71 304.312Z" fill="black"/>
<path d="M1316.48 303.011C1317.8 304.417 1318.74 306.207 1319.19 308.177C1319.19 309.983 1317.09 309.899 1316.48 312.377C1315.57 316.094 1316.9 320.294 1315.32 322.184C1314.12 322.715 1312.81 322.896 1311.53 322.709C1308.04 319.236 1304.92 315.341 1302.22 311.096C1301.04 309.669 1300 308.114 1299.11 306.455C1298.1 303.977 1297.74 301.267 1296.61 298.978C1295.47 296.689 1293.72 295.492 1292.81 293.308C1292 291.481 1291.92 289.108 1291.07 287.365C1290.22 285.622 1288.93 285.055 1287.96 283.753C1287.35 282.892 1286.99 281.652 1286.42 280.644C1283.98 276.78 1279.29 274.743 1279.06 269.052C1280.05 267.54 1281.07 269.619 1282.86 270.081C1284.05 270.375 1285.47 269.955 1286.35 270.333C1288.11 271.131 1289.32 274.785 1291.18 276.78C1292.24 277.914 1293.61 278.67 1294.67 279.888C1295.73 281.106 1296.57 282.997 1297.57 283.753C1298.84 284.782 1300.59 285.454 1302.24 286.84C1304.48 288.751 1308.48 290.725 1309.03 294.589C1309.16 295.555 1308.69 297.172 1308.82 297.928C1309.1 299.293 1310.37 299.881 1311.15 301.036C1311.93 302.191 1312.31 304.628 1313.67 304.901C1315.04 305.174 1315 302.717 1316.48 303.011Z" fill="black"/>
<path opacity="0.2" d="M1225 248.849C1226.67 249.563 1232.22 258.572 1230.69 263.55C1230.33 264.455 1229.73 265.215 1228.96 265.723C1228.2 266.231 1227.31 266.463 1226.42 266.385C1222.63 265.566 1223.31 254.204 1224.52 249.584C1224.56 249.433 1224.61 249.29 1224.7 249.164C1224.78 249.038 1224.88 248.931 1225 248.849V248.849Z" fill="black"/>
<path d="M1014.69 12.209C1013.52 12.0459 1012.4 11.5259 1011.48 10.7067C1010.56 9.88753 1009.86 8.80108 1009.46 7.56776C1009.25 6.76972 1009.46 5.69867 1009.27 4.22859C1008.93 2.78421 1008.67 1.31846 1008.49 -0.160627C1008.68 -4.82286 1017.4 -5.7049 1017.4 -11.5222C1015.73 -13.6223 1010.86 -13.2863 1009.27 -10.9972C1008.68 -10.1781 1008.72 -8.51905 1007.9 -6.79696C1006.16 -3.26878 1000.54 -2.84876 998.798 1.45645C998.154 3.07973 997.886 4.85576 998.021 6.62271C998.457 9.07983 1002.51 9.75186 1002.65 12.314C1002.88 16.6402 997.679 16.0942 996.959 19.8114C996.655 21.4704 997.546 23.7176 997.338 25.2086C996.94 27.9178 994.986 27.1407 992.502 28.5688C991.232 29.3038 989.999 31.992 988.709 32.181C987.42 32.37 986.661 31.1939 985.808 31.4039C984.537 31.719 984.954 33.7981 983.096 34.2391C981.598 34.5961 979 32.475 978.829 35.0161C978.715 36.6542 981.162 37.5363 982.622 37.3262C984.082 37.1162 984.727 36.0662 985.922 36.0452C988.216 36.0452 989.714 38.3133 991.156 38.3763C994.474 38.5023 997.755 34.2811 1001.24 34.7641C1002.82 34.9741 1003.75 36.4652 1004.92 36.3182C1006.82 36.0662 1008.37 33.21 1009.76 32.118C1009.17 27.7708 1009.76 22.0375 1012.87 21.8065C1014.96 21.6385 1018.1 26.5737 1018.56 21.8065C1018.6 20.8852 1018.33 19.9803 1017.8 19.2639C1017.28 18.5475 1016.54 18.0697 1015.71 17.9213C1014.59 17.9213 1013.13 20.8614 1012.22 18.4463C1012.22 16.0942 1014.12 16.7032 1015.33 16.1152C1016.15 15.6952 1016.74 14.4981 1017.65 14.0151C1022.26 11.915 1028.65 16.1152 1030.45 10.9279C1026.3 6.28669 1019.34 12.608 1014.69 12.209ZM1063.71 348.415H1063.33C1062.46 350.515 1061.53 355.66 1063.64 356.815C1064.6 355.093 1065.74 349.759 1063.71 348.415ZM1062.9 297.088C1062.33 292.111 1055.31 294.568 1054.57 298.117C1054.02 300.511 1054.87 302.318 1054.17 304.817C1054.93 306.728 1056.85 307.106 1059.22 306.917C1060.56 306.056 1060.39 304.586 1061 302.948C1061.64 301.288 1063.12 299.398 1062.9 297.151V297.088ZM1047.63 324.39C1047.23 322.016 1048.05 319.223 1046.45 317.942H1045.89C1044.46 322.143 1046.45 329.094 1049.17 329.493C1049.94 327.75 1047.95 326.511 1047.63 324.474V324.39ZM1179.49 75.7582C1180.76 75.9052 1181.21 74.8761 1181.38 73.448C1180.7 71.474 1178.56 73.9941 1179.49 75.7582ZM1133.88 77.2072C1130.79 78.3413 1134.07 84.5786 1136.21 84.0326C1139.36 83.1085 1136.21 76.4302 1133.88 77.2072ZM1116.64 101.19C1117.08 101.19 1116.85 100.455 1117.21 100.434C1118.48 99.6154 1120.41 101.736 1121 99.6574C1120.99 99.0782 1120.88 98.5063 1120.68 97.9744C1120.47 97.4424 1120.17 96.9609 1119.79 96.5572C1119.42 96.1535 1118.98 95.8356 1118.49 95.6216C1118 95.4076 1117.48 95.3018 1116.96 95.3102C1116.35 95.3106 1115.74 95.4763 1115.2 95.7932C1114.34 95.0161 1114.25 93.273 1114.04 91.593C1111.84 89.8499 1106.46 86.0487 1106.46 82.5625C1106.46 79.7064 1109.3 78.0893 1112.47 78.1943C1113.79 76.8292 1112.94 72.692 1111.69 71.726C1106.68 70.2769 1104.01 71.2639 1100.82 74.3091C1099.31 75.7792 1097.62 76.7872 1096.77 77.6693C1095.77 78.8117 1095.16 80.2917 1095.02 81.8695C1095.13 83.4656 1096.92 84.4106 1097.54 86.5107C1097.88 87.6028 1097.81 88.9678 1098.11 89.8709C1098.97 92.37 1101.13 94.0711 1102.78 96.1712C1103.93 97.6413 1107.18 100.854 1107.23 102.619C1107.29 104.383 1106.23 104.425 1105.89 105.979C1105.41 108.084 1105.21 110.257 1105.3 112.426C1105.72 115.261 1107.93 115.345 1109.95 116.626C1111.96 117.907 1113.87 119.923 1115.96 119.986C1117.06 120.062 1118.16 119.87 1119.19 119.424C1120.22 118.978 1121.15 118.288 1121.91 117.403C1122.84 108.247 1117.59 107.575 1116.64 101.19ZM1076.55 89.3458C1074.54 87.7288 1072.13 86.3427 1069.78 84.4316C1068.41 83.3185 1063.22 81.2394 1063.18 79.0133C1063.14 76.7872 1066.97 75.8002 1065.51 71.537C1062.86 70.6759 1056.54 72.041 1056.98 75.9262C1057.23 78.1733 1059.24 76.9342 1059.69 79.2863C1057.79 80.1684 1055.48 82.5415 1053.49 82.1215C1051.12 81.6175 1050.51 77.7323 1049.22 75.4011C1047.33 75.4011 1046.17 73.028 1043.99 73.301C1041.81 73.5741 1040.5 78.0263 1039.34 80.2734C1038.72 81.4494 1037.73 82.0585 1037.45 83.1085C1037.24 83.7386 1037.45 84.7676 1037.26 85.6917C1036.57 88.5478 1034.68 89.5979 1034.92 92.202C1035.17 94.8061 1036.93 95.4361 1037.05 97.3472C1037.16 99.2583 1034.54 98.3133 1034.73 100.707C1038.2 104.509 1038.39 98.9013 1040.16 98.1243C1041.58 97.4943 1044.37 98.6493 1046.17 98.1243C1047.61 97.7043 1048.77 95.8562 1050.42 95.0371C1051.58 94.4426 1052.84 94.0937 1054.12 94.0081C1060.28 93.6511 1064.26 99.0063 1069.63 99.1533C1071.86 99.2764 1074.09 99.1568 1076.3 98.7963C1081.61 97.3682 1079.22 91.4459 1076.55 89.3458V89.3458ZM1270.97 32.433C1268.73 32.958 1270.34 36.0452 1270.19 37.8513C1269.98 40.4134 1267.93 42.1985 1268.07 44.8236C1267.33 45.9787 1266.04 46.4407 1265.92 48.4358C1267.16 49.5699 1267.71 47.5328 1268.63 46.3357C1270.09 44.5086 1272.43 43.4165 1272.86 41.2114C1273.16 39.6841 1273.14 38.1036 1272.81 36.5851C1272.48 35.0665 1271.85 33.648 1270.97 32.433V32.433ZM1217.87 -46.1949C1217.15 -45.6699 1215.67 -45.3969 1216.12 -43.8638C1218.02 -44.2208 1221.7 -45.3339 1222.13 -48.295C1220.51 -48.1904 1218.98 -47.4453 1217.81 -46.1949H1217.87ZM1144.02 -25.8029C1143.32 -26.685 1140.93 -27.042 1139.95 -29.1421C1138.77 -31.6622 1138.94 -35.0224 1136.15 -34.3083C1136.15 -33.9933 1136.15 -33.5733 1135.94 -33.5313C1135.68 -27.882 1141.86 -26.4749 1141.77 -21.9177C1141.65 -19.6076 1139.76 -19.3556 1140.34 -16.4994C1144.84 -15.0924 1146.98 -21.9387 1143.97 -25.8029H1144.02ZM1443.12 -18.9566C1441.94 -18.9566 1441.13 -18.4315 1440.2 -18.4315C1438.3 -18.4315 1436.05 -20.3426 1433.81 -21.2667C1430.02 -22.7788 1425.2 -23.5138 1421.6 -24.8789C1420.97 -25.1309 1420.4 -25.9289 1419.7 -26.1809C1419 -26.4329 1418.26 -26.1809 1417.37 -26.4329C1416.48 -26.685 1415.7 -27.567 1414.85 -27.714C1413.08 -27.7496 1411.31 -27.4876 1409.61 -26.937C1407.08 -26.5752 1404.5 -26.7534 1402.03 -27.462C1399.41 -28.281 1397.38 -30.8222 1395.26 -31.0742C1394.38 -31.1792 1393.26 -30.5492 1392.34 -30.5492C1390.67 -30.5492 1389.21 -31.5782 1388.07 -30.5492C1386.93 -29.5201 1389.09 -28.029 1387.9 -26.937C1385.11 -26.3069 1382.02 -30.2971 1380.12 -30.2971C1378.53 -30.2971 1377.87 -28.8691 1376.63 -28.7431C1375.85 -28.8655 1375.08 -29.0408 1374.32 -29.2681C1370.64 -29.6671 1365.1 -28.7431 1361.52 -29.2681C1359.02 -29.7091 1358.03 -32.2292 1355.72 -33.4683C1351.34 -35.8204 1345.61 -35.5684 1341.17 -35.0224C1339.2 -34.5404 1337.17 -34.3707 1335.16 -34.5183C1334.19 -34.6864 1333.15 -35.7154 1331.86 -36.0514C1329.96 -36.5555 1327.71 -36.2614 1326.44 -36.8285C1324.54 -37.6895 1323.1 -40.2516 1321.2 -40.6927C1319.3 -40.7766 1317.4 -40.6923 1315.51 -40.4406C1310.05 -40.6297 1304.27 -41.3437 1298.45 -40.9657C1297.5 -40.0206 1297.74 -38.3405 1296.55 -37.6055C1293.46 -35.7154 1286.57 -38.4875 1282.78 -37.3325C1281.55 -36.6185 1281.49 -34.7704 1280.26 -34.5183C1278.57 -34.7436 1276.96 -35.469 1275.61 -36.6185C1274.59 -37.4795 1273.83 -39.3276 1272.69 -40.4826C1271.13 -42.2298 1269.29 -43.6522 1267.27 -44.6829C1264.61 -45.5229 1260.84 -44.6829 1257.58 -44.9559C1256.63 -45.2717 1255.65 -45.4413 1254.66 -45.4599C1252.99 -45.1239 1251.45 -42.6248 1249.42 -42.6248C1248.31 -42.8089 1247.21 -43.0684 1246.12 -43.4018C1245.22 -43.3177 1244.31 -43.3177 1243.41 -43.4018C1242.33 -43.6328 1241.52 -44.7249 1240.3 -44.9559C1237.93 -45.3334 1235.53 -45.502 1233.13 -45.4599C1231.39 -45.4599 1229.83 -44.6619 1228.3 -45.2079C1225.97 -46.0899 1224.77 -48.484 1222.87 -49.4081C1222.4 -53.4613 1220.69 -53.0833 1218.21 -54.3013C1217.41 -54.6794 1216.75 -55.6034 1216.09 -55.8554C1212.29 -57.1785 1208.14 -55.5194 1204.06 -56.3594C1202.81 -56.6325 1201.77 -58.6276 1200.27 -58.9426C1198.77 -59.2576 1196.86 -58.1865 1194.85 -57.9135C1192.84 -57.6405 1190.73 -58.4595 1189.04 -57.9135C1188.02 -57.5565 1187.15 -56.1494 1186.12 -55.5824C1185.03 -54.9915 1183.85 -54.642 1182.63 -54.5534C1180.74 -54.5534 1178.75 -56.3384 1176.81 -56.1074C1174.88 -55.8764 1172.53 -53.5663 1170.04 -52.9993C1165.96 -52.0752 1161.96 -51.8862 1159.57 -49.6601C1158.78 -48.4 1160.54 -47.56 1159.76 -46.2999C1156.99 -44.9979 1152.04 -46.594 1149.88 -44.4938C1149.28 -43.0448 1150.89 -41.6587 1149.67 -40.6297C1147.91 -40.8817 1147.53 -41.6587 1146.39 -41.6587C1144.27 -41.4907 1143.15 -37.4585 1141.54 -37.4585C1140.23 -37.4585 1139.81 -40.4406 1138.24 -40.3146C1136.67 -40.1886 1136.15 -35.7364 1134.56 -35.6734C1132.97 -35.6104 1133.33 -38.5926 1132.23 -40.5667C1130.63 -43.4438 1125.02 -43.4438 1123.31 -41.3437C1122.23 -39.3819 1121.32 -37.3068 1120.6 -35.1484C1121.01 -33.2108 1121.73 -31.3735 1122.75 -29.7301C1124.13 -28.071 1127.2 -29.1001 1127.58 -25.5299C1123.58 -25.5299 1119.43 -28.554 1114.99 -29.3941C1112.01 -29.9611 1108.85 -29.8771 1105.89 -30.1711C1104.98 -28.6591 1107.9 -27.441 1106.65 -25.7819C1105.91 -24.7109 1104.05 -26.811 1102.97 -26.811C1101.43 -26.916 1100.22 -25.6139 1098.32 -25.2569C1097.5 -25.1099 1096.8 -25.4039 1095.61 -25.2569C1094.41 -25.1099 1093.5 -24.3538 1092.69 -24.4798C1091.21 -24.7739 1090.13 -26.58 1089.2 -26.58C1088.27 -26.58 1086.79 -25.2779 1085.9 -25.0259C1085.01 -24.7739 1084.29 -25.0259 1083.4 -24.7739C1082.5 -24.5218 1081.4 -23.1568 1080.48 -22.6738C1079.55 -22.1907 1078.48 -22.1487 1077.76 -21.6447C1075.98 -20.4476 1075.58 -18.1795 1073.69 -18.0325C1073.01 -17.9866 1072.34 -18.1907 1071.78 -18.6126C1071.22 -19.0346 1070.8 -19.6506 1070.6 -20.3636C1070.48 -21.8967 1071.66 -21.7077 1071.37 -23.4508C1071.09 -25.1939 1067.2 -25.5509 1066.52 -23.7238C1065.17 -20.9517 1067.73 -19.5236 1067.49 -16.7515C1067.14 -16.5021 1066.87 -16.1437 1066.71 -15.7224C1063.18 -17.8225 1060.3 -15.0084 1057.98 -13.1393C1057.72 -11.7112 1057.98 -9.6531 1056.83 -9.27508C1054.1 -8.75006 1051.75 -11.9842 1049.85 -10.0521C1049.55 -7.40599 1052.37 -8.91807 1051.99 -6.18793H1051.42C1050.29 -6.19343 1049.18 -6.44496 1048.14 -6.92815C1047.1 -7.41134 1046.15 -8.11672 1045.36 -9.00403C1044.57 -9.89135 1043.94 -10.9432 1043.51 -12.0995C1043.08 -13.2559 1042.87 -14.4941 1042.87 -15.7434C1046.06 -17.0875 1050.1 -14.7144 1053.15 -14.7144C1055.04 -14.7144 1059.25 -15.7014 1059.16 -19.1036C1059.07 -21.9597 1054.25 -23.3038 1051.99 -24.2488C1049.28 -25.7971 1046.41 -27.0085 1043.46 -27.861C1042.64 -28.008 1041.56 -27.735 1040.75 -27.861C1038.13 -28.092 1036.23 -29.9611 1034.34 -30.1921C1033.07 -30.3601 1031.91 -29.7721 1031.06 -30.1921C1029.33 -31.0112 1029.48 -33.0273 1028.14 -33.8043C1025.59 -35.2744 1022.67 -34.0563 1019.62 -34.0563C1017.72 -34.0563 1016 -34.7704 1014.58 -34.5814C1013.59 -34.4343 1012.68 -33.8463 1012.05 -33.8043C1011.43 -33.7623 1010.33 -34.0563 1009.93 -34.0563C1008.77 -33.8253 1007.65 -32.3552 1006.44 -31.7252C1004.39 -30.6962 1001.87 -31.1372 999.841 -30.4441C997.812 -29.7511 995.916 -26.622 994.019 -26.2439C992.616 -25.9289 989.942 -27.336 989.563 -25.4669C989.183 -23.5978 990.701 -23.1148 990.151 -21.8547C988.899 -18.9566 985.827 -17.9275 984.139 -15.1344C983.684 -14.3993 983.627 -13.0343 983.172 -12.2992C982.508 -11.1022 981.275 -10.5141 980.839 -9.46409C980.062 -7.82601 980.365 -6.41894 979.284 -5.5999C977.597 -4.31884 975.017 -5.15888 973.273 -4.31883C972.249 -3.83581 971.509 -2.38674 970.561 -1.73571C968.115 0.00738092 964.682 0.553406 963.203 3.95558C963.09 6.3882 963.353 8.82432 963.981 11.1589C963.939 12.5624 964.003 13.9673 964.17 15.3591C964.588 16.6975 965.349 17.8725 966.359 18.7412C967.369 19.6099 968.585 20.1349 969.859 20.2524C973.538 20.2524 976.402 14.0781 979.341 14.8341C980.801 15.2121 981.01 18.4043 981.674 20.0004C982.337 21.5965 985.467 24.2006 984.973 26.9727C984.613 29.0728 980.953 29.8079 979.152 29.8079C979 27.4768 979.417 23.6546 977.995 22.3105C975.055 24.1796 972.988 23.6336 972.173 26.6997C971.149 30.5849 974.069 33.21 973.538 37.0112C973.007 40.8124 967.223 39.4894 964.606 40.1194C962.71 40.6864 961.951 43.8576 960.358 46.4197C959.053 48.3274 957.398 49.9089 955.504 51.0609C954.707 51.523 953.721 51.439 952.982 52.09C951.901 53.035 951.502 55.3661 950.27 56.4792C948.688 57.8165 946.92 58.8593 945.036 59.5664C943.936 59.5664 942.931 58.2013 942.134 58.5373C940.958 59.0833 941.11 62.1075 939.802 62.7375C937.242 63.9766 932.937 59.7344 932.045 64.8376C933.145 67.7778 935.971 67.0847 937.867 68.7018C939.671 70.7652 941.06 73.227 941.945 75.9262C942.1 78.8682 941.903 81.8202 941.357 84.7046C940.143 88.9048 937.336 87.3928 933.771 87.2667C932.766 87.2667 931.761 87.5187 930.87 87.5187C924.877 86.9937 918.847 84.1586 916.135 89.8499C916.324 94.2391 917.064 97.1372 916.324 100.938C915.793 103.732 913.916 106.252 914.011 108.688C914.011 110.011 915.13 111.208 915.357 112.888C915.471 113.791 915.054 115.702 915.357 116.5C916.343 119.041 918.979 116.899 920.781 117.277C922.583 117.655 924.46 120.868 924.479 123.431L926.755 122.401C927.323 118.474 932.956 120.007 936.236 119.209C937.507 118.894 938.133 117.319 939.726 116.122C940.446 115.534 941.357 115.45 942.058 114.841C943.446 113.517 944.509 111.827 945.149 109.927C945.301 108.793 944.656 107.176 944.77 106.315C945.171 104.946 945.868 103.706 946.799 102.703C948.334 100.29 950.158 98.1208 952.223 96.2552C953.607 95.2891 955.485 95.3942 956.111 93.9451C956.118 92.5422 956.055 91.1399 955.921 89.7449C956.755 88.6948 957.343 87.8548 958.045 87.6448C960.131 87.0357 962.198 89.5769 964.625 89.4509C965.687 89.4509 966.617 88.3588 967.735 87.3508C968.66 86.5807 969.629 85.8792 970.637 85.2506C971.661 84.5366 972.704 82.9195 973.937 82.9195C977.047 82.6675 978.222 87.1197 979.626 89.6189C981.423 92.2892 983.579 94.6404 986.016 96.5912C987.078 97.3892 988.52 97.4313 989.695 98.1453C992.237 99.5314 997.281 104.656 997.281 107.932C997.281 109.57 996.124 110.809 996.314 112.321C998.21 112.741 1000.39 109.948 1000.39 107.428C1000.39 105.769 999.177 104.908 999.405 103.228C1000.28 100.686 1002.91 103.228 1004.07 102.198C1003.84 99.3003 1000.92 99.0483 999.026 97.5573C998.021 96.7382 997.338 95.0161 996.314 94.4491C994.797 93.6301 993.147 93.9031 992.047 92.664C991.044 90.9136 990.138 89.0972 989.335 87.2247C987.761 84.8516 984.31 84.4526 985.258 78.8243C985.694 77.9843 986.851 76.7242 987.59 77.0182C989.032 77.4802 989.07 79.4123 989.904 80.1264C990.738 80.8404 991.63 80.5464 992.635 81.4074C993.64 82.2685 994.19 84.5156 995.347 85.7967C997.428 87.6382 999.7 89.1964 1002.12 90.4379C1004.34 91.803 1007.71 93.6511 1008.13 96.1082C1008.37 97.5573 1007.81 99.0903 1007.94 100.308C1008.21 101.806 1008.74 103.233 1009.49 104.509C1010.93 107.26 1013.08 109.696 1014.73 113.035C1014.73 117.634 1015.98 120.343 1019.77 119.734C1021.14 118.747 1020.51 117.277 1021.52 115.849C1022.52 114.421 1024.8 114.61 1024.8 112.51C1024.8 109.276 1018.99 108.772 1019.77 104.005C1020 102.472 1021.27 103.228 1022.28 103.228C1023.96 100.686 1027.4 97.4732 1029.65 101.421C1030.62 109.255 1032.48 116.122 1036.63 120.322C1039.57 118.915 1040.84 122.423 1043.61 121.855C1045.01 121.54 1045.6 119.293 1046.91 119.02C1049.32 118.537 1050.87 122.002 1053.11 122.381C1056.73 122.927 1059.41 117.403 1062.99 120.28C1063.16 124.187 1064.07 126.266 1063.96 129.038C1063.96 131.138 1062.54 133.238 1061.8 135.884C1061 139.139 1061.25 142.353 1059.9 144.285L1070.12 166.042L1066.59 168.142C1068.13 169.633 1069.42 171.419 1070.39 173.413C1070.88 174.61 1070.99 176.185 1071.56 177.298C1072.4 178.978 1073.91 179.755 1074.65 180.91C1075.74 182.529 1076.54 184.37 1076.99 186.329C1077.18 187.484 1076.99 188.66 1077.18 190.193C1078.07 195.779 1082.62 198.089 1084.93 202.563C1085.61 203.97 1085.9 205.608 1086.49 206.763C1087.7 209.01 1089.67 210.417 1090.17 213.21C1090.03 214.575 1088.61 214.134 1088.61 215.793C1089.22 217.893 1090.87 218.46 1091.72 220.434C1093.37 224.278 1093.62 229.759 1095.02 234.106C1098.05 236.458 1100.71 232.405 1103.74 231.271C1104.75 230.914 1105.43 231.271 1106.65 230.746C1107.86 230.221 1109.03 229.087 1110.32 228.646C1110.91 228.394 1111.63 228.646 1112.22 228.394C1113.64 227.701 1114.63 225.769 1116.28 224.782C1118.84 223.228 1121.97 223.144 1123.66 221.673C1125.34 220.203 1125.34 217.473 1126.75 216.255C1128.89 214.407 1131.34 214.953 1133.92 213.693C1135.32 213.042 1135.98 211.32 1137.22 210.06C1138.37 209.013 1139.47 207.899 1140.51 206.721C1141.52 205.482 1143.25 204.138 1143.61 203.109C1143.67 201.98 1143.8 200.857 1144 199.748C1144.42 198.593 1145.52 197.984 1146.32 196.661C1147.11 195.338 1149.75 190.361 1149.64 188.66C1149.52 186.959 1145.69 182.149 1144.78 181.687C1143.32 180.931 1142.07 181.414 1141.08 180.931C1139.53 179.972 1138.37 178.406 1137.8 176.542C1137.06 174.442 1137.8 172.951 1135.66 171.124C1132.06 175.324 1129.76 181.141 1121.7 179.377C1119.96 178.348 1120.72 173.98 1119.96 171.649C1119.1 170.431 1117.47 171.796 1116.68 171.376C1115.46 165.895 1111.48 164.362 1109.3 160.287C1108.19 158.523 1107.46 156.495 1107.18 154.365C1107.41 153.316 1107.95 152.386 1108.72 151.729C1109.5 151.072 1110.45 150.727 1111.42 150.753C1115.9 150.753 1116.43 158.628 1119.39 161.253C1120.58 162.324 1122.14 163.102 1123.85 164.614C1126.23 166.714 1129.21 168.814 1132.76 167.701C1134.43 167.197 1135.7 165.433 1137.22 165.895C1138.73 166.357 1139.11 169.738 1139.93 170.809C1141.41 172.51 1144.63 173.308 1147.1 173.644C1148.99 173.917 1151.4 174.4 1153.3 174.673C1156.02 174.856 1158.76 174.68 1161.45 174.148C1163.35 173.959 1166.21 174.337 1167.84 174.148C1168.6 173.896 1169.38 173.727 1170.17 173.644C1172.75 174.001 1174.1 178.096 1175.6 179.818C1178.2 182.843 1181.61 184.229 1182.97 186.791C1181.38 190.991 1186.77 195.821 1188.97 195.821C1191.17 195.821 1191.93 193.322 1193.82 192.734C1195.85 194.015 1195.21 196.094 1195.38 199.433C1195.66 202.403 1196.18 205.34 1196.91 208.212C1197.52 210.921 1198.11 214.008 1198.81 216.444C1199.84 219.384 1201.07 222.234 1202.49 224.971C1203.54 228.186 1204.45 231.46 1205.2 234.778C1206.05 237.277 1207.82 239.125 1208.69 241.225C1210.59 245.72 1211.61 256.472 1215.86 255.674C1216.81 255.485 1217.01 254.372 1217.98 252.818C1218.59 251.873 1219.67 251.096 1220.33 249.983C1220.73 249.29 1220.9 248.051 1221.49 246.896C1222.08 245.741 1222.87 245.258 1223.05 244.313C1223.07 242.587 1223 240.862 1222.84 239.146C1222.99 237.235 1224.03 235.597 1224.2 233.728C1224.56 229.654 1222.95 226.336 1223.05 222.135C1224.45 218.502 1227.56 218.292 1229.63 215.688C1230.4 214.722 1230.48 213.336 1231.37 212.076C1232.26 210.816 1233.68 209.976 1234.67 208.716C1236.68 206.028 1238.01 202.668 1239.9 200.987C1241.36 199.601 1243.56 199.559 1244.17 196.787C1243.7 190.613 1246.96 191.999 1250.75 191.642C1252.53 191.398 1254.28 190.962 1255.99 190.34C1257.12 189.857 1258.34 187.736 1259.47 188.009C1260.61 188.282 1260.86 190.823 1261.6 192.923C1262.32 194.6 1263.23 196.161 1264.33 197.564C1265.45 199.076 1267.12 199.664 1268.01 201.176C1268.46 201.911 1268.62 203.277 1269.17 204.264C1270.57 206.7 1272.46 208.044 1272.46 211.488C1272.46 213.21 1271.65 214.806 1271.88 216.381C1272.06 217.219 1272.48 217.972 1273.07 218.53C1273.66 219.089 1274.4 219.424 1275.18 219.489C1277.79 219.489 1279.77 214.302 1281.59 214.596C1283.41 214.89 1284.28 220.623 1285.08 223.606C1285.57 225.538 1286.1 227.029 1286.61 228.52C1287.31 230.012 1287.89 231.564 1288.36 233.161C1288.7 235.051 1288.36 237.361 1288.57 239.461C1288.66 240.532 1289.13 241.414 1289.13 242.296C1289.25 246.371 1288.22 250.445 1288.36 253.889C1288.36 256.346 1290.8 257.354 1292.15 259.055C1294.05 261.474 1295.5 264.276 1296.44 267.309C1297.06 270.123 1296.91 272.748 1297.59 275.058C1298.04 276.127 1298.56 277.159 1299.15 278.145C1300.4 281.231 1302.37 283.901 1304.84 285.895C1306.26 287.365 1307.92 288.52 1309.73 289.297C1311.63 285.937 1308.48 283.585 1307.83 280.266C1307.24 277.41 1308.08 274.218 1307.24 271.509C1305.58 268.266 1303.41 265.378 1300.83 262.983C1299.81 262.016 1298.26 261.764 1297.35 260.672C1295.98 258.971 1295.79 255.59 1294.44 252.671C1293.63 250.907 1292.02 249.5 1291.73 247.778C1291.09 243.578 1293.04 240.931 1293.48 237.277C1293.91 233.623 1293.33 231.355 1295.03 231.355C1296.04 231.355 1296.93 233.938 1297.93 234.694C1299.6 235.954 1301.63 236.269 1302.98 238.054C1304.06 239.482 1304.67 241.918 1306.09 243.473C1307.81 245.363 1310.58 246.266 1311.11 248.114C1311.51 249.458 1310.7 252.314 1312.08 253.007C1315.57 252.587 1316.61 247.442 1318.68 245.783C1321.43 243.683 1324.9 242.78 1326.27 238.831C1327.21 223.249 1321.43 219.342 1315.99 213.042C1314.45 211.32 1310.18 205.503 1310.3 202.71C1310.43 198.971 1316.25 192.209 1318.81 191.894C1319.08 191.873 1319.34 191.873 1319.61 191.894C1320.25 191.987 1320.87 192.22 1321.43 192.578C1321.99 192.937 1322.49 193.415 1322.88 193.985C1323.28 194.554 1323.57 195.204 1323.73 195.898C1323.9 196.591 1323.94 197.315 1323.86 198.026C1323.63 199.895 1320.6 201.134 1320.75 204.327C1320.82 205.358 1321.27 206.313 1321.98 206.986C1322.69 207.658 1323.61 207.993 1324.54 207.918C1326.13 207.687 1328.33 204.432 1328.03 201.218C1327.8 199.118 1325.79 197.9 1325.9 195.8C1326.09 191.6 1330.68 192.314 1333.26 191.159C1334.29 190.676 1335.16 189.059 1336.35 188.576C1340.79 186.665 1345.67 185.51 1349.34 181.603C1353.44 177.256 1354.86 171.103 1356.13 163.039C1358.86 161.358 1357.48 157.179 1357.88 152.727C1357.4 150.879 1355.26 151.215 1354.77 149.367C1354.77 148.044 1355.32 147.687 1355.17 146.28C1354.18 145.146 1354.31 143.067 1353.42 141.365C1353.04 140.672 1351.71 139.916 1350.9 138.782C1349 136.157 1347.45 132.629 1345.85 131.054C1344.26 129.479 1342.18 129.059 1342.18 126.665C1342.18 122.465 1347.41 120.259 1348.38 117.13C1346.76 115.581 1344.69 114.75 1342.56 114.799C1341.19 115.009 1340.53 117.025 1338.88 116.899C1337.23 116.773 1337.21 114.127 1335.2 113.035C1333.19 111.943 1330.7 112.531 1330.93 109.675C1331.06 108.142 1332.98 107.932 1334.04 106.861C1335.6 105.244 1337.38 99.7624 1340.05 100.14C1343.54 100.623 1340.05 106.147 1342.95 108.394C1344.85 107.89 1345.53 105.58 1347.6 105.055C1350.43 104.32 1353.93 105.622 1354.77 108.394C1355.39 110.494 1354.94 112.741 1356.51 113.812C1358.98 115.471 1361.03 114.022 1362.2 116.647C1362.62 117.655 1362.47 118.915 1362.79 119.755C1363.36 121.33 1364.52 122.17 1364.91 124.124C1365.39 126.665 1364.55 129.374 1366.81 130.424C1369.07 131.474 1374.62 127.82 1374.76 125.258C1374.49 122.618 1373.62 120.097 1372.23 117.928C1370.43 115.036 1368.28 112.429 1365.84 110.179C1364.65 108.982 1362.14 108.709 1362.05 105.979C1361.96 103.249 1364.82 102.766 1365.33 100.035C1365.67 98.2923 1365.07 97.4102 1364.95 94.8691C1366.39 92.538 1366.85 89.6189 1369.22 89.4718C1370.72 89.4718 1371.25 91.0889 1373.01 91.0049C1374.77 90.9209 1377.3 88.1698 1378.06 85.8597C1378.47 84.6416 1378.57 82.3315 1379.02 80.4414C1379.57 78.8372 1380.03 77.1958 1380.39 75.5271C1380.52 74.0361 1380.18 72.419 1380.18 70.6339C1380.18 68.0088 1380.96 65.2156 1380.96 63.6826C1380.48 60.8809 1379.44 58.233 1377.92 55.9332C1377.37 54.8621 1373.6 49.9479 1376.03 48.7088C1377.2 48.0788 1379.25 50.9769 1379.82 51.796C1381.07 53.6441 1381.91 55.1561 1382.72 56.4582C1384.94 59.9024 1385.64 63.9556 1388.73 65.4677C1389.55 64.3336 1388.73 63.1785 1389.11 61.6035C1389.34 60.5324 1390.21 60.0914 1390.1 58.7683C1389.98 57.4453 1387.29 54.5681 1386.4 53.6021C1384.84 51.754 1383.12 50.5779 1381.94 49.2338C1378.74 45.4747 1377.16 40.8334 1373.81 39.4263C1372.04 40.1824 1372.99 41.8835 1371.1 42.0095C1370.13 42.0095 1368.19 40.3294 1366.83 39.4263C1365.46 38.5233 1364.27 36.9902 1362.37 37.0952C1361.48 37.0952 1359.85 38.9013 1358.69 38.9013C1356.8 38.9013 1353.95 35.3311 1352.3 35.0371C1351.3 34.8481 1350.94 35.5832 1350.16 35.3101C1346.92 34.1131 1350.56 29.8289 1350.94 28.5898C1351.32 27.3507 1351.26 25.9227 1351.53 24.9776C1351.79 24.0326 1352.68 22.8775 1353.06 21.3654C1353.33 20.3154 1353.06 19.0133 1353.46 18.0053C1355.53 10.9279 1364.59 16.4092 1370.7 14.9181C1371.8 14.6661 1373.01 13.112 1374.49 13.112C1377.33 13.112 1378.95 16.1362 1382.08 16.4722C1383.19 16.5772 1388.33 16.1992 1388.49 14.6661C1388.64 13.133 1386.32 11.915 1386.15 10.8019C1385.91 9.38633 1386.09 7.92325 1386.66 6.62699C1387.22 5.33073 1388.15 4.26943 1389.3 3.59856C1395.12 1.68746 1395.54 8.4078 1399.2 7.98778C1399.93 7.73281 1400.59 7.26217 1401.1 6.62603C1401.61 5.98989 1401.96 5.2121 1402.1 4.3756C1402.29 3.09454 1401.17 1.54045 1402.29 0.763416C1403.35 1.44892 1404.27 2.35846 1405 3.43971C1405.74 4.52096 1406.27 5.75258 1406.58 7.06373C1406.71 8.84882 1404.81 11.768 1404.68 14.7921C1404.79 15.8169 1404.85 16.8473 1404.87 17.8793C1404.49 19.9794 1402.35 20.9244 1402.35 22.2685C1403.03 31.0259 1409.59 36.2762 1413.59 40.3294C1417.6 44.3826 1420.86 48.7298 1424.65 51.922C1425.12 51.6301 1425.52 51.2224 1425.82 50.7306C1426.12 50.2388 1426.32 49.6763 1426.39 49.0868C1426.53 47.5748 1425.52 46.4197 1425.43 44.6976C1425.43 43.4586 1426.01 42.4085 1426.01 41.3584C1425.88 39.7834 1424.73 39.4684 1424.84 38.2503C1425.14 36.3602 1426.74 36.7592 1426.74 34.9111C1426.74 33.378 1424.14 32.811 1423.83 30.7109C1423.66 29.4719 1424.35 29.2618 1424.23 27.3717C1423.7 26.0907 1422.87 26.3637 1421.69 25.0406C1420.52 23.7176 1419.57 21.4284 1418.41 20.8404C1417.25 20.2524 1416.06 20.8404 1415.11 20.0634C1413.65 18.7403 1414.09 15.4432 1413.37 13.091C1414.71 9.73087 1417.42 11.831 1419.57 11.2849C1420.38 11.0329 1421.33 9.45785 1422.28 9.18484C1424.88 8.4498 1427.53 11.2849 1429.26 10.7389C1430.59 10.3609 1431.74 6.18169 1433.05 4.54361C1434.62 2.60886 1436.62 1.1612 1438.85 0.343397C1440.01 0.0913847 1441.53 1.47745 1442.93 0.0913829C1442.23 -4.10883 1433.71 -3.81481 1433.45 -8.30904C1433.47 -9.09201 1433.69 -9.85201 1434.1 -10.4943C1434.5 -11.1367 1435.07 -11.6329 1435.72 -11.9212C1442.93 -14.3993 1448.62 -5.99892 1455.28 -8.45604C1455.81 -15.6594 1448.92 -18.9566 1443.06 -18.9566H1443.12Z" fill="black"/>
<path opacity="0.2" d="M1052.66 127.904C1052.66 125.804 1056.45 124.985 1057.11 126.875C1056.88 128.912 1053.41 130.34 1052.66 127.904Z" fill="black"/>
<path opacity="0.2" d="M986.168 113.959C988.197 111.859 992.692 113.245 995.479 113.182C994.948 115.156 994.873 117.697 993.735 118.852C990.549 118.075 987.591 117.046 986.168 113.959Z" fill="black"/>
<path opacity="0.2" d="M972.097 100.288C974.752 96.5704 977.559 98.5235 976.554 105.685C975.928 107.785 973.14 110.683 971.907 107.491C972.207 105.105 972.271 102.689 972.097 100.288V100.288Z" fill="black"/>
<path opacity="0.2" d="M975.89 92.0343C976.042 92.7536 975.995 93.5071 975.755 94.1964C975.515 94.8857 975.093 95.4789 974.543 95.8985C971.983 95.2894 973.994 89.1991 975.89 92.0343Z" fill="black"/>
<path opacity="0.2" d="M938.285 39.6995C938.361 38.8904 938.239 38.0737 937.932 37.3347C937.625 36.5958 937.144 35.9618 936.54 35.4992C935.914 35.0162 934.928 35.2472 934.226 34.7222C932.33 33.3361 931.647 30.522 930.547 29.808C930.68 26.9938 929.96 24.9357 930.547 23.1086C931.563 21.1031 933.026 19.4186 934.795 18.2154C936.502 17.4173 938.266 18.2154 939.271 16.4093C939.439 16.366 939.613 16.3662 939.781 16.4099C939.949 16.4536 940.105 16.5396 940.238 16.6613C940.238 18.2784 939.195 18.5514 939.062 20.0215C939.309 22.3526 942.419 20.9035 942.741 23.1086C942.457 25.5237 940.845 25.9858 940.845 27.7499C940.845 29.5139 943.196 32.1811 944.334 34.1972C945.187 35.6883 946.686 36.8013 947.444 38.3974C948.203 39.9935 948.26 41.3165 948.791 42.0096C949.815 43.2906 952.109 43.5006 952.28 45.3487C952.507 47.8269 949.985 48.7929 950.384 51.649C947.729 54.4212 943.291 52.9931 939.005 53.7492C937.109 54.0852 934.871 56.6893 932.804 54.5262C932.33 52.8041 934.53 52.5731 934.7 50.914C934.549 49.4019 933.108 49.6119 932.804 48.3519C933.373 46.2518 935.118 45.9368 934.928 42.9336C935.876 41.1905 937.962 41.7996 938.285 39.6995Z" fill="black"/>
<path opacity="0.2" d="M923.758 33.3991C926.337 31.299 930.87 32.9161 931.116 35.4993C931.306 37.4313 929.751 37.5994 929.22 39.8675C928.689 42.1356 929.22 44.1937 928.632 45.5588C928.044 46.9238 926.432 46.6508 925.332 47.0918C922.905 48.0579 918.202 51.8801 916.23 47.6169C916.514 45.3277 918.126 44.8657 918.752 42.9756C918.752 41.4846 917.595 40.6865 917.785 39.1114C918.012 37.1583 919.112 37.8304 920.686 37.0113C921.786 36.5073 922.279 34.6592 923.758 33.3991Z" fill="black"/>
<path d="M784.962 558.929H782.042C782.504 558.716 783.001 558.606 783.502 558.606C784.003 558.606 784.499 558.716 784.962 558.929Z" fill="black"/>
<path d="M758.982 0.301242C758.982 1.72931 755.189 4.08143 754.715 1.33029C754.649 0.934536 754.687 0.52621 754.825 0.153899C754.963 -0.218413 755.195 -0.539035 755.492 -0.769812C756.535 -1.67286 758.944 -1.18983 758.982 0.301242Z" fill="black"/>
<path d="M678.348 239.818C678.234 240.196 678.063 240.469 677.949 240.847C675.901 240.742 677.76 237.256 678.348 239.818Z" fill="black"/>
<path d="M855.128 331.005C854.996 327.897 853.554 320.903 851.829 319.916C850.861 319.37 848.605 319.916 847.182 319.139C842.612 316.871 839.919 309.311 835.159 308.828C834.154 308.723 833.263 309.353 832.068 309.353C830.172 309.353 827.365 307.589 825.279 307.253C824.028 307.064 822.264 307.778 821.486 307.253C820.273 306.476 820.14 303.514 819.154 302.632C818.04 301.989 816.871 301.468 815.665 301.078C813.922 299.901 811.99 299.109 809.975 298.747C809.293 298.747 808.439 299.167 807.662 298.999C806.429 298.747 805.765 297.046 804.362 295.912C802.959 294.778 801.65 294.19 801.062 292.552C802.333 287.008 798.825 285.454 797.971 282.24C797.554 280.728 797.725 278.943 797.383 277.599C796.871 275.667 795.487 274.554 793.894 272.958C791.087 269.976 788.603 267.309 784.583 266.658C782.686 266.364 781.15 267.351 778.894 267.162C776.637 266.973 773.792 264.327 772.105 261.764C771.062 259.621 769.788 257.625 768.312 255.821C766.946 254.687 765.164 254.687 764.235 253.511C763.817 253.028 763.893 252.125 763.457 250.928C762.774 249.059 761.561 248.009 762.49 245.762C760.935 244.712 760.878 247.694 759.19 247.316C757.692 244.46 756.422 243.115 752.989 243.955C751.434 244.333 750.619 247.043 748.722 247.043C747.224 247.043 745.972 244.943 744.076 244.48C742.578 244.186 740.871 245.006 739.809 244.733C738.159 244.292 737.647 242.443 736.13 241.12C735.009 240.025 733.726 239.151 732.338 238.537C730.441 238.537 729 244.039 726.326 242.149C724.999 239.944 728.45 238.831 726.895 236.731C725.7 235.177 724.733 237.424 723.804 238.285C722.815 239.309 721.705 240.178 720.504 240.868C717.887 242.233 716.01 241.645 714.094 242.968C712.179 244.291 712.198 246.518 711.003 249.269C710.112 251.369 708.348 254.54 706.736 254.687C705.124 254.834 703.55 251.663 702.09 250.823C697.653 248.261 695.225 253.07 691.812 253.133C688.398 253.196 683.506 245.72 683.676 241.519C683.771 238.915 684.795 234.967 685.023 231.733C685.212 229.171 686.578 227.533 686.578 225.286C686.578 222.156 683.449 219.72 681.932 219.342C678.31 218.46 673.284 221.19 669.131 219.09C668.335 217.347 670.041 216.15 670.497 214.449C670.743 213.483 670.497 212.16 670.876 211.089C671.312 209.451 672.62 208.191 673.208 206.448C673.644 205.125 673.739 203.192 674.175 201.554C674.777 200.129 675.296 198.663 675.731 197.165C675.815 196.29 675.737 195.404 675.502 194.563C675.267 193.722 674.881 192.942 674.365 192.272C671.903 192.188 669.454 192.712 667.197 193.805C662.987 196.346 663.802 203.885 659.611 205.671C657.955 206.151 656.269 206.495 654.567 206.7C653.128 207.31 651.634 207.746 650.11 208.002C647.907 207.524 645.907 206.254 644.421 204.39C643.073 201.585 641.968 198.646 641.122 195.611C639.847 188.887 640.67 181.884 643.454 175.744C644.029 174.664 644.548 173.549 645.009 172.405C645.578 170.62 645.18 167.89 645.578 165.958C646.337 162.366 649.864 160.203 652.367 158.481C655.212 156.507 657.601 153.357 660.901 153.063C662.831 153.109 664.746 153.456 666.59 154.092C668.05 154.491 669.207 155.772 670.383 155.898C673.948 156.255 674.82 152.58 677.741 150.48C680.756 151.047 682.766 149.787 685.497 150.228C687.393 150.501 688.91 153.189 690.143 153.315C691.376 153.441 692.476 151.761 693.632 152.013C694.789 152.265 696.742 155.583 696.932 157.452C697.16 159.762 695.662 161.862 696.155 164.404C698.051 166.882 701.294 167.365 703.911 168.793C705.618 166.924 704.138 163.5 703.911 160.791C703.911 159.552 704.006 158.544 703.911 157.452C703.759 155.583 703.133 153.882 703.133 152.286C703.133 144.915 707.571 141.512 711.269 138.614C712.881 137.354 714.151 135.149 715.536 134.225C717.432 132.923 718.949 132.608 720.58 131.39C723.331 129.497 725.927 127.339 728.336 124.943C729.398 121.603 728.336 117.13 728.526 113.854C729.588 112.972 730.422 114.232 731.636 114.106C733.399 113.602 733.532 110.284 734.537 108.94C735.125 108.142 736.718 107.596 737.439 106.84C739.221 104.992 739.79 102.219 741.326 101.421C741.876 101.127 742.881 101.421 744.038 100.917C745.195 100.413 746.788 98.6702 748.684 97.8092C749.898 97.2632 752.591 97.3892 753.16 96.5281C753.729 95.6671 753.16 93.483 753.349 92.3279C754.222 86.4896 760.821 85.2506 764.728 83.2975C767.458 81.9114 770.246 79.4123 773.261 80.1893C772.674 82.9614 769.867 81.9954 770.341 85.3556C771.005 89.9758 775.689 83.9485 776.94 83.2555C779.273 81.9324 783.312 81.1553 786.422 79.6433C789.134 78.3202 794.008 76.3461 791.448 72.1459C789.305 71.9989 788.319 75.4851 786.422 76.5351C785.133 76.7871 785.322 75.107 784.279 74.981C783.236 74.855 782.649 76.2831 781.568 76.0311C780.846 75.6215 780.223 75.0264 779.751 74.2957C779.279 73.565 778.972 72.7198 778.856 71.8309C778.42 67.6307 781.587 65.7616 782.933 62.5484C782.042 58.6632 778.002 61.7504 775.556 60.2173C775.731 59.1051 776.22 58.0829 776.952 57.298C777.685 56.513 778.624 56.0057 779.633 55.8491C781.302 55.4711 785.038 55.8491 786.024 56.8781C786.612 57.5292 786.024 59.1463 786.991 60.2173C787.447 60.6982 788.017 61.0264 788.635 61.1639C789.252 61.3014 789.892 61.2426 790.481 60.9943C790.955 57.9702 787.598 58.7262 787.958 56.7941C790.594 54.505 794.842 56.3951 798.047 55.7651C800.024 55.0194 801.862 53.8808 803.471 52.4049C805.026 51.1238 807.055 49.1918 808.705 51.1239C809.16 53.224 807.264 53.938 806.391 54.988C803.288 58.5544 800.495 62.4356 798.047 66.5806C799.469 68.4287 802.049 67.5047 804.438 67.8827C805.386 68.0297 806.334 68.3867 807.548 68.6597C808.762 68.9327 809.937 68.8697 810.829 69.1637C812.46 69.7098 812.915 71.9989 814.508 72.1669C817.163 72.1669 817.163 68.3657 815.665 65.9926C816.139 63.5565 816.897 62.2754 816.252 60.5743C815.058 57.3192 810.658 60.4483 810.431 56.3741C810.298 53.812 812.061 53.917 812.763 51.9849C812.441 47.0286 815.835 46.6506 815.475 42.1984C815.323 40.3293 814.128 40.3293 813.142 38.5862C812.63 37.6832 812.403 35.9191 811.796 35.2261C809.767 32.8529 805.652 33.294 805.386 28.9257C805.386 26.3636 805.86 24.0535 805.595 21.4494C805.329 18.8452 804.002 11.6209 802.295 11.1379C800.133 10.5078 797.895 15.3381 795.316 17.0602C793.895 18.1523 792.19 18.6982 790.462 18.6142C789.726 18.0673 789.142 17.3038 788.777 16.4096C788.412 15.5154 788.28 14.5261 788.395 13.553C788.243 10.8438 789.76 10.7808 790.139 7.88269C789.817 6.18161 788.66 6.72763 787.238 5.29956C785.815 3.87149 784.659 0.763338 782.762 0.40632C781.833 0.238312 780.6 1.43537 779.671 1.43537C776.77 1.72939 774.285 -1.02175 772.086 -0.370722C769.469 0.427318 769.582 5.82459 767.041 6.85364C767.383 9.47877 764.823 11.0539 764.538 13.154C764.532 14.5649 764.659 15.9726 764.917 17.3542C765.505 29.7028 757.863 35.4781 748.836 35.1631C747.053 37.4102 747.471 41.6104 746.504 44.6975C745.631 47.3017 742.711 50.0738 740.814 49.8638C739.373 49.6958 737.723 47.0076 737.723 45.2226C737.723 43.1224 740.132 41.7994 738.69 39.2793C738.899 37.5782 741.725 36.6961 741.402 33.861C741.08 31.0258 738.065 32.4959 735.391 32.0549C733.221 31.4099 731.176 30.3278 729.36 28.8627C727.085 27.1827 725.15 23.9275 722.192 23.4445C720.504 23.1715 718.968 24.2845 718.115 22.9194C717.261 21.5544 718.513 19.4963 718.513 18.5512C718.513 17.0391 716.18 16.4511 716.18 14.939C716.773 12.9123 717.771 11.0601 719.101 9.52078C721.185 7.46415 723.453 5.64864 725.871 4.1025C728.262 2.2955 730.802 0.741586 733.456 -0.53873C734.461 -0.979752 735.599 -0.853749 736.566 -1.31577C739.013 -2.51283 740.625 -4.80194 742.957 -5.70499C744.076 -6.16701 745.404 -6.08301 746.75 -6.48203C749.974 -7.42707 752.344 -10.4932 755.094 -11.1233C754.487 -8.14111 751.984 -7.67908 751.415 -4.67593C753.748 1.01535 758.015 -5.978 760.518 -5.957C763.021 -5.936 765.524 -1.25277 767.098 -5.70499C766.399 -7.85309 765.062 -9.67459 763.305 -10.8712C761.807 -12.1313 759.513 -13.2654 759.626 -16.0165C761.409 -17.0876 762.092 -14.2104 763.704 -14.2104C764.576 -14.2104 765.695 -15.6175 766.605 -16.0165C768.615 -17.0246 771.991 -17.2346 773.584 -19.1247C774.532 -20.2377 774.513 -22.2538 775.139 -23.4929C775.765 -24.7319 777.225 -24.8579 778.04 -26.349C778.856 -27.8401 778.154 -29.1422 779.197 -29.9402C781.492 -31.2843 784.279 -29.6462 786.783 -29.9402C787.996 -30.1082 788.774 -31.2423 789.893 -31.2423C792.055 -30.9062 793.211 -26.265 794.728 -24.942C795.847 -23.9759 797.839 -23.9969 798.028 -22.1068C798.407 -18.2636 794.33 -18.0746 791.827 -16.1635C790.575 -15.2185 790.044 -13.0764 788.527 -12.2993C784.469 -10.1992 778.211 -14.6094 776.884 -8.68714C778.78 -4.99095 782.25 -8.93915 784.64 -8.93915C786.346 -8.93915 788.584 -6.65004 789.494 -5.34797C790.405 -4.04591 790.727 -1.54678 791.827 -0.685738C792.567 -0.139711 793.837 -0.286719 794.728 0.0702993C797.573 1.22536 799.943 3.28346 803.054 2.40142C804.134 -0.0977088 800.854 -0.79074 802.086 -2.76484C803.884 -2.362 805.592 -1.56979 807.112 -0.433726C809.35 -2.53383 810.791 -2.86985 810.791 -6.37702C810.791 -9.29617 807.889 -9.42217 807.889 -12.8243C807.899 -12.8728 807.899 -12.9229 807.889 -12.9714C807.871 -13.3052 807.913 -13.6397 808.012 -13.9556C808.111 -14.2715 808.266 -14.5627 808.466 -14.8124C808.667 -15.0622 808.911 -15.2655 809.183 -15.4109C809.455 -15.5563 809.75 -15.6407 810.051 -15.6595C812.535 -15.7855 813.18 -10.8502 815.077 -10.4932C816.871 -10.8291 818.572 -11.6197 820.045 -12.8033C820.899 -13.4964 823.838 -15.7435 823.838 -17.0036C823.99 -18.9146 820.861 -21.3718 819.381 -22.1698C817.295 -23.3039 815.19 -23.1359 814.356 -25.53C813.901 -26.832 814.603 -28.2181 813.768 -29.1212C813.673 -30.5282 815.039 -31.3473 814.735 -32.7543C814.432 -34.1614 813.294 -33.9514 811.834 -34.8544C810.81 -35.4845 809.824 -36.9546 808.913 -37.1646C807.7 -37.5636 806.562 -37.1646 805.633 -37.6896C802.219 -39.3697 802.845 -43.1289 800.588 -44.9139C797.63 -44.4309 795.108 -46.279 793.003 -44.6409C790.386 -46.573 786.46 -44.1999 783.123 -44.6409C782.118 -44.7879 781.226 -45.565 780.221 -45.691C775.139 -46.279 768.084 -41.9948 766.055 -38.9707C765.104 -37.3551 764.572 -35.4804 764.519 -33.5524C765.088 -30.8012 768.919 -32.8173 769.943 -30.2132C769.696 -26.916 766.984 -25.194 765.088 -23.9129C763.192 -22.6318 760.745 -19.4397 758.697 -21.0778C757.901 -23.8499 761.011 -23.8499 760.252 -26.244C759.683 -28.0081 757.256 -26.853 756.175 -28.5541C754.677 -30.9272 756.46 -34.3084 755.985 -37.8366C758.147 -43.2129 766.529 -40.1467 768.786 -45.313C768.464 -46.9721 767.326 -46.027 766.264 -46.615C765.202 -47.2031 764.917 -48.5051 763.931 -48.5051C762.945 -48.5051 761.637 -47.0141 760.442 -46.405C759.151 -45.8532 757.918 -45.1491 756.763 -44.3049C754.544 -42.4568 753.691 -37.7736 751.074 -38.6346C750.505 -41.4278 753.52 -42.8348 753.217 -45.334C752.477 -46.972 750.732 -46.279 749.424 -46.111C745.764 -45.544 743.109 -44.5359 741.687 -41.9108C740.397 -42.1208 738.634 -43.0449 737.799 -41.6588C738.634 -39.6847 740.359 -36.6605 742.256 -36.2195C743.621 -35.9255 745.005 -37.6266 746.333 -36.2195C746.674 -33.4684 743.905 -33.5104 743.811 -30.8012C743.811 -29.1002 745.328 -28.1971 745.176 -26.601C744.929 -24.5009 740.606 -21.6868 738.975 -22.9889C738.975 -25.593 741.478 -24.8369 741.478 -27.1891C741.339 -27.7586 741.071 -28.2793 740.699 -28.7019C740.328 -29.1246 739.865 -29.4351 739.354 -29.6042C738.365 -29.6306 737.383 -29.4146 736.478 -28.9717C735.573 -28.5287 734.768 -27.8698 734.12 -27.0421C733.248 -25.824 733.305 -23.6399 732.224 -22.6528C730.498 -21.0778 728.203 -21.8758 726.212 -21.8758C722.306 -21.7498 720.068 -21.4978 717.299 -23.4299C716.484 -23.9969 714.834 -25.005 714.967 -26.769C718.001 -26.916 720.921 -24.8579 724.449 -25.74C725.719 -26.055 726.042 -27.5251 727.35 -28.3231C728.659 -29.1212 730.233 -28.3231 730.65 -30.1292C730.555 -33.2584 727.786 -32.2293 727.559 -34.7704C727.885 -36.8873 728.754 -38.8557 730.062 -40.4407C731.238 -41.9528 733.362 -42.2048 733.76 -44.0529C732.793 -46.72 730.688 -43.8849 729.095 -43.5279C728.147 -43.3389 727.198 -43.8009 726.383 -43.5279C724.486 -42.9398 723.406 -40.5877 722.116 -39.6637C720.732 -39.9787 720.58 -41.9318 719.215 -42.2468C717.47 -40.4827 715.915 -41.7218 714.17 -42.2468C713.26 -42.5408 712.141 -42.4988 711.458 -42.7718C709.884 -43.3599 708.898 -45.88 707.002 -46.636C705.389 -46.8247 703.768 -46.9089 702.147 -46.888C698.923 -47.3921 695.946 -48.6941 693.234 -48.1901C689.915 -47.5601 687.792 -44.4309 685.099 -43.0239C681.837 -41.3228 676.167 -39.0127 680.642 -35.2955C685.08 -35.5055 688.872 -38.1306 692.665 -38.1306C693.063 -34.9595 691.376 -32.3553 690.522 -30.1292C689.897 -28.4911 690.067 -27.3991 689.366 -26.769C686.578 -24.2699 681.647 -28.8691 678.12 -29.6042C676.224 -30.0242 674.555 -28.8271 672.696 -28.8271C670.838 -28.8271 669.15 -30.0032 667.462 -28.8271C665.926 -29.4572 666.192 -31.8933 664.732 -32.1873C663.651 -32.4183 662.475 -30.8012 661.451 -30.6332C660.472 -30.6425 659.496 -30.7337 658.53 -30.9062C656.42 -30.5049 654.345 -29.9006 652.329 -29.1002C650.019 -28.7261 647.685 -28.5505 645.35 -28.5751C642.221 -28.2181 638.865 -26.055 635.869 -26.475C634.238 -26.706 632.948 -28.5751 631.393 -29.0582C630.293 -29.3102 629.098 -29.0582 627.904 -29.3102C626.709 -29.5622 625.723 -30.3182 624.623 -30.5912C621.722 -31.3263 618.289 -30.5912 615.312 -31.1163C614.041 -31.3263 613.055 -32.3973 611.633 -32.6703C610.211 -32.9433 608.637 -32.3763 607.176 -32.6703C606.228 -32.8593 605.394 -33.6994 604.464 -33.9514C603.137 -34.2244 601.885 -33.9514 600.672 -34.2244C599.458 -34.4974 598.51 -35.9045 597.182 -35.9045C595.383 -35.6595 593.622 -35.1437 591.948 -34.3714C590.064 -34.0601 588.164 -33.8848 586.259 -33.8464C583.87 -33.5104 581.31 -32.1873 578.674 -31.7463C576.115 -31.3114 573.633 -30.44 571.316 -29.1632C568.995 -27.8775 566.505 -27.0057 563.939 -26.58C561.644 -26.139 558.61 -26.58 556.96 -23.4929C557.377 -21.3928 558.743 -19.1457 558.136 -16.5205C556.865 -12.8243 553.945 -16.1215 551.726 -16.2685C549.149 -16.0987 546.602 -15.5768 544.141 -14.7144C541.637 -14.0214 538.319 -13.1604 538.451 -10.3252C538.679 -5.64198 547.061 -9.33817 549.109 -7.23806C549.431 -3.70989 545.62 -4.38192 542.908 -3.8779C541.637 -3.64689 540.405 -2.40783 539.419 -2.32382C538.506 -2.43634 537.6 -2.61168 536.707 -2.84885C534.81 -2.68084 533.236 -1.04276 530.695 -0.0137049C529.064 0.616327 525.12 2.0864 525.006 3.59847C524.816 5.84559 529.102 7.58867 531.397 9.01675C533.748 10.6955 536.302 11.9965 538.982 12.8809C542.741 13.6017 546.577 13.6937 550.361 13.154C551.441 12.8007 552.544 12.5409 553.66 12.3769C555.557 12.5869 555.557 14.477 557.15 14.687C559.046 14.855 559.918 13.154 561.796 12.5869C563.673 12.0199 566.101 12.3769 567.997 11.2849C569.893 10.1928 570.69 8.0927 572.074 7.94569C574.312 7.69368 575.469 10.7178 577.896 11.2849C581.841 12.2299 584.932 10.9488 587.776 12.8389C590.014 14.288 591.19 18.8242 592.233 20.5883C592.764 21.3654 591 23.2975 590.867 24.4525C590.867 25.2506 591.266 26.5526 591.266 27.5397C591.133 30.2488 589.369 31.9079 590.867 33.483C592.366 35.0581 594.66 31.2359 595.912 33.735C597.163 36.2341 594.679 37.1372 594.376 39.4053C593.996 42.0724 594.945 44.6555 594.945 47.1547C594.908 48.7201 594.718 50.2764 594.376 51.7959C593.788 53.602 591.835 53.56 591.645 55.4081C591.342 58.3482 594.888 60.4063 595.134 62.8844C594.96 65.1176 594.434 67.2997 593.579 69.3318C592.153 73.3005 590.239 77.032 587.89 80.4203C585.804 83.7385 582.713 86.8466 581.291 90.2278C580.532 92.0549 580.437 94.176 579.755 95.8981C578.769 98.4602 577.024 99.6993 576.076 102.198C575.81 105.545 575.81 108.911 576.076 112.258C576.265 115.555 576.076 118.957 576.265 122.044C576.379 124.342 576.781 126.611 577.46 128.786C578.294 130.613 579.641 130.109 581.253 131.348C582.899 132.646 584.176 134.438 584.932 136.514C585.197 138.995 585.33 141.492 585.33 143.991C585.384 146.593 585.637 149.185 586.089 151.74C586.657 153.84 589.218 156.171 589.199 158.439C589.18 160.707 586.866 161.001 586.866 163.353C586.866 167.092 592.404 167.176 593.067 170.83C593.409 172.678 592.328 174.337 592.688 176.248C593.048 178.159 595.343 179.65 595.988 180.448C597.125 181.876 597.77 184.313 599.667 183.808C601.032 181.33 598.681 179.608 597.922 177.508C597.163 175.408 597.201 171.502 596.367 167.974C595.855 165.727 594.357 164.088 593.845 162.03C593.333 159.972 593.503 157.83 592.878 156.108C592.252 154.386 590.526 152.118 590.355 150.417C589.786 144.243 594.66 142.142 596.045 146.805C596.86 149.619 595.684 152.181 596.045 155.079C596.329 157.431 598.567 159.678 599.724 161.778C600.74 163.974 601.907 166.08 603.213 168.079C603.308 169.28 603.308 170.489 603.213 171.691C604.806 174.169 606.664 176.458 608.257 179.167C610.381 182.842 613.795 187.211 613.283 193.343C613.131 195.296 611.747 196.934 611.747 199.034C612.165 201.115 613.267 202.949 614.838 204.18C616.116 205.568 617.478 206.859 618.915 208.044C619.787 208.59 621.342 208.716 622.404 209.346C623.789 210.165 624.889 212.139 626.481 213.21C628.378 214.554 631.147 215.415 633.441 216.822C635.736 218.229 638.789 220.182 640.629 220.182C642.468 220.182 644.421 217.599 646.431 217.599C651.191 217.347 653.315 225.559 657.108 228.1C658.219 228.615 659.385 228.968 660.578 229.15C661.52 229.49 662.434 229.918 663.309 230.431C665.357 231.355 667.861 231.271 669.51 232.237C671.976 233.686 673.777 239.86 675.901 241.519C675.803 243.237 675.866 244.961 676.091 246.665C677.096 248.492 678.518 248.072 680.168 249.248C682.064 250.676 682.728 254.33 684.625 255.548C685.269 255.926 686.9 255.905 687.924 256.325C690.56 257.438 691.414 261.407 693.613 260.525C695.055 259.979 694.941 257.984 695.168 256.157C696.117 254.771 697.179 252.545 698.658 252.545C701.066 252.545 701.275 255.884 702.147 258.992C702.94 260.67 703.649 262.395 704.271 264.159C704.767 269.048 704.704 273.987 704.081 278.859C703.418 281.211 701.104 282.177 699.625 284.782C698.942 286 698.601 287.785 698.07 288.646C697.141 290.179 695.68 290.578 694.979 292.006C694.581 292.804 694.201 294.547 693.822 295.618C692.646 298.873 691.091 301.225 692.077 305.174C692.495 306.791 694.391 307.589 694.391 309.815C694.391 312.041 690.864 314.015 690.598 316.514C690.39 318.32 691.717 321.596 692.153 323.99C692.476 325.86 695.036 326.973 695.832 328.191C697.199 330.595 698.428 333.092 699.511 335.667C701.957 340.686 703.892 346.777 706.3 351.649C707.744 354.024 709.012 356.524 710.093 359.125C710.529 360.532 710.472 362.128 710.87 363.325C712.255 367.421 718.456 371.726 721.528 373.826C723.007 374.813 724.638 375.149 725.985 376.157C728.863 378.457 731.305 381.361 733.172 384.705C734.144 388.226 734.779 391.851 735.068 395.52C735.349 399.818 735.413 404.13 735.258 408.436C735.353 411.082 736.035 413.77 736.035 416.416C736.035 417.34 735.656 418.054 735.656 418.999C735.561 422.212 736.244 425.825 736.035 429.059C735.805 430.593 735.678 432.145 735.656 433.7C735.656 435.296 736.301 436.577 736.415 438.089C736.529 439.601 736.13 441.554 736.225 442.73C736.491 445.986 738.273 448.527 738.747 451.509C739.186 454.839 739.313 458.21 739.127 461.568C739.013 463.059 738.33 464.571 738.159 466.21C738.027 467.491 738.292 468.856 738.159 470.074C737.723 471.675 737.4 473.311 737.192 474.967C737.363 478.474 740.264 481.267 740.682 484.774C740.675 485.981 740.612 487.187 740.492 488.387C740.735 490.399 741.122 492.386 741.649 494.33C742.085 497.228 741.649 501.344 743.981 502.73C746.409 501.743 743.526 498.131 744.948 496.43C747.66 497.543 746.845 503.549 747.66 507.267C746.466 508.191 745.176 506.406 744.569 508.044C743.962 509.682 745.536 511.173 745.536 512.244C745.536 514.134 744.493 516.339 744.759 517.662C745.1 519.762 748.04 519.321 748.552 521.274C749.064 523.227 747.565 524.593 747.584 526.693C747.603 528.793 749.651 532.615 751.263 535.471C752.022 536.71 753.16 537.571 753.786 538.81C754.411 540.049 754.772 541.414 755.341 542.674C756.004 543.619 757.616 544.102 758.64 545.006C760.328 546.518 762.206 550.298 763.874 551.453C764.595 551.957 765.657 552.188 766.586 552.755C767.838 553.49 769.127 554.855 770.265 555.317C773.489 556.892 776.599 557.921 779.178 559.517H781.89C782.353 559.304 782.849 559.193 783.35 559.193C783.851 559.193 784.348 559.304 784.81 559.517H785.19C786.783 558.908 788.319 558.257 788.679 556.157C787.503 552.545 783.464 553.007 780.733 551.012C778.84 549.232 777.203 547.143 775.878 544.817C774.532 542.716 771.82 540.049 771.82 537.592C771.82 535.492 773.394 535.03 773.717 533.203C773.963 531.943 773.299 531.481 773.717 529.843C774.494 526.819 776.637 526.777 776.637 523.668C776.466 518.523 769.051 520.686 768.881 515.415C768.767 511.866 772.674 512.013 773.148 508.695C773.375 507.162 772.749 506.595 772.749 504.053C773.186 501.533 775.272 501.197 775.651 498.635C774.93 496.808 773.072 498.047 771.858 497.081C771.25 496.475 770.789 495.709 770.517 494.854C770.246 493.999 770.172 493.082 770.303 492.188C772.332 491.054 776.22 494.939 777.68 491.159C778.401 489.479 776.865 484.964 777.87 483.178C778.552 481.96 782.25 481.939 783.673 481.603C785.676 481.33 787.61 480.616 789.362 479.503C790.299 478.559 791.043 477.403 791.544 476.113C792.044 474.824 792.29 473.43 792.263 472.027C792.168 470.515 791.391 469.927 790.518 468.667C789.93 467.511 789.417 466.311 788.982 465.076C788.148 463.185 786.65 463.458 786.252 460.875C789.039 460.161 793.287 463.92 797.308 462.429C799.204 461.715 801.84 456.297 802.731 453.924C803.016 453.168 802.978 452.055 803.319 451.068C803.66 450.081 804.362 449.283 804.476 448.758C804.779 447.351 804.628 446.301 804.874 445.398C805.576 442.793 807.377 441.932 808.553 439.979C809.425 438.53 809.843 436.808 810.677 435.338C811.531 433.926 812.31 432.461 813.01 430.949C813.578 426.245 811.606 423.031 812.422 418.831C813.351 414.19 818.111 411.397 821.543 409.297C822.7 408.562 823.895 407.407 824.843 406.966C827.176 405.874 830.058 406.462 832.201 405.412C835.823 403.647 836.221 398.481 838.023 394.071C838.917 392.273 839.63 390.372 840.147 388.401C840.299 386.973 839.787 385.755 839.957 384.2C840.128 382.646 841.19 381.26 841.512 379.538C841.91 376.901 842.1 374.231 842.081 371.558C842.081 369.458 841.323 367.715 841.323 365.867C841.057 359.188 843.105 358.432 845.002 354.778C845.874 352.972 846.234 350.914 846.898 349.633C850.122 343.395 855.527 340.371 855.128 331.005ZM731.446 85.2926C733.343 85.0615 735.884 84.7675 736.699 85.8176C736.054 89.2197 730.555 88.3377 728.545 87.0987C728.678 85.9016 730.195 85.4816 731.446 85.3136V85.2926ZM801.043 -17.0036C801.176 -15.7015 800.645 -15.3025 799.697 -15.4495C798.938 -16.8355 800.19 -17.8856 801.043 -17.0036ZM776.239 -40.7347C776.391 -40.8989 776.595 -40.9908 776.808 -40.9908C777.02 -40.9908 777.224 -40.8989 777.377 -40.7347C777.377 -40.7347 777.377 -40.7347 777.377 -40.6297C777.353 -40.4263 777.273 -40.2358 777.149 -40.0837C777.149 -40.0536 777.14 -40.0244 777.123 -40.0013C777.105 -39.9782 777.081 -39.9627 777.054 -39.9577C777.025 -39.8991 776.978 -39.8543 776.921 -39.8317C776.873 -39.8106 776.819 -39.8106 776.77 -39.8317C776.608 -39.7864 776.438 -39.7864 776.277 -39.8317L776.239 -40.7347ZM709.164 80.3153C706.281 82.8826 704.405 86.5848 703.93 90.6478C703.683 92.0339 700.971 95.6461 699.663 95.2891C696.591 94.428 700.402 87.0356 701.218 85.7546C702.033 84.4735 703.114 83.3395 703.93 81.8694C704.571 80.3817 705.353 78.9737 706.262 77.6692C707.495 76.5141 711.951 75.107 712.653 76.3671C712.293 79.0342 710.738 78.8872 709.164 80.3153ZM717.091 96.1501C715.611 96.7591 713.07 97.4732 712.824 95.3731C712.52 92.6849 714.967 93.273 716.313 93.063C718.589 92.6429 721.149 90.4588 723.899 91.7609C721.963 93.782 719.634 95.2837 717.091 96.1501ZM720.22 75.002C721.13 75.002 722.268 76.4511 723.311 76.5561C724.354 76.6611 725.207 75.8001 725.833 76.0311C726.08 76.1817 726.309 76.3651 726.516 76.5771C726.811 76.89 727.048 77.2643 727.212 77.6786C727.377 78.0928 727.466 78.539 727.475 78.9915C727.484 79.444 727.412 79.894 727.264 80.3157C727.115 80.7374 726.893 81.1227 726.61 81.4494C725.34 81.6594 724.847 80.7143 723.88 80.9243C721.168 81.5334 720.087 88.3587 718.191 88.1487C716.294 87.9387 715.308 81.9534 717.204 80.1473C717.204 78.5932 716.427 78.3412 716.427 76.8081C716.868 76.1748 717.448 75.6765 718.112 75.3605C718.775 75.0445 719.501 74.9211 720.22 75.002ZM712.843 62.6114C714.606 63.2205 719.158 70.0668 715.365 72.1669C713.198 72.6502 710.995 72.9033 708.784 72.9229C707.438 72.6289 706.642 70.1508 705.276 69.8358C702.602 69.2058 699.037 74.036 697.141 70.1088C697.615 67.7987 699.549 67.7357 701.597 67.0006C705.257 65.6776 709.714 61.5194 712.843 62.6114ZM695.984 -24.2279C699.208 -23.7659 702.754 -24.7739 704.897 -23.4509C705.371 -22.1698 704.385 -21.3508 703.74 -20.8677C699.947 -24.4799 694.543 -18.7676 690.94 -22.5898C691.205 -28.1131 694.201 -27.5041 695.984 -24.2279ZM688.398 39.9933C692.039 38.8802 690.56 47.3857 688.398 47.4907C685.402 47.5537 685.99 40.6653 688.417 39.9933H688.398ZM669.036 5.69858C667.14 6.53862 664.485 8.28171 661.451 7.58868C661.621 5.67758 664.125 5.21556 665.528 4.22851C666.931 3.24146 667.614 1.64538 669.017 1.64538C670.022 1.64538 671.028 3.01045 671.919 3.9765C671.672 5.44657 670.136 5.19455 669.036 5.69858ZM661.09 -15.7015C664.542 -16.1215 670.44 -19.5867 671.369 -13.8954C670.572 -12.4043 669.302 -13.1604 668.069 -12.8663C665.054 -12.2153 661.83 -9.65319 659.194 -10.4722C659.507 -12.3372 660.152 -14.1147 661.09 -15.7015ZM595.95 24.9985C595.865 25.1295 595.755 25.2373 595.627 25.3136C595.534 25.3782 595.427 25.4137 595.317 25.4163C595.207 25.4188 595.099 25.3882 595.004 25.3279C594.908 25.2675 594.829 25.1796 594.776 25.0735C594.722 24.9674 594.695 24.8471 594.698 24.7255C594.655 24.568 594.655 24.4 594.698 24.2425C594.698 24.2425 595.362 24.0115 595.779 24.0115C595.767 24.1161 595.767 24.2219 595.779 24.3265C595.819 24.4282 595.851 24.5336 595.874 24.6415C595.874 24.6415 595.874 24.7465 595.874 24.8095C595.902 24.8295 595.924 24.858 595.937 24.8915C595.951 24.9251 595.955 24.9623 595.95 24.9985ZM601.392 62.4014C599.894 62.7794 599.496 60.5113 599.648 59.5663C600.994 58.4742 602.303 61.1204 601.392 62.3594V62.4014ZM677.949 240.91C677.798 240.923 677.646 240.887 677.513 240.805C677.463 240.817 677.411 240.817 677.361 240.805C677.259 240.756 677.178 240.666 677.134 240.553C677.078 240.467 677.045 240.365 677.039 240.259C677.001 240.144 677.001 240.018 677.039 239.902C677.028 239.833 677.028 239.762 677.039 239.692V239.524C677.087 239.421 677.151 239.329 677.229 239.251C677.513 238.936 677.93 238.936 678.196 239.797C678.196 239.797 678.196 239.923 678.196 239.986C678.158 240.28 678.158 240.553 677.949 240.931V240.91ZM726.231 250.718C724.771 251.033 724.05 247.715 725.454 246.917C727.312 245.72 727.748 250.403 726.231 250.739V250.718Z" fill="black"/>
<path d="M595.76 23.9275C595.76 24.3895 596.007 24.4735 595.95 24.9565C595.893 25.4396 594.888 25.4396 594.603 24.7045C594.319 23.9695 595.229 23.9275 595.76 23.9275Z" fill="black"/>
<path d="M589.957 39.1536C589.749 39.8748 589.395 40.5336 588.922 41.0797C588.449 41.6258 587.869 42.0445 587.226 42.3038C586.868 41.9113 586.545 41.4824 586.259 41.0227C586.354 38.5026 589.028 36.6965 589.957 39.1536Z" fill="black"/>
</g>
<g opacity="0.9">
<path d="M1081.88 314.367C1082.1 312.411 1082.98 310.557 1084.4 309.037C1086.18 307.638 1088.61 307.788 1090.41 306.788C1092.23 305.85 1093.81 304.597 1095.06 303.107C1095.98 301.824 1096.04 300.375 1096.8 299.425C1097.33 298.759 1098.51 298.592 1099.13 297.759C1099.76 296.926 1099.57 295.694 1100.48 294.894C1103.17 293.678 1103.95 298.875 1104.37 302.457C1104.48 303.573 1105.03 304.772 1104.94 305.322C1104.67 306.988 1103.04 307.288 1102.43 308.404C1102.09 312.556 1100.98 316.63 1099.13 320.464C1097.84 323.646 1097.08 327.127 1096.02 329.876C1095.64 330.876 1094.83 331.658 1094.49 332.525C1093.08 336.023 1092.59 341.487 1090.01 342.969C1088.3 343.701 1086.47 344.185 1084.59 344.402C1083.36 344.281 1082.21 343.82 1081.31 343.086C1080.4 342.352 1079.78 341.383 1079.54 340.321C1079.22 339.155 1079.54 337.939 1079.35 336.623C1078.8 335.031 1078.48 333.386 1078.39 331.725C1078.82 327.561 1082.65 325.528 1082.84 322.097C1082.99 319.615 1081.67 316.983 1081.88 314.367Z" fill="#3D4961"/>
<path d="M1108.99 199.361C1107.1 198.761 1105.68 200.843 1103.17 201.193C1100.67 201.543 1098.3 201.36 1096.4 201.809C1095.19 202.076 1094.32 203.042 1093.29 203.242C1092.63 203.375 1091.76 203.125 1090.96 203.242C1089.48 203.492 1088.19 204.575 1087.17 204.475C1084.66 204.225 1083.22 201.226 1081.72 199.56C1081.95 198.344 1082.84 197.895 1082.5 196.495C1082.26 195.413 1080.83 195.229 1079.79 194.247C1078.13 192.233 1076.32 190.319 1074.37 188.516C1072 186.75 1068.68 185.618 1067.58 182.986C1066.84 181.203 1066.82 178.538 1065.68 176.639C1064.3 174.34 1060.96 173.008 1060.26 170.509C1059.56 168.01 1060.26 166.261 1059.67 163.762C1058.91 160.014 1055.08 159.032 1053.87 155.783C1053.52 154.884 1053.58 153.768 1053.28 152.918C1052.26 150.652 1051.03 148.463 1049.6 146.371C1049.46 146.151 1049.33 145.922 1049.22 145.688L1044.86 147.687L1032.02 126.032C1031.59 126.26 1031.13 126.418 1030.64 126.498C1027.45 126.982 1024.15 124.083 1020.36 123.65C1019.5 123.533 1018.76 123.916 1017.85 123.65C1016.94 123.383 1016.26 122.301 1015.33 121.984C1013.72 121.368 1012.47 121.768 1011.06 121.368C1009.17 117.82 999.478 117.586 998.663 122.817C998.283 125.116 999.763 128.347 996.52 128.747C994.453 128.997 992.367 126.515 989.541 125.882C988.384 125.616 986.753 125.882 985.862 125.466C983.738 124.699 984.079 122.517 982.183 121.168C980.564 120.15 978.714 119.451 976.759 119.119C975.716 119.002 974.749 119.452 973.649 119.319C972.094 118.983 970.639 118.358 969.383 117.486C968.34 116.803 966.159 115.821 965.893 114.821C965.476 113.322 968.51 111.606 968.605 110.323C968.605 109.357 967.467 108.741 967.259 107.258C967.126 106.359 967.6 105.409 967.448 104.81C967.18 104.175 966.708 103.623 966.088 103.22C965.468 102.818 964.728 102.583 963.959 102.544C962.574 102.544 961.266 103.777 960.166 103.777C958.478 103.777 955.691 102.777 953.586 102.961C952.296 103.061 951.101 103.877 949.907 103.977C946.512 104.26 943.781 103.827 941.183 103.977C938.762 104.161 936.399 104.725 934.205 105.643C933.37 106.009 932.65 107.075 931.474 107.675C931 107.958 930.279 107.975 929.577 108.291C928.478 108.824 927.34 110.057 926.297 110.34C924.78 110.757 922.504 110.024 919.697 110.14C918.643 110.212 917.581 110.145 916.549 109.94L910.86 112.023C910.652 112.389 910.424 112.756 910.177 113.105C908.49 115.821 906.214 115.954 903.787 117.403C901.758 118.603 900.904 120.618 899.709 122.717C898.239 124.793 897.686 127.27 898.154 129.68C896.639 132.965 893.815 135.653 890.209 137.243C888.991 137.611 887.822 138.091 886.719 138.675C885.961 139.258 885.506 140.841 884.406 142.157C883.04 143.823 881.618 144.406 880.916 145.638C880.366 146.588 880.158 148.454 879.551 149.72C878.735 151.386 876.953 152.352 875.872 154.017C875.36 154.834 875.075 156.45 874.507 157.499C873.312 159.848 871.188 161.647 871.415 163.646C871.643 165.645 873.786 165.978 873.938 167.727C873.938 168.726 873.35 169.393 873.35 170.392C873.659 171.703 874.046 172.998 874.507 174.274C874.848 177.289 873.501 178.538 872.952 180.62C872.705 181.62 872.819 182.703 872.572 183.486C872.098 185.001 870.05 186.384 870.05 188.183C870.05 189.466 871.302 190.482 871.415 192.281C871.415 193.514 870.809 194.83 871.017 195.962C871.434 198.195 875.189 200.843 876.839 202.509C879.058 204.824 881.902 206.624 882.851 209.056C883.647 211.121 883.647 213.836 885.183 215.402C886.302 216.552 888.293 217.285 889.64 218.467C890.986 219.65 892.446 220.616 893.907 221.799C896.258 223.748 899.804 227.629 903.597 227.329C905.493 227.18 907.56 225.497 909.798 225.081C912.287 224.598 914.847 224.463 917.384 224.681C919.166 224.864 920.854 225.98 922.807 225.897C924.761 225.814 926.998 224.231 929.217 223.232C933.01 221.416 938.813 219.034 944.388 219.9C948.655 220.55 948.427 225.714 951.329 227.912C954.761 228.212 957.549 226.58 960.242 227.296C962.29 227.812 964.717 231.144 964.907 232.81C964.793 234.691 964.397 236.55 963.731 238.34C963.2 240.639 963.181 243.504 962.764 245.004C962.461 246.186 961.607 246.919 961.607 248.085C962.007 249.905 962.799 251.641 963.94 253.199C965.211 254.865 967.24 256.231 968.776 258.113C971.62 261.528 972.891 265.66 974.787 270.174C975.827 272.048 976.548 274.046 976.93 276.104C976.93 277.387 976.228 278.503 976.342 279.786C976.57 282.534 978.239 283.717 978.466 286.132C979.111 291.829 974.218 293.528 973.232 298.209C973.043 299.375 973.232 300.525 973.043 301.541C972.72 303.04 971.696 304.19 971.487 305.622C971.191 307.521 971.064 309.437 971.108 311.352C971.298 313.535 973.441 315.417 974.598 317.483C975.754 319.548 976.722 323.013 978.087 325.662C978.913 326.931 979.635 328.251 980.249 329.61C980.647 331.159 980.249 333.258 980.438 335.123C980.609 336.656 981.406 337.989 981.595 339.221C982.221 342.986 982.335 346.717 984.117 349.866C985.009 351.432 986.659 352.564 987.796 354.363C988.934 356.163 989.332 358.645 990.508 361.027C991.684 363.409 993.201 365.241 993.22 366.357C993.239 367.473 992.253 368.623 992.253 369.839C992.386 372.987 995.572 376.169 998.075 376.169C999.213 376.169 1000.35 375.153 1001.56 374.936C1002.28 374.82 1002.99 375.069 1003.69 374.936C1004.9 374.736 1005.89 373.853 1006.8 373.72C1009.28 373.337 1011.8 374.103 1014.16 373.92C1018.29 373.457 1022.2 371.966 1025.4 369.622C1028.45 367.336 1031.24 364.804 1033.75 362.059C1035.41 360.144 1036.23 357.528 1037.8 355.713C1039.07 354.28 1041.03 353.497 1041.88 351.831C1042.74 349.91 1043.38 347.918 1043.78 345.885C1043.87 344.602 1043.15 343.686 1043.4 342.553C1044.19 338.805 1051.29 339.538 1052.69 336.006C1054 332.675 1053.26 328.394 1052.5 325.362C1051.93 324.048 1051.54 322.677 1051.34 321.281C1051.63 319.232 1054.76 317.366 1057.03 315.35C1058.42 314.118 1059.56 312.302 1060.83 311.253C1062.72 309.837 1065.51 309.42 1067.41 308.171C1069.62 306.474 1071.41 304.385 1072.64 302.041C1073.47 299.992 1072.64 298.343 1072.45 296.11C1072.13 292.612 1072.7 288.581 1072.45 284.45C1070.55 282.601 1069.74 279.452 1068.66 276.67C1069.19 274.591 1069.25 272.441 1068.85 270.34C1068.49 269.024 1067.44 268.242 1067.29 267.009C1066.91 263.761 1069.19 262.195 1070.19 259.846C1070.84 258.032 1071.62 256.257 1072.53 254.532C1073.57 253.066 1075.52 252.333 1076.79 250.851C1077.67 249.801 1078.08 248.385 1078.92 247.169C1081.26 243.825 1084.13 240.791 1087.45 238.157C1089.03 236.958 1090.71 236.291 1092.12 235.092C1093.48 233.802 1094.75 232.433 1095.91 230.994C1098.64 228.209 1100.92 225.11 1102.7 221.782C1103.15 220.683 1103.08 219.45 1103.48 218.451C1104.73 215.119 1107.46 212.487 1108.52 208.839C1108.69 208.256 1108.69 207.373 1108.9 206.59C1109.56 204.358 1110.99 201.659 1108.99 199.361Z" fill="#29354D"/>
</g>
<ellipse cx="1009" cy="130.398" rx="3" ry="2.63523" fill="#84776C"/>
<ellipse cx="922" cy="187.495" rx="3" ry="2.63523" fill="#84776C"/>
<ellipse cx="1026" cy="278.85" rx="3" ry="2.63523" fill="#84776C"/>
<ellipse cx="1048" cy="23.2324" rx="3" ry="2.63523" fill="#1F2B43"/>
<ellipse cx="1009" cy="130.398" rx="1" ry="0.878411" fill="#C4C4C4"/>
<ellipse cx="922" cy="187.495" rx="1" ry="0.878411" fill="#C4C4C4"/>
<ellipse cx="1026" cy="278.85" rx="1" ry="0.878411" fill="#C4C4C4"/>
<ellipse cx="1048" cy="23.2322" rx="1" ry="0.878411" fill="#C4C4C4"/>
<path d="M1017.92 299.575C988.221 323.363 940.008 319.403 910.241 290.727C880.474 262.052 880.415 219.511 910.114 195.722C912.89 193.495 915.877 191.479 919.043 189.697" stroke="#84776C" stroke-miterlimit="10" stroke-dasharray="2 2"/>
<path d="M1026.59 298.429C1026.95 298.206 1027.21 297.872 1027.3 297.497C1027.39 297.121 1027.31 296.733 1027.08 296.414V296.414C1026.8 296.029 1026.36 295.757 1025.85 295.654C1025.34 295.551 1024.8 295.624 1024.34 295.859L1016.56 299.897L1016.42 300.013L1010.56 298.124L1011.7 297.385C1011.86 297.276 1011.98 297.12 1012.04 296.944C1012.09 296.769 1012.07 296.584 1011.98 296.423C1011.93 296.335 1011.85 296.258 1011.76 296.197C1011.67 296.137 1011.56 296.094 1011.45 296.072C1011.34 296.049 1011.22 296.047 1011.11 296.067C1010.99 296.086 1010.89 296.126 1010.79 296.184L1008.61 297.5L1004.21 296.072L1005.79 295.051C1005.96 294.939 1006.07 294.778 1006.11 294.6C1006.15 294.421 1006.11 294.237 1006 294.086V294.086C1006.02 294.003 1006.01 293.917 1005.98 293.839C1005.94 293.761 1005.88 293.695 1005.8 293.648C1005.72 293.601 1005.63 293.576 1005.53 293.576C1005.43 293.576 1005.34 293.6 1005.25 293.647L1002.24 295.47L999.308 294.531C998.769 294.358 998.189 294.294 997.612 294.342C997.035 294.39 996.474 294.549 995.97 294.808L995.175 295.206L1003.25 299.691C1003.25 299.691 1008.49 302.515 1007.93 305.274L999.623 310.469L999.524 310.549L993.309 308.567L991.133 309.521L996.056 313.192L995.211 313.868C995.2 313.884 995.196 313.902 995.198 313.92C995.199 313.938 995.208 313.955 995.222 313.969C995.236 313.982 995.254 313.991 995.274 313.994C995.294 313.997 995.316 313.995 995.334 313.987L996.539 313.634L998.11 319.315L1000.31 317.945L1000.6 312.402L1000.83 312.338L1008.94 308.245C1010.18 307.975 1012.18 307.877 1012.8 309.766C1013.69 312.579 1014.59 322.452 1014.59 322.452L1015.77 321.506C1016.55 320.899 1017.05 320.063 1017.17 319.163L1017.49 316.583L1019.93 315.012C1020.09 314.903 1020.21 314.747 1020.27 314.571C1020.32 314.395 1020.3 314.211 1020.21 314.049C1020.16 313.961 1020.08 313.884 1019.99 313.824C1019.9 313.763 1019.79 313.72 1019.68 313.698C1019.57 313.675 1019.45 313.674 1019.34 313.693C1019.22 313.713 1019.12 313.752 1019.02 313.81L1017.75 314.578L1018.22 310.786L1020.67 309.214C1020.83 309.105 1020.95 308.949 1021 308.773C1021.05 308.598 1021.04 308.413 1020.95 308.252C1020.89 308.164 1020.82 308.087 1020.73 308.026C1020.64 307.966 1020.53 307.923 1020.42 307.9C1020.31 307.878 1020.19 307.876 1020.08 307.896C1019.96 307.915 1019.85 307.955 1019.76 308.013L1018.49 308.781L1019.21 303.016L1026.59 298.429Z" fill="#F06900"/>
<path d="M999.16 216.668C1004.49 220.929 1009.19 225.76 1013.16 231.049C1023.94 245.38 1028.33 261.285 1026.54 274.869" stroke="#84776C" stroke-miterlimit="10" stroke-dasharray="2 2"/>
<path d="M989.743 204.687C989.397 204.377 988.929 204.196 988.434 204.181C987.94 204.167 987.459 204.321 987.091 204.61C986.645 204.959 986.369 205.446 986.319 205.968C986.27 206.491 986.451 207.011 986.825 207.42L993.297 214.265L993.446 214.396L992.027 220.535L990.889 219.563C990.722 219.422 990.504 219.336 990.273 219.32C990.042 219.304 989.812 219.36 989.622 219.477C989.518 219.547 989.433 219.635 989.371 219.736C989.309 219.837 989.272 219.949 989.262 220.063C989.252 220.178 989.27 220.293 989.315 220.401C989.359 220.509 989.429 220.607 989.519 220.69L991.56 222.566L990.499 227.185L988.926 225.817C988.756 225.67 988.529 225.585 988.291 225.58C988.053 225.574 987.821 225.648 987.643 225.787V225.787C987.53 225.78 987.417 225.803 987.319 225.854C987.221 225.904 987.143 225.98 987.095 226.07C987.047 226.16 987.032 226.261 987.051 226.36C987.069 226.458 987.122 226.549 987.201 226.62L990.037 229.232L989.329 232.27C989.192 232.832 989.2 233.413 989.351 233.972C989.503 234.531 989.795 235.053 990.205 235.5L990.863 236.22L995.193 227.395C995.193 227.395 997.891 221.692 1001.52 221.674L1009.54 228.845L1009.65 228.929L1008.19 235.43L1009.74 237.38L1013.57 231.829L1014.55 232.526C1014.56 232.536 1014.57 232.545 1014.59 232.55C1014.6 232.556 1014.61 232.56 1014.63 232.561C1014.64 232.562 1014.66 232.561 1014.67 232.557C1014.69 232.553 1014.7 232.547 1014.71 232.539C1014.72 232.53 1014.73 232.52 1014.74 232.509C1014.75 232.497 1014.75 232.485 1014.75 232.472C1014.75 232.459 1014.75 232.446 1014.75 232.434C1014.74 232.422 1014.73 232.41 1014.73 232.4L1014.06 231.292L1021.02 228.635L1018.93 226.753L1011.84 227.568L1011.71 227.351L1005.13 220.177C1004.58 219.011 1004.08 217.046 1006.41 216.08C1009.84 214.667 1022.25 211.862 1022.25 211.862L1020.86 210.862C1019.95 210.218 1018.81 209.894 1017.64 209.955L1014.31 210.138L1011.89 208.052C1011.73 207.909 1011.51 207.822 1011.27 207.806C1011.04 207.791 1010.81 207.848 1010.62 207.967C1010.51 208.038 1010.43 208.127 1010.37 208.228C1010.31 208.329 1010.27 208.44 1010.26 208.555C1010.25 208.669 1010.27 208.783 1010.32 208.891C1010.36 208.998 1010.43 209.096 1010.52 209.179L1011.72 210.283L1006.81 210.551L1004.4 208.456C1004.23 208.313 1004.01 208.226 1003.78 208.211C1003.54 208.195 1003.31 208.252 1003.12 208.371C1002.92 208.523 1002.81 208.736 1002.79 208.964C1002.77 209.193 1002.85 209.418 1003.02 209.593L1004.21 210.698L996.766 211.101L989.743 204.687Z" fill="#F06900"/>
<path d="M1051.14 24.6718C1059.49 29.0924 1066.57 35.4401 1071.61 43.0284C1090.57 71.878 1074.18 111.372 1035 131.242C1012.53 142.639 987.442 145.101 966.554 139.692" stroke="#84776C" stroke-miterlimit="10" stroke-dasharray="2 2"/>
<path d="M935.53 134.709C935.039 134.661 934.546 134.782 934.153 135.045C933.761 135.308 933.499 135.694 933.422 136.123V136.123C933.334 136.641 933.477 137.169 933.821 137.597C934.165 138.025 934.683 138.321 935.268 138.422L945.226 140.097L945.433 140.114L948.785 145.635L947.213 145.51C946.979 145.491 946.745 145.546 946.552 145.664C946.36 145.782 946.221 145.956 946.159 146.156C946.132 146.27 946.132 146.388 946.16 146.503C946.188 146.617 946.244 146.725 946.323 146.819C946.403 146.913 946.504 146.991 946.62 147.048C946.736 147.105 946.865 147.14 946.998 147.15L949.932 147.468L952.451 151.617L950.248 151.446C950.011 151.425 949.773 151.486 949.585 151.616C949.397 151.745 949.273 151.933 949.239 152.14V152.14C949.149 152.198 949.081 152.279 949.043 152.371C949.006 152.463 949 152.564 949.028 152.658C949.056 152.753 949.115 152.839 949.198 152.904C949.282 152.969 949.385 153.011 949.496 153.024L953.567 153.455L955.23 156.161C955.538 156.667 955.968 157.107 956.491 157.45C957.014 157.793 957.616 158.031 958.255 158.147L959.285 158.325L956.235 149.099C956.235 149.099 954.196 143.186 956.977 141.146L968.358 142.211L968.506 142.207L972.076 148.044L974.708 148.657L973.646 142.227L974.932 142.234C974.946 142.236 974.961 142.236 974.975 142.233C974.989 142.23 975.002 142.225 975.014 142.217C975.026 142.21 975.036 142.201 975.044 142.19C975.051 142.179 975.056 142.167 975.059 142.154C975.061 142.142 975.061 142.129 975.057 142.117C975.054 142.104 975.048 142.093 975.04 142.082C975.031 142.072 975.021 142.063 975.008 142.056C974.996 142.05 974.982 142.045 974.968 142.043L973.658 141.561L977.105 135.614L974.124 135.33L969.241 139.917L968.997 139.827L958.707 137.946C957.431 137.356 955.629 136.109 956.727 134.071C958.349 131.058 965.876 121.956 965.876 121.956L964.089 121.96C962.92 121.962 961.795 122.355 960.943 123.058L958.503 125.056L955.121 124.794C954.888 124.779 954.657 124.835 954.468 124.954C954.278 125.072 954.141 125.245 954.081 125.443C954.052 125.555 954.05 125.671 954.076 125.784C954.101 125.896 954.154 126.003 954.229 126.097C954.305 126.19 954.403 126.269 954.515 126.327C954.628 126.386 954.753 126.423 954.883 126.435L956.578 126.59L952.994 129.534L949.611 129.271C949.379 129.256 949.148 129.313 948.958 129.431C948.768 129.55 948.632 129.723 948.571 129.921C948.544 130.033 948.544 130.148 948.57 130.26C948.596 130.373 948.649 130.479 948.724 130.572C948.8 130.665 948.896 130.744 949.008 130.803C949.12 130.861 949.245 130.899 949.374 130.913L951.078 131.064L945.618 135.547L935.53 134.709Z" fill="#F06900"/>
<path d="M1060.23 244.293C1079.82 220.901 1083.46 189.7 1066.57 164.358C1054.89 146.834 1035.62 135.458 1014 131.277" stroke="#84776C" stroke-miterlimit="10" stroke-dasharray="2 2"/>
<path d="M1052.5 250.539C1052.27 250.919 1052.21 251.365 1052.34 251.782C1052.47 252.2 1052.78 252.557 1053.2 252.779V252.779C1053.71 253.046 1054.32 253.129 1054.9 253.011C1055.48 252.893 1055.99 252.584 1056.32 252.146L1061.83 244.68L1061.93 244.513L1069.01 243.863L1068.29 245.101C1068.19 245.283 1068.16 245.491 1068.21 245.69C1068.26 245.889 1068.39 246.066 1068.57 246.191C1068.79 246.309 1069.06 246.346 1069.32 246.293C1069.57 246.241 1069.79 246.103 1069.93 245.91L1071.36 243.643L1076.68 243.151L1075.68 244.908C1075.57 245.095 1075.55 245.31 1075.62 245.511C1075.68 245.711 1075.84 245.882 1076.04 245.989V245.989C1076.07 246.077 1076.13 246.155 1076.21 246.215C1076.29 246.275 1076.39 246.314 1076.5 246.326C1076.6 246.339 1076.71 246.326 1076.8 246.288C1076.9 246.25 1076.98 246.189 1077.04 246.112L1079.04 242.958L1082.57 242.633C1083.22 242.569 1083.85 242.378 1084.41 242.074C1084.97 241.77 1085.44 241.361 1085.8 240.876L1086.39 240.103L1075.51 239.119C1075.51 239.119 1068.51 238.557 1067.4 235.518L1072.8 226.664L1072.86 226.541L1080.35 225.829L1081.99 223.914L1074.82 222.333L1075.31 221.296C1075.32 221.276 1075.32 221.252 1075.31 221.231C1075.31 221.209 1075.29 221.19 1075.27 221.178C1075.25 221.165 1075.22 221.16 1075.2 221.162C1075.17 221.165 1075.15 221.175 1075.13 221.191L1074.13 222.069L1069.13 217.062L1067.71 219.382L1070.71 225.074L1070.52 225.241L1064.69 232.909C1063.59 233.717 1061.6 234.719 1059.86 233.058C1057.29 230.608 1050.52 221.05 1050.52 221.05L1049.85 222.509C1049.42 223.463 1049.42 224.523 1049.85 225.478L1051.04 228.218L1049.49 230.854C1049.39 231.036 1049.36 231.245 1049.41 231.444C1049.46 231.643 1049.6 231.819 1049.78 231.943C1049.89 232.009 1050.01 232.054 1050.14 232.075C1050.27 232.097 1050.4 232.094 1050.53 232.068C1050.65 232.041 1050.77 231.991 1050.88 231.921C1050.98 231.851 1051.07 231.763 1051.13 231.662L1051.97 230.335L1053.73 234.367L1052.18 237.002C1052.08 237.185 1052.05 237.394 1052.1 237.593C1052.15 237.792 1052.29 237.968 1052.47 238.092C1052.58 238.156 1052.7 238.2 1052.83 238.221C1052.96 238.242 1053.09 238.239 1053.22 238.212C1053.34 238.186 1053.46 238.137 1053.57 238.067C1053.67 237.998 1053.76 237.911 1053.82 237.811L1054.66 236.484L1057.33 242.633L1052.5 250.539Z" fill="#F06900"/>
</g>
<defs>
<clipPath id="clip0">
<rect width="1440" height="561" fill="white"/>
</clipPath>
</defs>
</svg>
